<svg xmlns="http://www.w3.org/2000/svg" xmlns:xlink="http://www.w3.org/1999/xlink" width="1790"
    height="1320">
    <g transform="translate(-90 2520)">
        <path d="M0-2518.4h1870.4v1323.2H0z" fill="#1f1f1f" />
        <path d="M740-2494c0-3.3 2.7-6 6-6h508c3.3 0 6 2.7 6 6v148c0 3.3-2.7 6-6 6H746c-3.3 0-6-2.7-6-6z"
            stroke="#9e66e4" stroke-width="2" fill="#bb86fc" />
        <use xlink:href="#a"
            transform="matrix(1,0,0,1,752,-2488) translate(-8.009876543209828 75.15555555555555)" />
        <path d="M740-2254c0-3.3 2.7-6 6-6h508c3.3 0 6 2.7 6 6v148c0 3.3-2.7 6-6 6H746c-3.3 0-6-2.7-6-6z"
            stroke="#9e66e4" stroke-width="2" fill="#bb86fc" />
        <use xlink:href="#b"
            transform="matrix(1,0,0,1,752,-2248) translate(114.08179012345684 75.3722222222222)" />
        <path d="M1000-2262.5v-55.88" stroke="#03dac6" stroke-width="3" fill="none" />
        <path d="M1001.5-2261h-3v-1.54h3z" stroke="#03dac6" stroke-width=".05" fill="#03dac6" />
        <path d="M1000-2334.15l4.64 14.27h-9.28z" stroke="#03dac6" stroke-width="3"
            fill="#03dac6" />
        <path d="M680-2300c0 66.27-58.2 120-130 120s-130-53.73-130-120c0-66.27 58.2-120 130-120s130 53.73 130 120z"
            fill="#e81313" />
        <use xlink:href="#c"
            transform="matrix(1,0,0,1,425,-2415) translate(36 100.4972222222222)" />
        <use xlink:href="#d"
            transform="matrix(1,0,0,1,425,-2415) translate(36 143.43055555555554)" />
        <path d="M1600-2300c0 66.27-58.2 120-130 120s-130-53.73-130-120c0-66.27 58.2-120 130-120s130 53.73 130 120z"
            fill="#e81313" />
        <use xlink:href="#e"
            transform="matrix(1,0,0,1,1345,-2415) translate(36 100.4972222222222)" />
        <use xlink:href="#f"
            transform="matrix(1,0,0,1,1345,-2415) translate(36 143.43055555555554)" />
        <path d="M1262.5-2420h33.7c3.3 0 6 2.7 6 6v80.77c0 3.32 2.67 6 6 6h14.55" stroke="#03dac6"
            stroke-width="3" fill="none" />
        <path d="M1262.54-2418.5H1261v-3h1.54z" stroke="#03dac6" stroke-width=".05"
            fill="#03dac6" />
        <path d="M1338.52-2327.23l-14.27 4.64v-9.26z" stroke="#03dac6" stroke-width="3"
            fill="#03dac6" />
        <path d="M1262.5-2180h36.88c3.3 0 6-2.7 6-6v-62.36c0-3.3 2.7-6 6-6h17.76" stroke="#03dac6"
            stroke-width="3" fill="none" />
        <path d="M1262.54-2178.5H1261v-3h1.54z" stroke="#03dac6" stroke-width=".05"
            fill="#03dac6" />
        <path d="M1344.9-2254.36l-14.26 4.64v-9.28z" stroke="#03dac6" stroke-width="3"
            fill="#03dac6" />
        <path d="M737.5-2420h-25.3c-3.3 0-6 2.7-6 6v70.3c0 3.3-2.67 6-6 6h-6.15" stroke="#03dac6"
            stroke-width="3" fill="none" />
        <path d="M739-2418.5h-1.54v-3H739z" stroke="#03dac6" stroke-width=".05" fill="#03dac6" />
        <path d="M678.28-2337.7l14.27-4.65v9.27z" stroke="#03dac6" stroke-width="3"
            fill="#03dac6" />
        <path d="M737.5-2180h-23.98c-3.32 0-6-2.7-6-6v-78.56c0-3.32-2.7-6-6-6h-4.86" stroke="#03dac6" stroke-width="3" fill="none" />
        <path d="M739-2178.5h-1.54v-3H739z" stroke="#03dac6" stroke-width=".05" fill="#03dac6" />
        <path d="M680.9-2270.56l14.26-4.64v9.27z" stroke="#03dac6" stroke-width="3"
            fill="#03dac6" />
        <path d="M123.67-2284c0-3.3 2.7-6 6-6h328c3.3 0 6 2.7 6 6v208c0 3.3-2.7 6-6 6h-328c-3.3 0-6-2.7-6-6z"
            stroke="#000" stroke-opacity="0" stroke-width="2" fill="#fff" fill-opacity="0" />
        <use xlink:href="#g"
            transform="matrix(1,0,0,1,128.67006172839513,-2285) translate(7.340123456790195 119.68472222222222)" />
        <path d="M127.34-1960H460v191.87H127.34z" fill="#fff" fill-opacity="0" />
        <use xlink:href="#h"
            transform="matrix(1,0,0,1,132.34012345679025,-1955) translate(0 60.62222222222222)" />
        <use xlink:href="#g"
            transform="matrix(1,0,0,1,132.34012345679025,-1955) translate(0 151.55555555555554)" />
        <path d="M740-1851.8c0-3.3 2.7-6 6-6h508c3.3 0 6 2.7 6 6v159.87c0 3.3-2.7 6-6 6H746c-3.3 0-6-2.7-6-6z"
            stroke="#9e66e4" stroke-width="2" fill="#bb86fc" />
        <use xlink:href="#i"
            transform="matrix(1,0,0,1,752,-1845.7999999999997) translate(95.65833333333353 83.05277777777775)" />
        <path d="M1020-2029.93c0-3.32 2.7-6 6-6h148c3.3 0 6 2.68 6 6v108c0 3.3-2.7 6-6 6h-148c-3.3 0-6-2.7-6-6z"
            stroke="#03dac6" stroke-width="2" fill="#fff" />
        <use xlink:href="#j"
            transform="matrix(1,0,0,1,1032,-2023.9333333333334) translate(-2.221296296296245 56.04444444444444)" />
        <path d="M1740-1780c0 44.18-35.82 80-80 80s-80-35.82-80-80 35.82-80 80-80 80 35.82 80 80z"
            stroke="#000" stroke-width="2" fill="#54c45e" />
        <use xlink:href="#k"
            transform="matrix(1,0,0,1,1585,-1855) translate(26.406851851851876 61.43472222222221)" />
        <use xlink:href="#l"
            transform="matrix(1,0,0,1,1585,-1855) translate(23.3756790123457 104.36805555555554)" />
        <path d="M1354.68-1770.37h-92.18v-3h92.18zm203.92-2.2h-73.06v-3h73.06z" stroke="#03dac6"
            stroke-width=".05" fill="#03dac6" />
        <path d="M1262.54-1770.37H1261v-3h1.54z" fill="#03dac6" />
        <path d="M1262.56-1770.34h-1.6v-3.05h1.6zm-1.53-3v2.95h1.48v-2.94z" stroke="#03dac6"
            stroke-width=".05" fill="#03dac6" />
        <path d="M1574.36-1774.07l-14.26 4.64v-9.27z" fill="#03dac6" />
        <path d="M1579.22-1774.07l-20.62 6.7v-13.4zm-17.62 2.57l7.9-2.57-7.9-2.57z" stroke="#03dac6"
            stroke-width=".05" fill="#03dac6" />
        <use xlink:href="#m"
            transform="matrix(1,0,0,1,1354.6768666522403,-1786.4333332965173) translate(0 17.955555555555552)" />
        <path d="M1661.5-1881.62h-3v-60.15h3zm0-92.4h-3v-31.5h3zm-479-44.8v-3h104.03v3z" stroke="#03dac6" stroke-width=".05" fill="#03dac6" />
        <path d="M1182.54-2018.83H1181v-3h1.54z" fill="#03dac6" />
        <path d="M1182.56-2018.8h-1.6v-3.06h1.6zm-1.53-3v2.94h1.48v-2.95z" stroke="#03dac6"
            stroke-width=".05" fill="#03dac6" />
        <path d="M1660-1865.85l-4.64-14.27h9.28z" fill="#03dac6" />
        <path d="M1660-1861l-6.7-20.62h13.4zm-2.57-17.62l2.57 7.9 2.57-7.9z" stroke="#03dac6"
            stroke-width=".05" fill="#03dac6" />
        <use xlink:href="#n"
            transform="matrix(1,0,0,1,1286.5272895146527,-2035.133333333333) translate(0 19.733333333333334)" />
        <use xlink:href="#o"
            transform="matrix(1,0,0,1,1286.5272895146527,-2035.133333333333) translate(76.6722222222222 19.733333333333334)" />
        <use xlink:href="#p"
            transform="matrix(1,0,0,1,1286.5272895146527,-2035.133333333333) translate(164.17037037037034 19.733333333333334)" />
        <use xlink:href="#q"
            transform="matrix(1,0,0,1,1286.5272895146527,-2035.133333333333) translate(223.02777777777771 19.733333333333334)" />
        <use xlink:href="#r"
            transform="matrix(1,0,0,1,1286.5272895146527,-2035.133333333333) translate(270.99074074074065 19.733333333333334)" />
        <use xlink:href="#p"
            transform="matrix(1,0,0,1,1286.5272895146527,-2035.133333333333) translate(358.69444444444434 19.733333333333334)" />
        <use xlink:href="#s"
            transform="matrix(1,0,0,1,1286.5272895146527,-2035.133333333333) translate(417.5518518518517 19.733333333333334)" />
        <use xlink:href="#t"
            transform="matrix(1,0,0,1,1286.5272895146527,-2035.133333333333) translate(496.96481481481464 19.733333333333334)" />
        <path d="M663.67-1934.07c0 47.46-44.77 85.94-100 85.94s-100-38.48-100-85.94 44.77-85.93 100-85.93 100 38.47 100 85.93z"
            fill="#e81313" />
        <use xlink:href="#e"
            transform="matrix(1,0,0,1,468.6700617283951,-2015) translate(36 69.1222222222222)" />
        <use xlink:href="#u"
            transform="matrix(1,0,0,1,468.6700617283951,-2015) translate(36 112.05555555555554)" />
        <path d="M640-1760c0 47.46-44.77 85.93-100 85.93s-100-38.47-100-85.93c0-47.46 44.77-85.93 100-85.93s100 38.47 100 85.93z"
            fill="#e81313" />
        <use xlink:href="#e"
            transform="matrix(1,0,0,1,445,-1840.933333333333) translate(36 69.1222222222222)" />
        <use xlink:href="#u"
            transform="matrix(1,0,0,1,445,-1840.933333333333) translate(36 112.05555555555554)" />
        <path d="M737.5-1824.33h-30.16c-3.32 0-6-2.7-6-6v-97.74c0-3.3-2.7-6-6-6H684.3" stroke="#03dac6" stroke-width="3" fill="none" />
        <path d="M739-1822.83h-1.54v-3H739z" stroke="#03dac6" stroke-width=".05" fill="#03dac6" />
        <path d="M668.52-1934.07l14.27-4.63v9.27z" stroke="#03dac6" stroke-width="3"
            fill="#03dac6" />
        <path d="M737.5-1748.33h-77.8" stroke="#03dac6" stroke-width="3" fill="none" />
        <path d="M739-1746.83h-1.54v-3H739z" stroke="#03dac6" stroke-width=".05" fill="#03dac6" />
        <path d="M643.93-1748.33l14.27-4.64v9.27z" stroke="#03dac6" stroke-width="3"
            fill="#03dac6" />
        <path d="M200-1589c0-3.3 2.7-6 6-6h988c3.3 0 6 2.7 6 6v158c0 3.3-2.7 6-6 6H206c-3.3 0-6-2.7-6-6z"
            stroke="#9e66e4" stroke-width="2" fill="#bb86fc" />
        <use xlink:href="#v"
            transform="matrix(1,0,0,1,212,-1583) translate(-5.797222222222217 78.82222222222222)" />
        <path d="M700-1597.5v-36.97c0-3.3 2.7-6 6-6h288c3.3 0 6-2.68 6-6v-17.84" stroke="#03dac6"
            stroke-width="3" fill="none" />
        <path d="M701.5-1596h-3v-1.54h3z" stroke="#03dac6" stroke-width=".05" fill="#03dac6" />
        <path d="M1000-1680.08l4.64 14.27h-9.28z" stroke="#03dac6" stroke-width="3"
            fill="#03dac6" />
        <path d="M1400-1584c0-3.3 2.7-6 6-6h448c3.3 0 6 2.7 6 6v148c0 3.3-2.7 6-6 6h-448c-3.3 0-6-2.7-6-6z"
            stroke="#9e66e4" stroke-width="2" fill="#bb86fc" />
        <use xlink:href="#w"
            transform="matrix(1,0,0,1,1412,-1578) translate(2.294753086419803 74.28888888888889)" />
        <path d="M1420-1334c0-3.3 2.7-6 6-6h368c3.3 0 6 2.7 6 6v108c0 3.3-2.7 6-6 6h-368c-3.3 0-6-2.7-6-6z"
            stroke="#9e66e4" stroke-width="2" fill="#bb86fc" />
        <use xlink:href="#x"
            transform="matrix(1,0,0,1,1432,-1328) translate(82.14537037037044 55.622222222222206)" />
        <path d="M1610-1342.5v-65.88" stroke="#03dac6" stroke-width="3" fill="none" />
        <path d="M1611.5-1341h-3v-1.54h3z" stroke="#03dac6" stroke-width=".05" fill="#03dac6" />
        <path d="M1610-1424.15l4.64 14.27h-9.28z" stroke="#03dac6" stroke-width="3"
            fill="#03dac6" />
        <path d="M1624.2-1639.47l3.6.98 2.72 2.73.98 3.6v39.67h-3v-39.27l-.66-2.45-1.6-1.58-2.44-.67h-201.33v-3zm-570.04-2.25l1.6 1.6 2.44.65h201.33v3H1057.8l-3.6-.97-2.72-2.72-.98-3.6v-20.55h3v20.13z"
            stroke="#03dac6" stroke-width=".05" fill="#03dac6" />
        <path d="M1631.5-1591h-3v-1.54h3z" fill="#03dac6" />
        <path d="M1631.53-1590.97h-3.06v-1.6h3.06zm-3-1.54v1.47h2.94v-1.48z" stroke="#03dac6"
            stroke-width=".05" fill="#03dac6" />
        <path d="M1056.64-1665.8h-9.28l4.64-14.28z" fill="#03dac6" />
        <path d="M1058.7-1664.3h-13.4l6.7-20.63zm-9.27-3h5.14l-2.57-7.93z" stroke="#03dac6"
            stroke-width=".05" fill="#03dac6" />
        <use xlink:href="#y"
            transform="matrix(1,0,0,1,1259.5314814814815,-1652.7666665) translate(0 19.73333333333333)" />
        <use xlink:href="#z"
            transform="matrix(1,0,0,1,1259.5314814814815,-1652.7666665) translate(68.44999999999999 19.73333333333333)" />
        <path d="M1244.35-1508.5h-22.73v-3h22.73z" stroke="#03dac6" stroke-width=".05"
            fill="#03dac6" />
        <path fill="#03dac6" />
        <path stroke="#03dac6" stroke-width=".05" fill="#03dac6" />
        <path d="M1220.12-1505.36l-14.27-4.64 14.27-4.64z" fill="#03dac6" />
        <path d="M1221.62-1503.3L1201-1510l20.62-6.7zm-10.9-6.7l7.9 2.57v-5.14z" stroke="#03dac6"
            stroke-width=".05" fill="#03dac6" />
        <use xlink:href="#A"
            transform="matrix(1,0,0,1,1244.351395598497,-1522.1333333333334) translate(0 16.177777777777774)" />
        <use xlink:href="#B"
            transform="matrix(1,0,0,1,1244.351395598497,-1522.1333333333334) translate(79.70925925925923 16.177777777777774)" />
        <path d="M166.05-1374.67c1.52-2.95 5.44-5.33 8.76-5.33h112.4c3.33 0 7.25 2.38 8.77 5.33l35.95 69.34c1.52 2.95 1.52 7.7 0 10.66l-35.95 69.34c-1.52 2.95-5.44 5.33-8.76 5.33H174.8c-3.3 0-7.23-2.38-8.75-5.33l-35.95-69.34c-1.52-2.95-1.52-7.7 0-10.66z"
            stroke="#9e66e4" stroke-width="2" fill="#bb86fc" />
        <use xlink:href="#C"
            transform="matrix(1,0,0,1,132.34012345679025,-1375) translate(56.60716049382718 40.906944444444434)" />
        <use xlink:href="#D"
            transform="matrix(1,0,0,1,132.34012345679025,-1375) translate(34.23679012345681 81.17361111111109)" />
        <use xlink:href="#E"
            transform="matrix(1,0,0,1,132.34012345679025,-1375) translate(63.17845679012346 121.44027777777774)" />
        <path d="M701.5-1316.13h-3v-106.37h3z" stroke="#03dac6" stroke-width=".05" fill="#03dac6" />
        <path d="M701.5-1422.46h-3v-1.54h3z" fill="#03dac6" />
        <path d="M701.52-1422.44h-3.04v-1.6h3.04zm-3-1.53v1.48h2.96v-1.47z" stroke="#03dac6"
            stroke-width=".05" fill="#03dac6" />
        <path d="M352.7-1295.5l-13.85-4.5 13.85-4.5z" fill="#03dac6" />
        <path d="M352.7-1293.92L334-1300l18.7-6.08zm-9-6.08l7.92 2.57v-5.14z" stroke="#03dac6"
            stroke-width=".05" fill="#03dac6" />
        <use xlink:href="#F"
            transform="matrix(1,0,0,1,352.6976143476536,-1316.1333333333334) translate(0 21.511111111111106)" />
        <use xlink:href="#G"
            transform="matrix(1,0,0,1,352.6976143476536,-1316.1333333333334) translate(55.19691358024691 21.511111111111106)" />
        <use xlink:href="#H"
            transform="matrix(1,0,0,1,352.6976143476536,-1316.1333333333334) translate(167.00987654320986 21.511111111111106)" />
        <use xlink:href="#I"
            transform="matrix(1,0,0,1,352.6976143476536,-1316.1333333333334) translate(278.9722222222222 21.511111111111106)" />
        <use xlink:href="#J"
            transform="matrix(1,0,0,1,352.6976143476536,-1316.1333333333334) translate(343.05740740740737 21.511111111111106)" />
        <use xlink:href="#K"
            transform="matrix(1,0,0,1,352.6976143476536,-1316.1333333333334) translate(457.93271604938263 21.511111111111106)" />
        <path d="M740-1845.87c0-3.3 2.7-6 6-6h248c3.3 0 6 2.7 6 6v39.87c0 3.3-2.7 6-6 6H746c-3.3 0-6-2.7-6-6z"
            stroke="#9e66e4" stroke-width="2" fill="#9391ff" />
        <g>
            <use xlink:href="#L"
                transform="matrix(1,0,0,1,745,-1846.8666666666666) translate(48.3962962962963 24.98333333333333)" />
            <use xlink:href="#M"
                transform="matrix(1,0,0,1,745,-1846.8666666666666) translate(122.25925925925925 24.98333333333333)" />
        </g>
        <path d="M1400-1584c0-3.3 2.7-6 6-6h248c3.3 0 6 2.7 6 6v39.87c0 3.3-2.7 6-6 6h-248c-3.3 0-6-2.7-6-6z"
            stroke="#9e66e4" stroke-width="2" fill="#9391ff" />
        <g>
            <use xlink:href="#N"
                transform="matrix(1,0,0,1,1405,-1585) translate(51.10277777777779 24.98333333333333)" />
            <use xlink:href="#M"
                transform="matrix(1,0,0,1,1405,-1585) translate(119.55277777777778 24.98333333333333)" />
        </g>
        <path d="M1200-2001.9c0-3.3 2.7-6 6-6h164.33c3.3 0 6 2.7 6 6v88c0 3.3-2.7 6-6 6H1206c-3.3 0-6-2.7-6-6z"
            stroke="#03dac6" stroke-width="2" fill="#fff" />
        <g>
            <use xlink:href="#O"
                transform="matrix(1,0,0,1,1212,-1995.8999999999999) translate(-4.726851851851848 43.37777777777778)" />
        </g>
        <path d="M1611.68-1864.44h-3v-77.33h3zm-232.85-91.96v-3h5.77v3z" stroke="#03dac6"
            stroke-width=".05" fill="#03dac6" />
        <path d="M1378.87-1956.4h-1.54v-3h1.54z" fill="#03dac6" />
        <path d="M1378.9-1956.38h-1.6v-3.04h1.6zm-1.55-3v2.96h1.5v-2.95z" stroke="#03dac6"
            stroke-width=".05" fill="#03dac6" />
        <path d="M1610.18-1848.68l-4.63-14.26h9.27z" fill="#03dac6" />
        <path d="M1610.18-1843.82l-6.7-20.62h13.4zm-2.57-17.62l2.58 7.9 2.57-7.9z" stroke="#03dac6"
            stroke-width=".05" fill="#03dac6" />
        <g>
            <use xlink:href="#P"
                transform="matrix(1,0,0,1,1384.5958389700709,-1974.0333333333333) translate(0 21.511111111111102)" />
            <use xlink:href="#Q"
                transform="matrix(1,0,0,1,1384.5958389700709,-1974.0333333333333) translate(101.5055555555555 21.511111111111102)" />
            <use xlink:href="#R"
                transform="matrix(1,0,0,1,1384.5958389700709,-1974.0333333333333) translate(165.66543209876534 21.511111111111102)" />
            <use xlink:href="#S"
                transform="matrix(1,0,0,1,1384.5958389700709,-1974.0333333333333) translate(229.8253086419752 21.511111111111102)" />
        </g>
        <path d="M1000-1860.3v-218.08" stroke="#03dac6" stroke-width="3" fill="none" />
        <path d="M1001.5-1858.8h-3v-1.54h3z" stroke="#03dac6" stroke-width=".05" fill="#03dac6" />
        <path d="M1000-2094.15l4.64 14.27h-9.28z" stroke="#03dac6" stroke-width="3"
            fill="#03dac6" />
        <path d="M1102-1860.3v-34" stroke="#03dac6" stroke-width="3" fill="none" />
        <path d="M1103.5-1858.8h-3v-1.54h3z" stroke="#03dac6" stroke-width=".05" fill="#03dac6" />
        <path d="M1102-1910.08l4.64 14.27h-9.28z" stroke="#03dac6" stroke-width="3"
            fill="#03dac6" />
        <path d="M1230-1860.3v-16.55c0-3.3 2.7-6 6-6h48.73c1.9 0 3.43-1.54 3.43-3.43" stroke="#03dac6" stroke-width="3" fill="none" />
        <path d="M1231.5-1858.8h-3v-1.54h3z" stroke="#03dac6" stroke-width=".05" fill="#03dac6" />
        <path d="M1288.16-1902.05l4.64 14.27h-9.27z" stroke="#03dac6" stroke-width="3"
            fill="#03dac6" />
        <path d="M110.5-2059c0-.28.22-.5.5-.5h1748c.28 0 .5.22.5.5s-.22.5-.5.5H111c-.28 0-.5-.22-.5-.5z"
            stroke="#e81313" fill="none" />
        <defs>
            <path fill="#fff" d="M240 0l2-218c-23 76-54 145-80 218h-23L58-218 59 0H30v-248h44l77 211c21-75 51-140 76-211h43V0h-30"
                id="T" />
            <path fill="#fff" d="M100-194c62-1 85 37 85 99 1 63-27 99-86 99S16-35 15-95c0-66 28-99 85-99zM99-20c44 1 53-31 53-75 0-43-8-75-51-75s-53 32-53 75 10 74 51 75"
                id="U" />
            <path fill="#fff" d="M85-194c31 0 48 13 60 33l-1-100h32l1 261h-30c-2-10 0-23-3-31C134-8 116 4 85 4 32 4 16-35 15-94c0-66 23-100 70-100zm9 24c-40 0-46 34-46 75 0 40 6 74 45 74 42 0 51-32 51-76 0-42-9-74-50-73"
                id="V" />
            <path fill="#fff" d="M100-194c63 0 86 42 84 106H49c0 40 14 67 53 68 26 1 43-12 49-29l28 8c-11 28-37 45-77 45C44 4 14-33 15-96c1-61 26-98 85-98zm52 81c6-60-76-77-97-28-3 7-6 17-6 28h103"
                id="W" />
            <path fill="#fff" d="M24 0v-261h32V0H24" id="X" />
            <path fill="#fff" d="M30 0v-248h33v221h125V0H30" id="Y" />
            <path fill="#fff" d="M96-169c-40 0-48 33-48 73s9 75 48 75c24 0 41-14 43-38l32 2c-6 37-31 61-74 61-59 0-76-41-82-99-10-93 101-131 147-64 4 7 5 14 7 22l-32 3c-4-21-16-35-41-35"
                id="Z" />
            <path fill="#fff" d="M141-36C126-15 110 5 73 4 37 3 15-17 15-53c-1-64 63-63 125-63 3-35-9-54-41-54-24 1-41 7-42 31l-33-3c5-37 33-52 76-52 45 0 72 20 72 64v82c-1 20 7 32 28 27v20c-31 9-61-2-59-35zM48-53c0 20 12 33 32 33 41-3 63-29 60-74-43 2-92-5-92 41"
                id="aa" />
            <path fill="#fff" d="M0 4l72-265h28L28 4H0" id="ab" />
            <path fill="#fff" d="M190 0L58-211 59 0H30v-248h39L202-35l-2-213h31V0h-41" id="ac" />
            <path fill="#fff" d="M59-47c-2 24 18 29 38 22v24C64 9 27 4 27-40v-127H5v-23h24l9-43h21v43h35v23H59v120"
                id="ad" />
            <path fill="#fff" d="M206 0h-36l-40-164L89 0H53L-1-190h32L70-26l43-164h34l41 164 42-164h31" id="ae" />
            <path fill="#fff" d="M114-163C36-179 61-72 57 0H25l-1-190h30c1 12-1 29 2 39 6-27 23-49 58-41v29"
                id="af" />
            <path fill="#fff" d="M143 0L79-87 56-68V0H24v-261h32v163l83-92h37l-77 82L181 0h-38"
                id="ag" />
            <path fill="#fff" d="M30-248c118-7 216 8 213 122C240-48 200 0 122 0H30v-248zM63-27c89 8 146-16 146-99s-60-101-146-95v194"
                id="ah" />
            <path fill="#fff" d="M185-189c-5-48-123-54-124 2 14 75 158 14 163 119 3 78-121 87-175 55-17-10-28-26-33-46l33-7c5 56 141 63 141-1 0-78-155-14-162-118-5-82 145-84 179-34 5 7 8 16 11 25"
                id="ai" />
            <path fill="#fff" d="M84 4C-5 8 30-112 23-190h32v120c0 31 7 50 39 49 72-2 45-101 50-169h31l1 190h-30c-1-10 1-25-2-33-11 22-28 36-60 37"
                id="aj" />
            <g id="a">
                <use transform="matrix(0.09938271604938267,0,0,0.09938271604938267,0,0)"
                    xlink:href="#T" />
                <use transform="matrix(0.09938271604938267,0,0,0.09938271604938267,29.71543209876542,0)"
                    xlink:href="#U" />
                <use transform="matrix(0.09938271604938267,0,0,0.09938271604938267,49.59197530864195,0)"
                    xlink:href="#V" />
                <use transform="matrix(0.09938271604938267,0,0,0.09938271604938267,69.46851851851848,0)"
                    xlink:href="#W" />
                <use transform="matrix(0.09938271604938267,0,0,0.09938271604938267,89.34506172839501,0)"
                    xlink:href="#X" />
                <use transform="matrix(0.09938271604938267,0,0,0.09938271604938267,97.19629629629624,0)"
                    xlink:href="#Y" />
                <use transform="matrix(0.09938271604938267,0,0,0.09938271604938267,117.07283950617277,0)"
                    xlink:href="#U" />
                <use transform="matrix(0.09938271604938267,0,0,0.09938271604938267,136.9493827160493,0)"
                    xlink:href="#Z" />
                <use transform="matrix(0.09938271604938267,0,0,0.09938271604938267,154.8382716049382,0)"
                    xlink:href="#aa" />
                <use transform="matrix(0.09938271604938267,0,0,0.09938271604938267,174.71481481481473,0)"
                    xlink:href="#X" />
                <use transform="matrix(0.09938271604938267,0,0,0.09938271604938267,182.56604938271596,0)"
                    xlink:href="#ab" />
                <use transform="matrix(0.09938271604938267,0,0,0.09938271604938267,192.50432098765424,0)"
                    xlink:href="#ac" />
                <use transform="matrix(0.09938271604938267,0,0,0.09938271604938267,218.24444444444435,0)"
                    xlink:href="#W" />
                <use transform="matrix(0.09938271604938267,0,0,0.09938271604938267,238.12098765432088,0)"
                    xlink:href="#ad" />
                <use transform="matrix(0.09938271604938267,0,0,0.09938271604938267,248.05925925925916,0)"
                    xlink:href="#ae" />
                <use transform="matrix(0.09938271604938267,0,0,0.09938271604938267,273.79938271604925,0)"
                    xlink:href="#U" />
                <use transform="matrix(0.09938271604938267,0,0,0.09938271604938267,293.6759259259258,0)"
                    xlink:href="#af" />
                <use transform="matrix(0.09938271604938267,0,0,0.09938271604938267,305.50246913580236,0)"
                    xlink:href="#ag" />
                <use transform="matrix(0.09938271604938267,0,0,0.09938271604938267,323.3913580246912,0)"
                    xlink:href="#ah" />
                <use transform="matrix(0.09938271604938267,0,0,0.09938271604938267,349.13148148148133,0)"
                    xlink:href="#aa" />
                <use transform="matrix(0.09938271604938267,0,0,0.09938271604938267,369.0080246913579,0)"
                    xlink:href="#ad" />
                <use transform="matrix(0.09938271604938267,0,0,0.09938271604938267,378.94629629629617,0)"
                    xlink:href="#aa" />
                <use transform="matrix(0.09938271604938267,0,0,0.09938271604938267,398.8228395061727,0)"
                    xlink:href="#ai" />
                <use transform="matrix(0.09938271604938267,0,0,0.09938271604938267,422.67469135802463,0)"
                    xlink:href="#U" />
                <use transform="matrix(0.09938271604938267,0,0,0.09938271604938267,442.55123456790113,0)"
                    xlink:href="#aj" />
                <use transform="matrix(0.09938271604938267,0,0,0.09938271604938267,462.4277777777777,0)"
                    xlink:href="#af" />
                <use transform="matrix(0.09938271604938267,0,0,0.09938271604938267,474.25432098765424,0)"
                    xlink:href="#Z" />
                <use transform="matrix(0.09938271604938267,0,0,0.09938271604938267,492.1432098765431,0)"
                    xlink:href="#W" />
            </g>
            <path fill="#fff" d="M233-177c-1 41-23 64-60 70L243 0h-38l-65-103H63V0H30v-248c88 3 205-21 203 71zM63-129c60-2 137 13 137-47 0-61-80-42-137-45v92"
                id="ak" />
            <path fill="#fff" d="M115-194c55 1 70 41 70 98S169 2 115 4C84 4 66-9 55-30l1 105H24l-1-265h31l2 30c10-21 28-34 59-34zm-8 174c40 0 45-34 45-75s-6-73-45-74c-42 0-51 32-51 76 0 43 10 73 51 73"
                id="al" />
            <path fill="#fff" d="M135-143c-3-34-86-38-87 0 15 53 115 12 119 90S17 21 10-45l28-5c4 36 97 45 98 0-10-56-113-15-118-90-4-57 82-63 122-42 12 7 21 19 24 35"
                id="am" />
            <path fill="#fff" d="M24-231v-30h32v30H24zM24 0v-190h32V0H24" id="an" />
            <path fill="#fff" d="M179-190L93 31C79 59 56 82 12 73V49c39 6 53-20 64-50L1-190h34L92-34l54-156h33"
                id="ao" />
            <g id="b">
                <use transform="matrix(0.09938271604938267,0,0,0.09938271604938267,0,0)"
                    xlink:href="#T" />
                <use transform="matrix(0.09938271604938267,0,0,0.09938271604938267,29.71543209876542,0)"
                    xlink:href="#U" />
                <use transform="matrix(0.09938271604938267,0,0,0.09938271604938267,49.59197530864195,0)"
                    xlink:href="#V" />
                <use transform="matrix(0.09938271604938267,0,0,0.09938271604938267,69.46851851851848,0)"
                    xlink:href="#W" />
                <use transform="matrix(0.09938271604938267,0,0,0.09938271604938267,89.34506172839501,0)"
                    xlink:href="#X" />
                <use transform="matrix(0.09938271604938267,0,0,0.09938271604938267,97.19629629629624,0)"
                    xlink:href="#ak" />
                <use transform="matrix(0.09938271604938267,0,0,0.09938271604938267,122.93641975308634,0)"
                    xlink:href="#W" />
                <use transform="matrix(0.09938271604938267,0,0,0.09938271604938267,142.8129629629629,0)"
                    xlink:href="#al" />
                <use transform="matrix(0.09938271604938267,0,0,0.09938271604938267,162.68950617283943,0)"
                    xlink:href="#U" />
                <use transform="matrix(0.09938271604938267,0,0,0.09938271604938267,182.56604938271596,0)"
                    xlink:href="#am" />
                <use transform="matrix(0.09938271604938267,0,0,0.09938271604938267,200.45493827160485,0)"
                    xlink:href="#an" />
                <use transform="matrix(0.09938271604938267,0,0,0.09938271604938267,208.30617283950608,0)"
                    xlink:href="#ad" />
                <use transform="matrix(0.09938271604938267,0,0,0.09938271604938267,218.24444444444435,0)"
                    xlink:href="#U" />
                <use transform="matrix(0.09938271604938267,0,0,0.09938271604938267,238.12098765432088,0)"
                    xlink:href="#af" />
                <use transform="matrix(0.09938271604938267,0,0,0.09938271604938267,249.94753086419743,0)"
                    xlink:href="#ao" />
            </g>
            <path fill="#fff" d="M33 0v-248h34V0H33" id="ap" />
            <path fill="#fff" d="M117-194c89-4 53 116 60 194h-32v-121c0-31-8-49-39-48C34-167 62-67 57 0H25l-1-190h30c1 10-1 24 2 32 11-22 29-35 61-36"
                id="aq" />
            <path fill="#fff" d="M101-234c-31-9-42 10-38 44h38v23H63V0H32v-167H5v-23h27c-7-52 17-82 69-68v24"
                id="ar" />
            <g id="c">
                <use transform="matrix(0.09938271604938267,0,0,0.09938271604938267,0,0)"
                    xlink:href="#ap" />
                <use transform="matrix(0.09938271604938267,0,0,0.09938271604938267,9.938271604938267,0)"
                    xlink:href="#aq" />
                <use transform="matrix(0.09938271604938267,0,0,0.09938271604938267,29.814814814814802,0)"
                    xlink:href="#ad" />
                <use transform="matrix(0.09938271604938267,0,0,0.09938271604938267,39.75308641975307,0)"
                    xlink:href="#W" />
                <use transform="matrix(0.09938271604938267,0,0,0.09938271604938267,59.629629629629605,0)"
                    xlink:href="#af" />
                <use transform="matrix(0.09938271604938267,0,0,0.09938271604938267,71.45617283950614,0)"
                    xlink:href="#ar" />
                <use transform="matrix(0.09938271604938267,0,0,0.09938271604938267,81.3944444444444,0)"
                    xlink:href="#aa" />
                <use transform="matrix(0.09938271604938267,0,0,0.09938271604938267,101.27098765432093,0)"
                    xlink:href="#Z" />
                <use transform="matrix(0.09938271604938267,0,0,0.09938271604938267,119.15987654320983,0)"
                    xlink:href="#W" />
            </g>
            <g id="d">
                <use transform="matrix(0.09938271604938267,0,0,0.09938271604938267,0,0)"
                    xlink:href="#ah" />
                <use transform="matrix(0.09938271604938267,0,0,0.09938271604938267,25.740123456790112,0)"
                    xlink:href="#aa" />
                <use transform="matrix(0.09938271604938267,0,0,0.09938271604938267,45.616666666666646,0)"
                    xlink:href="#ad" />
                <use transform="matrix(0.09938271604938267,0,0,0.09938271604938267,55.55493827160492,0)"
                    xlink:href="#aa" />
                <use transform="matrix(0.09938271604938267,0,0,0.09938271604938267,75.43148148148144,0)"
                    xlink:href="#ai" />
                <use transform="matrix(0.09938271604938267,0,0,0.09938271604938267,99.28333333333327,0)"
                    xlink:href="#U" />
                <use transform="matrix(0.09938271604938267,0,0,0.09938271604938267,119.1598765432098,0)"
                    xlink:href="#aj" />
                <use transform="matrix(0.09938271604938267,0,0,0.09938271604938267,139.03641975308634,0)"
                    xlink:href="#af" />
                <use transform="matrix(0.09938271604938267,0,0,0.09938271604938267,150.86296296296288,0)"
                    xlink:href="#Z" />
                <use transform="matrix(0.09938271604938267,0,0,0.09938271604938267,168.75185185185177,0)"
                    xlink:href="#W" />
            </g>
            <g id="e">
                <use transform="matrix(0.09938271604938267,0,0,0.09938271604938267,0,0)"
                    xlink:href="#ap" />
                <use transform="matrix(0.09938271604938267,0,0,0.09938271604938267,9.938271604938267,0)"
                    xlink:href="#aq" />
                <use transform="matrix(0.09938271604938267,0,0,0.09938271604938267,29.814814814814802,0)"
                    xlink:href="#ad" />
                <use transform="matrix(0.09938271604938267,0,0,0.09938271604938267,39.75308641975307,0)"
                    xlink:href="#W" />
                <use transform="matrix(0.09938271604938267,0,0,0.09938271604938267,59.629629629629605,0)"
                    xlink:href="#af" />
                <use transform="matrix(0.09938271604938267,0,0,0.09938271604938267,71.45617283950614,0)"
                    xlink:href="#ar" />
                <use transform="matrix(0.09938271604938267,0,0,0.09938271604938267,81.3944444444444,0)"
                    xlink:href="#aa" />
                <use transform="matrix(0.09938271604938267,0,0,0.09938271604938267,101.27098765432093,0)"
                    xlink:href="#Z" />
                <use transform="matrix(0.09938271604938267,0,0,0.09938271604938267,119.15987654320983,0)"
                    xlink:href="#W" />
            </g>
            <g id="f">
                <use transform="matrix(0.09938271604938267,0,0,0.09938271604938267,0,0)"
                    xlink:href="#ah" />
                <use transform="matrix(0.09938271604938267,0,0,0.09938271604938267,25.740123456790112,0)"
                    xlink:href="#aa" />
                <use transform="matrix(0.09938271604938267,0,0,0.09938271604938267,45.616666666666646,0)"
                    xlink:href="#ad" />
                <use transform="matrix(0.09938271604938267,0,0,0.09938271604938267,55.55493827160492,0)"
                    xlink:href="#aa" />
                <use transform="matrix(0.09938271604938267,0,0,0.09938271604938267,75.43148148148144,0)"
                    xlink:href="#ai" />
                <use transform="matrix(0.09938271604938267,0,0,0.09938271604938267,99.28333333333327,0)"
                    xlink:href="#U" />
                <use transform="matrix(0.09938271604938267,0,0,0.09938271604938267,119.1598765432098,0)"
                    xlink:href="#aj" />
                <use transform="matrix(0.09938271604938267,0,0,0.09938271604938267,139.03641975308634,0)"
                    xlink:href="#af" />
                <use transform="matrix(0.09938271604938267,0,0,0.09938271604938267,150.86296296296288,0)"
                    xlink:href="#Z" />
                <use transform="matrix(0.09938271604938267,0,0,0.09938271604938267,168.75185185185177,0)"
                    xlink:href="#W" />
            </g>
            <path fill="#fff" d="M177-190C167-65 218 103 67 71c-23-6-38-20-44-43l32-5c15 47 100 32 89-28v-30C133-14 115 1 83 1 29 1 15-40 15-95c0-56 16-97 71-98 29-1 48 16 59 35 1-10 0-23 2-32h30zM94-22c36 0 50-32 50-73 0-42-14-75-50-75-39 0-46 34-46 75s6 73 46 73"
                id="as" />
            <g id="g">
                <use transform="matrix(0.2104938271604938,0,0,0.2104938271604938,0,0)"
                    xlink:href="#ai" />
                <use transform="matrix(0.2104938271604938,0,0,0.2104938271604938,50.51851851851851,0)"
                    xlink:href="#an" />
                <use transform="matrix(0.2104938271604938,0,0,0.2104938271604938,67.14753086419752,0)"
                    xlink:href="#aq" />
                <use transform="matrix(0.2104938271604938,0,0,0.2104938271604938,109.24629629629628,0)"
                    xlink:href="#as" />
                <use transform="matrix(0.2104938271604938,0,0,0.2104938271604938,151.34506172839502,0)"
                    xlink:href="#X" />
                <use transform="matrix(0.2104938271604938,0,0,0.2104938271604938,167.97407407407403,0)"
                    xlink:href="#W" />
                <use transform="matrix(0.2104938271604938,0,0,0.2104938271604938,210.07283950617278,0)"
                    xlink:href="#ad" />
                <use transform="matrix(0.2104938271604938,0,0,0.2104938271604938,231.12222222222215,0)"
                    xlink:href="#U" />
                <use transform="matrix(0.2104938271604938,0,0,0.2104938271604938,273.2209876543209,0)"
                    xlink:href="#aq" />
            </g>
            <g id="h">
                <use transform="matrix(0.2104938271604938,0,0,0.2104938271604938,0,0)"
                    xlink:href="#ac" />
                <use transform="matrix(0.2104938271604938,0,0,0.2104938271604938,54.517901234567894,0)"
                    xlink:href="#U" />
            </g>
            <path fill="#fff" d="M137 0h-34L2-248h35l83 218 83-218h36" id="at" />
            <g id="i">
                <use transform="matrix(0.11172839506172826,0,0,0.11172839506172826,0,0)"
                    xlink:href="#T" />
                <use transform="matrix(0.11172839506172826,0,0,0.11172839506172826,33.40679012345675,0)"
                    xlink:href="#U" />
                <use transform="matrix(0.11172839506172826,0,0,0.11172839506172826,55.7524691358024,0)"
                    xlink:href="#V" />
                <use transform="matrix(0.11172839506172826,0,0,0.11172839506172826,78.09814814814806,0)"
                    xlink:href="#W" />
                <use transform="matrix(0.11172839506172826,0,0,0.11172839506172826,100.44382716049371,0)"
                    xlink:href="#X" />
                <use transform="matrix(0.11172839506172826,0,0,0.11172839506172826,109.27037037037024,0)"
                    xlink:href="#at" />
                <use transform="matrix(0.11172839506172826,0,0,0.11172839506172826,135.30308641975293,0)"
                    xlink:href="#an" />
                <use transform="matrix(0.11172839506172826,0,0,0.11172839506172826,144.12962962962945,0)"
                    xlink:href="#W" />
                <use transform="matrix(0.11172839506172826,0,0,0.11172839506172826,166.4753086419751,0)"
                    xlink:href="#ae" />
                <use transform="matrix(0.11172839506172826,0,0,0.11172839506172826,195.4129629629627,0)"
                    xlink:href="#T" />
                <use transform="matrix(0.11172839506172826,0,0,0.11172839506172826,228.81975308641944,0)"
                    xlink:href="#U" />
                <use transform="matrix(0.11172839506172826,0,0,0.11172839506172826,251.16543209876508,0)"
                    xlink:href="#V" />
                <use transform="matrix(0.11172839506172826,0,0,0.11172839506172826,273.5111111111107,0)"
                    xlink:href="#W" />
                <use transform="matrix(0.11172839506172826,0,0,0.11172839506172826,295.8567901234564,0)"
                    xlink:href="#X" />
            </g>
            <path fill="#03dac6" d="M212-179c-10-28-35-45-73-45-59 0-87 40-87 99 0 60 29 101 89 101 43 0 62-24 78-52l27 14C228-24 195 4 139 4 59 4 22-46 18-125c-6-104 99-153 187-111 19 9 31 26 39 46"
                id="au" />
            <path fill="#03dac6" d="M160-131c35 5 61 23 61 61C221 17 115-2 30 0v-248c76 3 177-17 177 60 0 33-19 50-47 57zm-97-11c50-1 110 9 110-42 0-47-63-36-110-37v79zm0 115c55-2 124 14 124-45 0-56-70-42-124-44v89"
                id="av" />
            <path fill="#03dac6" d="M63-220v92h138v28H63V0H30v-248h175v28H63" id="aw" />
            <path fill="#03dac6" d="M137 0h-34L2-248h35l83 218 83-218h36" id="ax" />
            <path fill="#03dac6" d="M240 0l2-218c-23 76-54 145-80 218h-23L58-218 59 0H30v-248h44l77 211c21-75 51-140 76-211h43V0h-30"
                id="ay" />
            <g id="j">
                <use transform="matrix(0.11172839506172831,0,0,0.11172839506172831,0,0)"
                    xlink:href="#au" />
                <use transform="matrix(0.11172839506172831,0,0,0.11172839506172831,28.937654320987633,0)"
                    xlink:href="#av" />
                <use transform="matrix(0.11172839506172831,0,0,0.11172839506172831,55.75246913580243,0)"
                    xlink:href="#aw" />
                <use transform="matrix(0.11172839506172831,0,0,0.11172839506172831,80.22098765432094,0)"
                    xlink:href="#ax" />
                <use transform="matrix(0.11172839506172831,0,0,0.11172839506172831,107.03580246913573,0)"
                    xlink:href="#ay" />
            </g>
            <g id="k">
                <use transform="matrix(0.09938271604938267,0,0,0.09938271604938267,0,0)"
                    xlink:href="#T" />
                <use transform="matrix(0.09938271604938267,0,0,0.09938271604938267,29.71543209876542,0)"
                    xlink:href="#U" />
                <use transform="matrix(0.09938271604938267,0,0,0.09938271604938267,49.59197530864195,0)"
                    xlink:href="#V" />
                <use transform="matrix(0.09938271604938267,0,0,0.09938271604938267,69.46851851851848,0)"
                    xlink:href="#W" />
                <use transform="matrix(0.09938271604938267,0,0,0.09938271604938267,89.34506172839501,0)"
                    xlink:href="#X" />
            </g>
            <path fill="#fff" d="M140-251c81 0 123 46 123 126C263-46 219 4 140 4 59 4 17-45 17-125s42-126 123-126zm0 227c63 0 89-41 89-101s-29-99-89-99c-61 0-89 39-89 99S79-25 140-24"
                id="az" />
            <path fill="#fff" d="M115-194c53 0 69 39 70 98 0 66-23 100-70 100C84 3 66-7 56-30L54 0H23l1-261h32v101c10-23 28-34 59-34zm-8 174c40 0 45-34 45-75 0-40-5-75-45-74-42 0-51 32-51 76 0 43 10 73 51 73"
                id="aA" />
            <path fill="#fff" d="M24-231v-30h32v30H24zM-9 49c24 4 33-6 33-30v-209h32V24c2 40-23 58-65 49V49"
                id="aB" />
            <g id="l">
                <use transform="matrix(0.09938271604938267,0,0,0.09938271604938267,0,0)"
                    xlink:href="#az" />
                <use transform="matrix(0.09938271604938267,0,0,0.09938271604938267,27.827160493827147,0)"
                    xlink:href="#aA" />
                <use transform="matrix(0.09938271604938267,0,0,0.09938271604938267,47.70370370370368,0)"
                    xlink:href="#aB" />
                <use transform="matrix(0.09938271604938267,0,0,0.09938271604938267,55.55493827160492,0)"
                    xlink:href="#W" />
                <use transform="matrix(0.09938271604938267,0,0,0.09938271604938267,75.43148148148144,0)"
                    xlink:href="#Z" />
                <use transform="matrix(0.09938271604938267,0,0,0.09938271604938267,93.32037037037033,0)"
                    xlink:href="#ad" />
            </g>
            <path fill="#fff" d="M212-179c-10-28-35-45-73-45-59 0-87 40-87 99 0 60 29 101 89 101 43 0 62-24 78-52l27 14C228-24 195 4 139 4 59 4 22-46 18-125c-6-104 99-153 187-111 19 9 31 26 39 46"
                id="aC" />
            <path fill="#fff" d="M106-169C34-169 62-67 57 0H25v-261h32l-1 103c12-21 28-36 61-36 89 0 53 116 60 194h-32v-121c2-32-8-49-39-48"
                id="aD" />
            <g id="m">
                <use transform="matrix(0.06234567901234567,0,0,0.06234567901234567,0,0)"
                    xlink:href="#aC" />
                <use transform="matrix(0.06234567901234567,0,0,0.06234567901234567,16.147530864197527,0)"
                    xlink:href="#aD" />
                <use transform="matrix(0.06234567901234567,0,0,0.06234567901234567,28.61666666666666,0)"
                    xlink:href="#aa" />
                <use transform="matrix(0.06234567901234567,0,0,0.06234567901234567,41.08580246913579,0)"
                    xlink:href="#aq" />
                <use transform="matrix(0.06234567901234567,0,0,0.06234567901234567,53.554938271604925,0)"
                    xlink:href="#as" />
                <use transform="matrix(0.06234567901234567,0,0,0.06234567901234567,66.02407407407406,0)"
                    xlink:href="#W" />
                <use transform="matrix(0.06234567901234567,0,0,0.06234567901234567,78.4932098765432,0)"
                    xlink:href="#ai" />
                <use transform="matrix(0.06234567901234567,0,0,0.06234567901234567,93.45617283950617,0)"
                    xlink:href="#ad" />
                <use transform="matrix(0.06234567901234567,0,0,0.06234567901234567,99.69074074074074,0)"
                    xlink:href="#aa" />
                <use transform="matrix(0.06234567901234567,0,0,0.06234567901234567,112.15987654320986,0)"
                    xlink:href="#ad" />
                <use transform="matrix(0.06234567901234567,0,0,0.06234567901234567,118.39444444444443,0)"
                    xlink:href="#W" />
            </g>
            <g id="n">
                <use transform="matrix(0.0685185185185185,0,0,0.0685185185185185,0,0)"
                    xlink:href="#aC" />
                <use transform="matrix(0.0685185185185185,0,0,0.0685185185185185,17.746296296296293,0)"
                    xlink:href="#aD" />
                <use transform="matrix(0.0685185185185185,0,0,0.0685185185185185,31.449999999999996,0)"
                    xlink:href="#W" />
                <use transform="matrix(0.0685185185185185,0,0,0.0685185185185185,45.1537037037037,0)"
                    xlink:href="#Z" />
                <use transform="matrix(0.0685185185185185,0,0,0.0685185185185185,57.48703703703703,0)"
                    xlink:href="#ag" />
            </g>
            <g id="o">
                <use transform="matrix(0.0685185185185185,0,0,0.0685185185185185,0,0)"
                    xlink:href="#aC" />
                <use transform="matrix(0.0685185185185185,0,0,0.0685185185185185,17.746296296296293,0)"
                    xlink:href="#U" />
                <use transform="matrix(0.0685185185185185,0,0,0.0685185185185185,31.449999999999996,0)"
                    xlink:href="#af" />
                <use transform="matrix(0.0685185185185185,0,0,0.0685185185185185,39.6037037037037,0)"
                    xlink:href="#af" />
                <use transform="matrix(0.0685185185185185,0,0,0.0685185185185185,47.7574074074074,0)"
                    xlink:href="#W" />
                <use transform="matrix(0.0685185185185185,0,0,0.0685185185185185,61.4611111111111,0)"
                    xlink:href="#Z" />
                <use transform="matrix(0.0685185185185185,0,0,0.0685185185185185,73.79444444444444,0)"
                    xlink:href="#ad" />
            </g>
            <g id="p">
                <use transform="matrix(0.0685185185185185,0,0,0.0685185185185185,0,0)"
                    xlink:href="#ah" />
                <use transform="matrix(0.0685185185185185,0,0,0.0685185185185185,17.746296296296293,0)"
                    xlink:href="#aa" />
                <use transform="matrix(0.0685185185185185,0,0,0.0685185185185185,31.449999999999996,0)"
                    xlink:href="#ad" />
                <use transform="matrix(0.0685185185185185,0,0,0.0685185185185185,38.30185185185184,0)"
                    xlink:href="#aa" />
            </g>
            <g id="q">
                <use transform="matrix(0.0685185185185185,0,0,0.0685185185185185,0,0)"
                    xlink:href="#aa" />
                <use transform="matrix(0.0685185185185185,0,0,0.0685185185185185,13.7037037037037,0)"
                    xlink:href="#aq" />
                <use transform="matrix(0.0685185185185185,0,0,0.0685185185185185,27.4074074074074,0)"
                    xlink:href="#V" />
            </g>
            <g id="r">
                <use transform="matrix(0.0685185185185185,0,0,0.0685185185185185,0,0)"
                    xlink:href="#Z" />
                <use transform="matrix(0.0685185185185185,0,0,0.0685185185185185,12.33333333333333,0)"
                    xlink:href="#aD" />
                <use transform="matrix(0.0685185185185185,0,0,0.0685185185185185,26.03703703703703,0)"
                    xlink:href="#aa" />
                <use transform="matrix(0.0685185185185185,0,0,0.0685185185185185,39.74074074074073,0)"
                    xlink:href="#aq" />
                <use transform="matrix(0.0685185185185185,0,0,0.0685185185185185,53.444444444444436,0)"
                    xlink:href="#as" />
                <use transform="matrix(0.0685185185185185,0,0,0.0685185185185185,67.14814814814814,0)"
                    xlink:href="#W" />
            </g>
            <path fill="#fff" d="M160-131c35 5 61 23 61 61C221 17 115-2 30 0v-248c76 3 177-17 177 60 0 33-19 50-47 57zm-97-11c50-1 110 9 110-42 0-47-63-36-110-37v79zm0 115c55-2 124 14 124-45 0-56-70-42-124-44v89"
                id="aE" />
            <g id="s">
                <use transform="matrix(0.0685185185185185,0,0,0.0685185185185185,0,0)"
                    xlink:href="#aE" />
                <use transform="matrix(0.0685185185185185,0,0,0.0685185185185185,16.444444444444443,0)"
                    xlink:href="#W" />
                <use transform="matrix(0.0685185185185185,0,0,0.0685185185185185,30.148148148148145,0)"
                    xlink:href="#ar" />
                <use transform="matrix(0.0685185185185185,0,0,0.0685185185185185,36.99999999999999,0)"
                    xlink:href="#U" />
                <use transform="matrix(0.0685185185185185,0,0,0.0685185185185185,50.703703703703695,0)"
                    xlink:href="#af" />
                <use transform="matrix(0.0685185185185185,0,0,0.0685185185185185,58.8574074074074,0)"
                    xlink:href="#W" />
            </g>
            <path fill="#fff" d="M63-220v92h138v28H63V0H30v-248h175v28H63" id="aF" />
            <g id="t">
                <use transform="matrix(0.0685185185185185,0,0,0.0685185185185185,0,0)"
                    xlink:href="#aF" />
                <use transform="matrix(0.0685185185185185,0,0,0.0685185185185185,15.005555555555553,0)"
                    xlink:href="#at" />
                <use transform="matrix(0.0685185185185185,0,0,0.0685185185185185,31.449999999999996,0)"
                    xlink:href="#T" />
            </g>
            <g id="u">
                <use transform="matrix(0.09938271604938267,0,0,0.09938271604938267,0,0)"
                    xlink:href="#aF" />
                <use transform="matrix(0.09938271604938267,0,0,0.09938271604938267,21.764814814814805,0)"
                    xlink:href="#at" />
                <use transform="matrix(0.09938271604938267,0,0,0.09938271604938267,45.616666666666646,0)"
                    xlink:href="#T" />
            </g>
            <path fill="#fff" d="M232-93c-1 65-40 97-104 97C67 4 28-28 28-90v-158h33c8 89-33 224 67 224 102 0 64-133 71-224h33v155"
                id="aG" />
            <path fill="#fff" d="M205 0l-28-72H64L36 0H1l101-248h38L239 0h-34zm-38-99l-47-123c-12 45-31 82-46 123h93"
                id="aH" />
            <path fill="#fff" d="M127-220V0H93v-220H8v-28h204v28h-85" id="aI" />
            <path fill="#fff" d="M210-169c-67 3-38 105-44 169h-31v-121c0-29-5-50-35-48C34-165 62-65 56 0H25l-1-190h30c1 10-1 24 2 32 10-44 99-50 107 0 11-21 27-35 58-36 85-2 47 119 55 194h-31v-121c0-29-5-49-35-48"
                id="aJ" />
            <g id="v">
                <use transform="matrix(0.08086419753086417,0,0,0.08086419753086417,0,0)"
                    xlink:href="#T" />
                <use transform="matrix(0.08086419753086417,0,0,0.08086419753086417,24.178395061728388,0)"
                    xlink:href="#U" />
                <use transform="matrix(0.08086419753086417,0,0,0.08086419753086417,40.35123456790122,0)"
                    xlink:href="#V" />
                <use transform="matrix(0.08086419753086417,0,0,0.08086419753086417,56.52407407407406,0)"
                    xlink:href="#W" />
                <use transform="matrix(0.08086419753086417,0,0,0.08086419753086417,72.6969135802469,0)"
                    xlink:href="#X" />
                <use transform="matrix(0.08086419753086417,0,0,0.08086419753086417,79.08518518518517,0)"
                    xlink:href="#at" />
                <use transform="matrix(0.08086419753086417,0,0,0.08086419753086417,97.92654320987653,0)"
                    xlink:href="#an" />
                <use transform="matrix(0.08086419753086417,0,0,0.08086419753086417,104.3148148148148,0)"
                    xlink:href="#W" />
                <use transform="matrix(0.08086419753086417,0,0,0.08086419753086417,120.48765432098763,0)"
                    xlink:href="#ae" />
                <use transform="matrix(0.08086419753086417,0,0,0.08086419753086417,141.43148148148146,0)"
                    xlink:href="#T" />
                <use transform="matrix(0.08086419753086417,0,0,0.08086419753086417,165.60987654320985,0)"
                    xlink:href="#U" />
                <use transform="matrix(0.08086419753086417,0,0,0.08086419753086417,181.78271604938269,0)"
                    xlink:href="#V" />
                <use transform="matrix(0.08086419753086417,0,0,0.08086419753086417,197.95555555555552,0)"
                    xlink:href="#W" />
                <use transform="matrix(0.08086419753086417,0,0,0.08086419753086417,214.12839506172836,0)"
                    xlink:href="#X" />
                <use transform="matrix(0.08086419753086417,0,0,0.08086419753086417,220.51666666666662,0)"
                    xlink:href="#aG" />
                <use transform="matrix(0.08086419753086417,0,0,0.08086419753086417,241.46049382716046,0)"
                    xlink:href="#am" />
                <use transform="matrix(0.08086419753086417,0,0,0.08086419753086417,256.016049382716,0)"
                    xlink:href="#an" />
                <use transform="matrix(0.08086419753086417,0,0,0.08086419753086417,262.4043209876543,0)"
                    xlink:href="#aq" />
                <use transform="matrix(0.08086419753086417,0,0,0.08086419753086417,278.57716049382714,0)"
                    xlink:href="#as" />
                <use transform="matrix(0.08086419753086417,0,0,0.08086419753086417,294.75,0)"
                    xlink:href="#aH" />
                <use transform="matrix(0.08086419753086417,0,0,0.08086419753086417,314.1574074074074,0)"
                    xlink:href="#aA" />
                <use transform="matrix(0.08086419753086417,0,0,0.08086419753086417,330.33024691358025,0)"
                    xlink:href="#am" />
                <use transform="matrix(0.08086419753086417,0,0,0.08086419753086417,344.88580246913574,0)"
                    xlink:href="#ad" />
                <use transform="matrix(0.08086419753086417,0,0,0.08086419753086417,352.97222222222223,0)"
                    xlink:href="#af" />
                <use transform="matrix(0.08086419753086417,0,0,0.08086419753086417,362.5950617283951,0)"
                    xlink:href="#aa" />
                <use transform="matrix(0.08086419753086417,0,0,0.08086419753086417,378.76790123456794,0)"
                    xlink:href="#Z" />
                <use transform="matrix(0.08086419753086417,0,0,0.08086419753086417,393.3234567901235,0)"
                    xlink:href="#ad" />
                <use transform="matrix(0.08086419753086417,0,0,0.08086419753086417,401.4098765432099,0)"
                    xlink:href="#T" />
                <use transform="matrix(0.08086419753086417,0,0,0.08086419753086417,425.58827160493826,0)"
                    xlink:href="#W" />
                <use transform="matrix(0.08086419753086417,0,0,0.08086419753086417,441.7611111111112,0)"
                    xlink:href="#ad" />
                <use transform="matrix(0.08086419753086417,0,0,0.08086419753086417,449.8475308641976,0)"
                    xlink:href="#aD" />
                <use transform="matrix(0.08086419753086417,0,0,0.08086419753086417,466.0203703703704,0)"
                    xlink:href="#U" />
                <use transform="matrix(0.08086419753086417,0,0,0.08086419753086417,482.1932098765433,0)"
                    xlink:href="#V" />
                <use transform="matrix(0.08086419753086417,0,0,0.08086419753086417,498.3660493827161,0)"
                    xlink:href="#am" />
                <use transform="matrix(0.08086419753086417,0,0,0.08086419753086417,512.9216049382717,0)"
                    xlink:href="#aC" />
                <use transform="matrix(0.08086419753086417,0,0,0.08086419753086417,533.8654320987655,0)"
                    xlink:href="#W" />
                <use transform="matrix(0.08086419753086417,0,0,0.08086419753086417,550.0382716049384,0)"
                    xlink:href="#af" />
                <use transform="matrix(0.08086419753086417,0,0,0.08086419753086417,559.6611111111112,0)"
                    xlink:href="#ad" />
                <use transform="matrix(0.08086419753086417,0,0,0.08086419753086417,567.7475308641975,0)"
                    xlink:href="#aa" />
                <use transform="matrix(0.08086419753086417,0,0,0.08086419753086417,583.9203703703704,0)"
                    xlink:href="#an" />
                <use transform="matrix(0.08086419753086417,0,0,0.08086419753086417,590.3086419753087,0)"
                    xlink:href="#aq" />
                <use transform="matrix(0.08086419753086417,0,0,0.08086419753086417,606.4814814814815,0)"
                    xlink:href="#aI" />
                <use transform="matrix(0.08086419753086417,0,0,0.08086419753086417,622.5734567901235,0)"
                    xlink:href="#ao" />
                <use transform="matrix(0.08086419753086417,0,0,0.08086419753086417,637.129012345679,0)"
                    xlink:href="#al" />
                <use transform="matrix(0.08086419753086417,0,0,0.08086419753086417,653.3018518518519,0)"
                    xlink:href="#W" />
                <use transform="matrix(0.08086419753086417,0,0,0.08086419753086417,669.4746913580248,0)"
                    xlink:href="#am" />
                <use transform="matrix(0.08086419753086417,0,0,0.08086419753086417,684.0302469135803,0)"
                    xlink:href="#ac" />
                <use transform="matrix(0.08086419753086417,0,0,0.08086419753086417,704.9740740740741,0)"
                    xlink:href="#aa" />
                <use transform="matrix(0.08086419753086417,0,0,0.08086419753086417,721.146913580247,0)"
                    xlink:href="#aJ" />
                <use transform="matrix(0.08086419753086417,0,0,0.08086419753086417,745.3253086419753,0)"
                    xlink:href="#W" />
                <use transform="matrix(0.08086419753086417,0,0,0.08086419753086417,761.4981481481482,0)"
                    xlink:href="#X" />
                <use transform="matrix(0.08086419753086417,0,0,0.08086419753086417,767.8864197530864,0)"
                    xlink:href="#ao" />
                <use transform="matrix(0.08086419753086417,0,0,0.08086419753086417,782.441975308642,0)"
                    xlink:href="#T" />
                <use transform="matrix(0.08086419753086417,0,0,0.08086419753086417,806.6203703703702,0)"
                    xlink:href="#W" />
                <use transform="matrix(0.08086419753086417,0,0,0.08086419753086417,822.7932098765432,0)"
                    xlink:href="#ad" />
                <use transform="matrix(0.08086419753086417,0,0,0.08086419753086417,830.8796296296294,0)"
                    xlink:href="#aD" />
                <use transform="matrix(0.08086419753086417,0,0,0.08086419753086417,847.0524691358025,0)"
                    xlink:href="#U" />
                <use transform="matrix(0.08086419753086417,0,0,0.08086419753086417,863.2253086419753,0)"
                    xlink:href="#V" />
                <use transform="matrix(0.08086419753086417,0,0,0.08086419753086417,879.3981481481482,0)"
                    xlink:href="#am" />
                <use transform="matrix(0.08086419753086417,0,0,0.08086419753086417,893.9537037037037,0)"
                    xlink:href="#ac" />
                <use transform="matrix(0.08086419753086417,0,0,0.08086419753086417,914.8975308641975,0)"
                    xlink:href="#aa" />
                <use transform="matrix(0.08086419753086417,0,0,0.08086419753086417,931.0703703703704,0)"
                    xlink:href="#aJ" />
                <use transform="matrix(0.08086419753086417,0,0,0.08086419753086417,955.2487654320987,0)"
                    xlink:href="#W" />
                <use transform="matrix(0.08086419753086417,0,0,0.08086419753086417,971.4216049382716,0)"
                    xlink:href="#V" />
            </g>
            <g id="w">
                <use transform="matrix(0.08086419753086417,0,0,0.08086419753086417,0,0)"
                    xlink:href="#Y" />
                <use transform="matrix(0.08086419753086417,0,0,0.08086419753086417,16.172839506172835,0)"
                    xlink:href="#an" />
                <use transform="matrix(0.08086419753086417,0,0,0.08086419753086417,22.561111111111103,0)"
                    xlink:href="#am" />
                <use transform="matrix(0.08086419753086417,0,0,0.08086419753086417,37.11666666666665,0)"
                    xlink:href="#ad" />
                <use transform="matrix(0.08086419753086417,0,0,0.08086419753086417,45.20308641975307,0)"
                    xlink:href="#az" />
                <use transform="matrix(0.08086419753086417,0,0,0.08086419753086417,67.84506172839504,0)"
                    xlink:href="#ar" />
                <use transform="matrix(0.08086419753086417,0,0,0.08086419753086417,75.93148148148146,0)"
                    xlink:href="#at" />
                <use transform="matrix(0.08086419753086417,0,0,0.08086419753086417,94.77283950617282,0)"
                    xlink:href="#an" />
                <use transform="matrix(0.08086419753086417,0,0,0.08086419753086417,101.16111111111108,0)"
                    xlink:href="#W" />
                <use transform="matrix(0.08086419753086417,0,0,0.08086419753086417,117.33395061728392,0)"
                    xlink:href="#ae" />
                <use transform="matrix(0.08086419753086417,0,0,0.08086419753086417,138.27777777777774,0)"
                    xlink:href="#T" />
                <use transform="matrix(0.08086419753086417,0,0,0.08086419753086417,162.45617283950614,0)"
                    xlink:href="#U" />
                <use transform="matrix(0.08086419753086417,0,0,0.08086419753086417,178.629012345679,0)"
                    xlink:href="#V" />
                <use transform="matrix(0.08086419753086417,0,0,0.08086419753086417,194.80185185185184,0)"
                    xlink:href="#W" />
                <use transform="matrix(0.08086419753086417,0,0,0.08086419753086417,210.97469135802467,0)"
                    xlink:href="#X" />
                <use transform="matrix(0.08086419753086417,0,0,0.08086419753086417,217.36296296296294,0)"
                    xlink:href="#am" />
                <use transform="matrix(0.08086419753086417,0,0,0.08086419753086417,231.91851851851845,0)"
                    xlink:href="#aF" />
                <use transform="matrix(0.08086419753086417,0,0,0.08086419753086417,249.6277777777777,0)"
                    xlink:href="#U" />
                <use transform="matrix(0.08086419753086417,0,0,0.08086419753086417,265.80061728395054,0)"
                    xlink:href="#af" />
                <use transform="matrix(0.08086419753086417,0,0,0.08086419753086417,275.4234567901234,0)"
                    xlink:href="#ac" />
                <use transform="matrix(0.08086419753086417,0,0,0.08086419753086417,296.3672839506172,0)"
                    xlink:href="#aa" />
                <use transform="matrix(0.08086419753086417,0,0,0.08086419753086417,312.54012345679007,0)"
                    xlink:href="#aJ" />
                <use transform="matrix(0.08086419753086417,0,0,0.08086419753086417,336.71851851851847,0)"
                    xlink:href="#W" />
                <use transform="matrix(0.08086419753086417,0,0,0.08086419753086417,352.8913580246912,0)"
                    xlink:href="#V" />
                <use transform="matrix(0.08086419753086417,0,0,0.08086419753086417,369.06419753086413,0)"
                    xlink:href="#at" />
                <use transform="matrix(0.08086419753086417,0,0,0.08086419753086417,387.90555555555545,0)"
                    xlink:href="#an" />
                <use transform="matrix(0.08086419753086417,0,0,0.08086419753086417,394.2938271604937,0)"
                    xlink:href="#W" />
                <use transform="matrix(0.08086419753086417,0,0,0.08086419753086417,410.4666666666666,0)"
                    xlink:href="#ae" />
            </g>
            <g id="x">
                <use transform="matrix(0.09938271604938263,0,0,0.09938271604938263,0,0)"
                    xlink:href="#ac" />
                <use transform="matrix(0.09938271604938263,0,0,0.09938271604938263,25.7401234567901,0)"
                    xlink:href="#aa" />
                <use transform="matrix(0.09938271604938263,0,0,0.09938271604938263,45.61666666666663,0)"
                    xlink:href="#aJ" />
                <use transform="matrix(0.09938271604938263,0,0,0.09938271604938263,75.33209876543204,0)"
                    xlink:href="#W" />
                <use transform="matrix(0.09938271604938263,0,0,0.09938271604938263,95.20864197530857,0)"
                    xlink:href="#V" />
                <use transform="matrix(0.09938271604938263,0,0,0.09938271604938263,115.08518518518508,0)"
                    xlink:href="#at" />
                <use transform="matrix(0.09938271604938263,0,0,0.09938271604938263,138.24135802469124,0)"
                    xlink:href="#an" />
                <use transform="matrix(0.09938271604938263,0,0,0.09938271604938263,146.09259259259247,0)"
                    xlink:href="#W" />
                <use transform="matrix(0.09938271604938263,0,0,0.09938271604938263,165.969135802469,0)"
                    xlink:href="#ae" />
            </g>
            <g id="y">
                <use transform="matrix(0.0685185185185185,0,0,0.0685185185185185,0,0)"
                    xlink:href="#az" />
                <use transform="matrix(0.0685185185185185,0,0,0.0685185185185185,19.185185185185183,0)"
                    xlink:href="#ad" />
                <use transform="matrix(0.0685185185185185,0,0,0.0685185185185185,26.037037037037038,0)"
                    xlink:href="#aD" />
                <use transform="matrix(0.0685185185185185,0,0,0.0685185185185185,39.74074074074073,0)"
                    xlink:href="#W" />
                <use transform="matrix(0.0685185185185185,0,0,0.0685185185185185,53.444444444444436,0)"
                    xlink:href="#af" />
            </g>
            <g id="z">
                <use transform="matrix(0.0685185185185185,0,0,0.0685185185185185,0,0)"
                    xlink:href="#T" />
                <use transform="matrix(0.0685185185185185,0,0,0.0685185185185185,20.487037037037034,0)"
                    xlink:href="#W" />
                <use transform="matrix(0.0685185185185185,0,0,0.0685185185185185,34.190740740740736,0)"
                    xlink:href="#ad" />
                <use transform="matrix(0.0685185185185185,0,0,0.0685185185185185,41.042592592592584,0)"
                    xlink:href="#aD" />
                <use transform="matrix(0.0685185185185185,0,0,0.0685185185185185,54.746296296296286,0)"
                    xlink:href="#U" />
                <use transform="matrix(0.0685185185185185,0,0,0.0685185185185185,68.44999999999999,0)"
                    xlink:href="#V" />
                <use transform="matrix(0.0685185185185185,0,0,0.0685185185185185,82.15370370370368,0)"
                    xlink:href="#am" />
            </g>
            <g id="A">
                <use transform="matrix(0.056172839506172814,0,0,0.056172839506172814,0,0)"
                    xlink:href="#aH" />
                <use transform="matrix(0.056172839506172814,0,0,0.056172839506172814,13.481481481481476,0)"
                    xlink:href="#aA" />
                <use transform="matrix(0.056172839506172814,0,0,0.056172839506172814,24.716049382716037,0)"
                    xlink:href="#am" />
                <use transform="matrix(0.056172839506172814,0,0,0.056172839506172814,34.827160493827144,0)"
                    xlink:href="#ad" />
                <use transform="matrix(0.056172839506172814,0,0,0.056172839506172814,40.44444444444443,0)"
                    xlink:href="#af" />
                <use transform="matrix(0.056172839506172814,0,0,0.056172839506172814,47.129012345678994,0)"
                    xlink:href="#aa" />
                <use transform="matrix(0.056172839506172814,0,0,0.056172839506172814,58.36358024691356,0)"
                    xlink:href="#Z" />
                <use transform="matrix(0.056172839506172814,0,0,0.056172839506172814,68.47469135802467,0)"
                    xlink:href="#ad" />
            </g>
            <g id="B">
                <use transform="matrix(0.056172839506172814,0,0,0.056172839506172814,0,0)"
                    xlink:href="#T" />
                <use transform="matrix(0.056172839506172814,0,0,0.056172839506172814,16.795679012345673,0)"
                    xlink:href="#W" />
                <use transform="matrix(0.056172839506172814,0,0,0.056172839506172814,28.030246913580235,0)"
                    xlink:href="#ad" />
                <use transform="matrix(0.056172839506172814,0,0,0.056172839506172814,33.64753086419752,0)"
                    xlink:href="#aD" />
                <use transform="matrix(0.056172839506172814,0,0,0.056172839506172814,44.88209876543208,0)"
                    xlink:href="#U" />
                <use transform="matrix(0.056172839506172814,0,0,0.056172839506172814,56.116666666666646,0)"
                    xlink:href="#V" />
                <use transform="matrix(0.043827160493827164,0,0,0.043827160493827164,67.3512345679012,0)"
                    xlink:href="#am" />
            </g>
            <g id="C">
                <use transform="matrix(0.09320987654320984,0,0,0.09320987654320984,0,0)"
                    xlink:href="#ai" />
                <use transform="matrix(0.09320987654320984,0,0,0.09320987654320984,22.37037037037036,0)"
                    xlink:href="#ad" />
                <use transform="matrix(0.09320987654320984,0,0,0.09320987654320984,31.691358024691343,0)"
                    xlink:href="#aa" />
                <use transform="matrix(0.09320987654320984,0,0,0.09320987654320984,50.333333333333314,0)"
                    xlink:href="#ad" />
                <use transform="matrix(0.09320987654320984,0,0,0.09320987654320984,59.6543209876543,0)"
                    xlink:href="#an" />
                <use transform="matrix(0.09320987654320984,0,0,0.09320987654320984,67.01790123456787,0)"
                    xlink:href="#Z" />
            </g>
            <g id="D">
                <use transform="matrix(0.09320987654320984,0,0,0.09320987654320984,0,0)"
                    xlink:href="#T" />
                <use transform="matrix(0.09320987654320984,0,0,0.09320987654320984,27.869753086419742,0)"
                    xlink:href="#W" />
                <use transform="matrix(0.09320987654320984,0,0,0.09320987654320984,46.51172839506171,0)"
                    xlink:href="#ad" />
                <use transform="matrix(0.09320987654320984,0,0,0.09320987654320984,55.83271604938269,0)"
                    xlink:href="#aD" />
                <use transform="matrix(0.09320987654320984,0,0,0.09320987654320984,74.47469135802467,0)"
                    xlink:href="#U" />
                <use transform="matrix(0.09320987654320984,0,0,0.09320987654320984,93.11666666666665,0)"
                    xlink:href="#V" />
                <use transform="matrix(0.09320987654320984,0,0,0.09320987654320984,111.75864197530862,0)"
                    xlink:href="#am" />
            </g>
            <g id="E">
                <use transform="matrix(0.09320987654320984,0,0,0.09320987654320984,0,0)"
                    xlink:href="#aF" />
                <use transform="matrix(0.09320987654320984,0,0,0.09320987654320984,20.412962962962954,0)"
                    xlink:href="#at" />
                <use transform="matrix(0.09320987654320984,0,0,0.09320987654320984,42.78333333333332,0)"
                    xlink:href="#T" />
            </g>
            <g id="F">
                <use transform="matrix(0.07469135802469135,0,0,0.07469135802469135,0,0)"
                    xlink:href="#aG" />
                <use transform="matrix(0.07469135802469135,0,0,0.07469135802469135,19.34506172839506,0)"
                    xlink:href="#am" />
                <use transform="matrix(0.07469135802469135,0,0,0.07469135802469135,32.7895061728395,0)"
                    xlink:href="#W" />
            </g>
            <path fill="#fff" d="M9 0v-24l116-142H16v-24h144v24L44-24h123V0H9" id="aK" />
            <g id="G">
                <use transform="matrix(0.07469135802469135,0,0,0.07469135802469135,0,0)"
                    xlink:href="#ak" />
                <use transform="matrix(0.07469135802469135,0,0,0.07469135802469135,19.34506172839506,0)"
                    xlink:href="#W" />
                <use transform="matrix(0.07469135802469135,0,0,0.07469135802469135,34.28333333333333,0)"
                    xlink:href="#aa" />
                <use transform="matrix(0.07469135802469135,0,0,0.07469135802469135,49.2216049382716,0)"
                    xlink:href="#X" />
                <use transform="matrix(0.07469135802469135,0,0,0.07469135802469135,55.12222222222221,0)"
                    xlink:href="#an" />
                <use transform="matrix(0.07469135802469135,0,0,0.07469135802469135,61.02283950617283,0)"
                    xlink:href="#aK" />
                <use transform="matrix(0.07469135802469135,0,0,0.07469135802469135,74.46728395061727,0)"
                    xlink:href="#W" />
                <use transform="matrix(0.07469135802469135,0,0,0.07469135802469135,89.40555555555554,0)"
                    xlink:href="#V" />
            </g>
            <g id="H">
                <use transform="matrix(0.07469135802469135,0,0,0.07469135802469135,0,0)"
                    xlink:href="#ap" />
                <use transform="matrix(0.07469135802469135,0,0,0.07469135802469135,7.469135802469134,0)"
                    xlink:href="#aq" />
                <use transform="matrix(0.07469135802469135,0,0,0.07469135802469135,22.407407407407405,0)"
                    xlink:href="#ad" />
                <use transform="matrix(0.07469135802469135,0,0,0.07469135802469135,29.876543209876537,0)"
                    xlink:href="#W" />
                <use transform="matrix(0.07469135802469135,0,0,0.07469135802469135,44.81481481481481,0)"
                    xlink:href="#af" />
                <use transform="matrix(0.07469135802469135,0,0,0.07469135802469135,53.70308641975308,0)"
                    xlink:href="#ar" />
                <use transform="matrix(0.07469135802469135,0,0,0.07469135802469135,61.17222222222221,0)"
                    xlink:href="#aa" />
                <use transform="matrix(0.07469135802469135,0,0,0.07469135802469135,76.11049382716048,0)"
                    xlink:href="#Z" />
                <use transform="matrix(0.07469135802469135,0,0,0.07469135802469135,89.55493827160493,0)"
                    xlink:href="#W" />
            </g>
            <g id="I">
                <use transform="matrix(0.07469135802469135,0,0,0.07469135802469135,0,0)"
                    xlink:href="#aF" />
                <use transform="matrix(0.07469135802469135,0,0,0.07469135802469135,16.357407407407404,0)"
                    xlink:href="#at" />
                <use transform="matrix(0.07469135802469135,0,0,0.07469135802469135,34.28333333333333,0)"
                    xlink:href="#T" />
            </g>
            <path fill="#fff" d="M87 75C49 33 22-17 22-94c0-76 28-126 65-167h31c-38 41-64 92-64 168S80 34 118 75H87"
                id="aL" />
            <g id="J">
                <use transform="matrix(0.07469135802469135,0,0,0.07469135802469135,0,0)"
                    xlink:href="#aL" />
                <use transform="matrix(0.07469135802469135,0,0,0.07469135802469135,8.88827160493827,0)"
                    xlink:href="#aH" />
                <use transform="matrix(0.07469135802469135,0,0,0.07469135802469135,26.81419753086419,0)"
                    xlink:href="#aA" />
                <use transform="matrix(0.07469135802469135,0,0,0.07469135802469135,41.75246913580246,0)"
                    xlink:href="#am" />
                <use transform="matrix(0.07469135802469135,0,0,0.07469135802469135,55.19691358024689,0)"
                    xlink:href="#ad" />
                <use transform="matrix(0.07469135802469135,0,0,0.07469135802469135,62.66604938271603,0)"
                    xlink:href="#af" />
                <use transform="matrix(0.07469135802469135,0,0,0.07469135802469135,71.55432098765431,0)"
                    xlink:href="#aa" />
                <use transform="matrix(0.07469135802469135,0,0,0.07469135802469135,86.49259259259257,0)"
                    xlink:href="#Z" />
                <use transform="matrix(0.07469135802469135,0,0,0.07469135802469135,99.93703703703702,0)"
                    xlink:href="#ad" />
            </g>
            <path fill="#fff" d="M33-261c38 41 65 92 65 168S71 34 33 75H2C39 34 66-17 66-93S39-220 2-261h31"
                id="aM" />
            <g id="K">
                <use transform="matrix(0.07469135802469135,0,0,0.07469135802469135,0,0)"
                    xlink:href="#T" />
                <use transform="matrix(0.07469135802469135,0,0,0.07469135802469135,22.33271604938271,0)"
                    xlink:href="#W" />
                <use transform="matrix(0.07469135802469135,0,0,0.07469135802469135,37.270987654320976,0)"
                    xlink:href="#ad" />
                <use transform="matrix(0.07469135802469135,0,0,0.07469135802469135,44.74012345679011,0)"
                    xlink:href="#aD" />
                <use transform="matrix(0.07469135802469135,0,0,0.07469135802469135,59.678395061728374,0)"
                    xlink:href="#U" />
                <use transform="matrix(0.07469135802469135,0,0,0.07469135802469135,74.61666666666665,0)"
                    xlink:href="#V" />
                <use transform="matrix(0.07469135802469135,0,0,0.07469135802469135,89.55493827160491,0)"
                    xlink:href="#am" />
                <use transform="matrix(0.07469135802469135,0,0,0.07469135802469135,102.99938271604935,0)"
                    xlink:href="#aM" />
            </g>
            <g id="L">
                <use transform="matrix(0.0685185185185185,0,0,0.0685185185185185,0,0)"
                    xlink:href="#T" />
                <use transform="matrix(0.0685185185185185,0,0,0.0685185185185185,20.487037037037034,0)"
                    xlink:href="#U" />
                <use transform="matrix(0.0685185185185185,0,0,0.0685185185185185,34.190740740740736,0)"
                    xlink:href="#V" />
                <use transform="matrix(0.0685185185185185,0,0,0.0685185185185185,47.89444444444444,0)"
                    xlink:href="#W" />
                <use transform="matrix(0.0685185185185185,0,0,0.0685185185185185,61.598148148148134,0)"
                    xlink:href="#X" />
            </g>
            <g id="M">
                <use transform="matrix(0.0685185185185185,0,0,0.0685185185185185,0,0)"
                    xlink:href="#ai" />
                <use transform="matrix(0.0685185185185185,0,0,0.0685185185185185,16.444444444444443,0)"
                    xlink:href="#ad" />
                <use transform="matrix(0.0685185185185185,0,0,0.0685185185185185,23.29629629629629,0)"
                    xlink:href="#af" />
                <use transform="matrix(0.0685185185185185,0,0,0.0685185185185185,31.449999999999996,0)"
                    xlink:href="#W" />
                <use transform="matrix(0.0685185185185185,0,0,0.0685185185185185,45.1537037037037,0)"
                    xlink:href="#aa" />
                <use transform="matrix(0.0685185185185185,0,0,0.0685185185185185,58.8574074074074,0)"
                    xlink:href="#aJ" />
            </g>
            <g id="N">
                <use transform="matrix(0.0685185185185185,0,0,0.0685185185185185,0,0)"
                    xlink:href="#az" />
                <use transform="matrix(0.0685185185185185,0,0,0.0685185185185185,19.185185185185183,0)"
                    xlink:href="#ad" />
                <use transform="matrix(0.0685185185185185,0,0,0.0685185185185185,26.037037037037038,0)"
                    xlink:href="#aD" />
                <use transform="matrix(0.0685185185185185,0,0,0.0685185185185185,39.74074074074073,0)"
                    xlink:href="#W" />
                <use transform="matrix(0.0685185185185185,0,0,0.0685185185185185,53.444444444444436,0)"
                    xlink:href="#af" />
            </g>
            <path fill="#03dac6" d="M140-251c81 0 123 46 123 126C263-46 219 4 140 4 59 4 17-45 17-125s42-126 123-126zm0 227c63 0 89-41 89-101s-29-99-89-99c-61 0-89 39-89 99S79-25 140-24"
                id="aN" />
            <path fill="#03dac6" d="M266 0h-40l-56-210L115 0H75L2-248h35L96-30l15-64 43-154h32l59 218 59-218h35"
                id="aO" />
            <path fill="#03dac6" d="M30-248c118-7 216 8 213 122C240-48 200 0 122 0H30v-248zM63-27c89 8 146-16 146-99s-60-101-146-95v194"
                id="aP" />
            <path fill="#03dac6" d="M205 0l-28-72H64L36 0H1l101-248h38L239 0h-34zm-38-99l-47-123c-12 45-31 82-46 123h93"
                id="aQ" />
            <g id="O">
                <use transform="matrix(0.07469135802469135,0,0,0.07469135802469135,0,0)"
                    xlink:href="#aN" />
                <use transform="matrix(0.07469135802469135,0,0,0.07469135802469135,20.913580246913575,0)"
                    xlink:href="#aO" />
                <use transform="matrix(0.07469135802469135,0,0,0.07469135802469135,46.23395061728394,0)"
                    xlink:href="#ay" />
                <use transform="matrix(0.07469135802469135,0,0,0.07469135802469135,68.56666666666665,0)"
                    xlink:href="#aP" />
                <use transform="matrix(0.07469135802469135,0,0,0.07469135802469135,87.91172839506171,0)"
                    xlink:href="#aQ" />
                <use transform="matrix(0.07469135802469135,0,0,0.07469135802469135,105.83765432098764,0)"
                    xlink:href="#aw" />
                <use transform="matrix(0.07469135802469135,0,0,0.07469135802469135,122.19506172839505,0)"
                    xlink:href="#ax" />
                <use transform="matrix(0.07469135802469135,0,0,0.07469135802469135,140.12098765432097,0)"
                    xlink:href="#ay" />
            </g>
            <g id="P">
                <use transform="matrix(0.07469135802469132,0,0,0.07469135802469132,0,0)"
                    xlink:href="#aC" />
                <use transform="matrix(0.07469135802469132,0,0,0.07469135802469132,19.345061728395052,0)"
                    xlink:href="#aD" />
                <use transform="matrix(0.07469135802469132,0,0,0.07469135802469132,34.28333333333332,0)"
                    xlink:href="#aa" />
                <use transform="matrix(0.07469135802469132,0,0,0.07469135802469132,49.221604938271575,0)"
                    xlink:href="#aq" />
                <use transform="matrix(0.07469135802469132,0,0,0.07469135802469132,64.15987654320985,0)"
                    xlink:href="#as" />
                <use transform="matrix(0.07469135802469132,0,0,0.07469135802469132,79.09814814814811,0)"
                    xlink:href="#W" />
            </g>
            <g id="Q">
                <use transform="matrix(0.07469135802469132,0,0,0.07469135802469132,0,0)"
                    xlink:href="#ah" />
                <use transform="matrix(0.07469135802469132,0,0,0.07469135802469132,19.345061728395052,0)"
                    xlink:href="#aa" />
                <use transform="matrix(0.07469135802469132,0,0,0.07469135802469132,34.28333333333332,0)"
                    xlink:href="#ad" />
                <use transform="matrix(0.07469135802469132,0,0,0.07469135802469132,41.75246913580245,0)"
                    xlink:href="#aa" />
            </g>
            <g id="R">
                <use transform="matrix(0.07469135802469132,0,0,0.07469135802469132,0,0)"
                    xlink:href="#aH" />
                <use transform="matrix(0.07469135802469132,0,0,0.07469135802469132,17.925925925925917,0)"
                    xlink:href="#ar" />
                <use transform="matrix(0.07469135802469132,0,0,0.07469135802469132,25.39506172839505,0)"
                    xlink:href="#ad" />
                <use transform="matrix(0.07469135802469132,0,0,0.07469135802469132,32.86419753086418,0)"
                    xlink:href="#W" />
                <use transform="matrix(0.07469135802469132,0,0,0.07469135802469132,47.80246913580244,0)"
                    xlink:href="#af" />
            </g>
            <g id="S">
                <use transform="matrix(0.07469135802469132,0,0,0.07469135802469132,0,0)"
                    xlink:href="#aF" />
                <use transform="matrix(0.07469135802469132,0,0,0.07469135802469132,16.357407407407397,0)"
                    xlink:href="#at" />
                <use transform="matrix(0.07469135802469132,0,0,0.07469135802469132,34.28333333333332,0)"
                    xlink:href="#T" />
            </g>
        </defs>
    </g>
</svg>