<svg xmlns="http://www.w3.org/2000/svg" xmlns:xlink="http://www.w3.org/1999/xlink" xmlns:lucid="lucid" width="1871" height="1323"><g transform="translate(0 0)" lucid:page-tab-id="0_0"><path d="M0 0h1870.87v1322.83H0z" fill="#1f1f1f"/><path d="M1122 142.7a6 6 0 0 1 6-6h528.6a6 6 0 0 1 6 6v183.03a6 6 0 0 1-6 6H1128a6 6 0 0 1-6-6z" stroke="#6f7681" stroke-width="2" fill="#6f7681"/><use xlink:href="#a" transform="matrix(1,0,0,1,1134,148.7132069684702) translate(58.0450617283951 93.1222222222222)"/><path d="M1130.06 526a6 6 0 0 1 6-6h508.07a6 6 0 0 1 6 6v156.13a6 6 0 0 1-6 6h-508.07a6 6 0 0 1-6-6z" stroke="#6f7681" stroke-width="2" fill="#6f7681"/><use xlink:href="#b" transform="matrix(1,0,0,1,1142.0629347487843,532) translate(43.45833333333343 80.24374999999998)"/><path d="M890.5 349.27a.5.5 0 0 1 .5-.5h968a.5.5 0 0 1 .5.5.5.5 0 0 1-.5.5H891a.5.5 0 0 1-.5-.5z" stroke="#e81313" fill="none"/><path d="M1130.06 756a6 6 0 0 1 6-6h508.07a6 6 0 0 1 6 6v156.13a6 6 0 0 1-6 6h-508.07a6 6 0 0 1-6-6z" stroke="#6f7681" stroke-width="2" fill="#6f7681"/><use xlink:href="#c" transform="matrix(1,0,0,1,1142.062934748784,762) translate(-7.658950617283949 79.65555555555555)"/><path d="M1137.37 986a6 6 0 0 1 6-6h500.76a6 6 0 0 1 6 6v139.15a6 6 0 0 1-6 6h-500.76a6 6 0 0 1-6-6z" stroke="#6f7681" stroke-width="2" fill="#6f7681"/><use xlink:href="#d" transform="matrix(1,0,0,1,1149.3675433167627,992) translate(148.64537037037042 72.6222222222222)"/><path d="M882 282a6 6 0 0 1 6-6h228a6 6 0 0 1 6 6v62.27a6 6 0 0 1-6 6H888a6 6 0 0 1-6-6z" stroke="#000" stroke-opacity="0" stroke-width="2" fill="#fff" fill-opacity="0"/><use xlink:href="#e" transform="matrix(1,0,0,1,887.0000000000001,281) translate(31.315432098765626 40.302777777777706)"/><path d="M887.82 346.88a6 6 0 0 1 6-6h216.36a6 6 0 0 1 6 6v117.4a6 6 0 0 1-6 6H893.82a6 6 0 0 1-6-6z" stroke="#000" stroke-opacity="0" stroke-width="2" fill="#fff" fill-opacity="0"/><use xlink:href="#f" transform="matrix(1,0,0,1,892.8181162637126,345.8796386179611) translate(83.8583333333334 43.4277777777777)"/><use xlink:href="#g" transform="matrix(1,0,0,1,892.8181162637126,345.8796386179611) translate(25.81543209876564 91.69444444444426)"/><path d="M1130.06 526a6 6 0 0 1 6-6H1354a6 6 0 0 1 6 6v48a6 6 0 0 1-6 6h-217.94a6 6 0 0 1-6-6z" stroke="#4c535d" stroke-width="2" fill="#6f7681"/><use xlink:href="#h" transform="matrix(1,0,0,1,1142.0629347487843,532) translate(19.49506172839517 21.511111111111084)"/><use xlink:href="#i" transform="matrix(1,0,0,1,1142.0629347487843,532) translate(113.45679012345677 21.511111111111084)"/><path d="M891 10.5a.5.5 0 0 1 .5.5v1128a.5.5 0 0 1-.5.5.5.5 0 0 1-.5-.5V11a.5.5 0 0 1 .5-.5z" stroke="#c3f7c8" fill="none"/><path d="M1859.5 121a.5.5 0 0 1-.5.5H11a.5.5 0 0 1-.5-.5.5.5 0 0 1 .5-.5h1848a.5.5 0 0 1 .5.5z" stroke="#c3f7c8" fill="none"/><path d="M1240 27.7a6 6 0 0 1 6-6h228a6 6 0 0 1 6 6v80.92a6 6 0 0 1-6 6h-228a6 6 0 0 1-6-6z" stroke="#000" stroke-opacity="0" stroke-width="2" fill="#fff" fill-opacity="0"/><use xlink:href="#j" transform="matrix(1,0,0,1,1245,26.686793031530158) translate(-63.24907407407372 55.322222222222194)"/><path d="M320 27.7a6 6 0 0 1 6-6h228a6 6 0 0 1 6 6v80.92a6 6 0 0 1-6 6H326a6 6 0 0 1-6-6z" stroke="#000" stroke-opacity="0" stroke-width="2" fill="#fff" fill-opacity="0"/><use xlink:href="#k" transform="matrix(1,0,0,1,325,26.686793031530158) translate(-69.20030864197494 55.322222222222194)"/><path d="M132.46 142.7a6 6 0 0 1 6-6h526.8a6 6 0 0 1 6 6V294a6 6 0 0 1-6 6h-526.8a6 6 0 0 1-6-6z" stroke="#6f7681" stroke-width="2" fill="#6f7681"/><use xlink:href="#a" transform="matrix(1,0,0,1,144.45842062877546,148.7132069684702) translate(57.0450617283951 76.7472222222222)"/><path d="M132.46 489.44a6 6 0 0 1 6-6h526.8a6 6 0 0 1 6 6v152.7a6 6 0 0 1-6 6h-526.8a6 6 0 0 1-6-6z" stroke="#6f7681" stroke-width="2" fill="#6f7681"/><use xlink:href="#l" transform="matrix(1,0,0,1,144.45842062877546,495.4360627985229) translate(-8.130555555555361 78.1)"/><path d="M132.46 729.44a6 6 0 0 1 6-6h526.8a6 6 0 0 1 6 6v152.7a6 6 0 0 1-6 6h-526.8a6 6 0 0 1-6-6z" stroke="#6f7681" stroke-width="2" fill="#6f7681"/><use xlink:href="#m" transform="matrix(1,0,0,1,144.45842062877546,735.4360627985228) translate(104.59969135802473 77.0909722222222)"/><path d="M518.2 337.73a6 6 0 0 1 6-6h141.07a6 6 0 0 1 6 6v60.53a6 6 0 0 1-6 6H524.2a6 6 0 0 1-6-6z" stroke="#282c33" stroke-width="2" fill="#6f7681"/><use xlink:href="#n" transform="matrix(1,0,0,1,530.2043715976974,343.73333333333346) translate(16.637345679012384 30.69861111111109)"/><path d="M132.46 337.73a6 6 0 0 1 6-6h138a6 6 0 0 1 6 6v60.53a6 6 0 0 1-6 6h-138a6 6 0 0 1-6-6z" stroke="#282c33" stroke-width="2" fill="#6f7681"/><use xlink:href="#o" transform="matrix(1,0,0,1,144.45842062877546,343.73333333333346) translate(27.222839506172875 30.69861111111109)"/><path d="M692.07 282a6 6 0 0 1 6-6H861a6 6 0 0 1 6 6v60.27a6 6 0 0 1-6 6H698.08a6 6 0 0 1-6-6z" stroke="#000" stroke-opacity="0" stroke-width="2" fill="#fff" fill-opacity="0"/><use xlink:href="#e" transform="matrix(1,0,0,1,697.0729176333546,281) translate(-1.1845679012343737 39.54444444444442)"/><path d="M703.1 498.86a6 6 0 0 1 6-6h140.88a6 6 0 0 1 6 6v143.27a6 6 0 0 1-6 6H709.1a6 6 0 0 1-6-6z" stroke="#000" stroke-opacity="0" stroke-width="2" fill="#fff" fill-opacity="0"/><use xlink:href="#p" transform="matrix(1,0,0,1,708.1008500541202,497.8629101562089) translate(48.69166666666668 37.74722222222221)"/><use xlink:href="#q" transform="matrix(1,0,0,1,708.1008500541202,497.8629101562089) translate(22.90185185185188 80.68055555555554)"/><use xlink:href="#r" transform="matrix(1,0,0,1,708.1008500541202,497.8629101562089) translate(29.75925925925928 123.61388888888885)"/><path d="M1130.06 366a6 6 0 0 1 6-6h138a6 6 0 0 1 6 6v60.52a6 6 0 0 1-6 6h-138a6 6 0 0 1-6-6z" stroke="#282c33" stroke-width="2" fill="#6f7681"/><use xlink:href="#o" transform="matrix(1,0,0,1,1142.0629347487843,371.9999999999997) translate(27.222839506172875 30.69861111111109)"/><path d="M1480 366a6 6 0 0 1 6-6h141.06a6 6 0 0 1 6 6v60.52a6 6 0 0 1-6 6H1486a6 6 0 0 1-6-6z" stroke="#282c33" stroke-width="2" fill="#6f7681"/><use xlink:href="#n" transform="matrix(1,0,0,1,1492,371.9999999999997) translate(16.637345679012384 30.69861111111109)"/><path d="M940 535.15a6 6 0 0 1 6-6h158.6a6 6 0 0 1 6 6v148a6 6 0 0 1-6 6H946a6 6 0 0 1-6-6z" stroke="#000" stroke-opacity="0" stroke-width="2" fill="#fff" fill-opacity="0"/><use xlink:href="#s" transform="matrix(1,0,0,1,945,534.1463052846275) translate(15.006790123456824 37.99722222222221)"/><use xlink:href="#t" transform="matrix(1,0,0,1,945,534.1463052846275) translate(118.16604938271603 37.99722222222221)"/><use xlink:href="#q" transform="matrix(1,0,0,1,945,534.1463052846275) translate(31.90185185185188 80.93055555555554)"/><use xlink:href="#r" transform="matrix(1,0,0,1,945,534.1463052846275) translate(38.75925925925928 123.86388888888885)"/><path d="M1390.1 747.54V709.7" stroke="#03dac6" stroke-width="3" fill="none"/><path d="M1391.6 749.04h-3v-1.54h3z" stroke="#03dac6" stroke-width=".05" fill="#03dac6"/><path d="M1390.1 693.95l4.63 14.26h-9.27z" stroke="#03dac6" stroke-width="3" fill="#03dac6"/><path d="M10.5 1141a.5.5 0 0 1 .5-.5h1848a.5.5 0 0 1 .5.5.5.5 0 0 1-.5.5H11a.5.5 0 0 1-.5-.5z" stroke="#c3f7c8" fill="none"/><path d="M401.86 720.97V669.7" stroke="#03dac6" stroke-width="3" fill="none"/><path d="M403.36 722.47h-3v-1.54h3z" stroke="#03dac6" stroke-width=".05" fill="#03dac6"/><path d="M401.86 653.95l4.64 14.26h-9.27z" stroke="#03dac6" stroke-width="3" fill="#03dac6"/><path d="M403.36 480.97h-3v-73.12h3zm0-105.4h-3v-54h3z" stroke="#03dac6" stroke-width=".05" fill="#03dac6"/><path d="M403.36 482.47h-3v-1.54h3z" fill="#03dac6"/><path d="M403.4 482.5h-3.06v-1.6h3.05zm-3-1.54v1.5h2.94v-1.5z" stroke="#03dac6" stroke-width=".05" fill="#03dac6"/><path d="M406.5 320.08h-9.27l4.63-14.26z" fill="#03dac6"/><path d="M408.56 321.58h-13.4l6.7-20.62zm-9.27-3h5.13l-2.57-7.9z" stroke="#03dac6" stroke-width=".05" fill="#03dac6"/><use xlink:href="#u" transform="matrix(1,0,0,1,394.3930972394204,375.58469805017546) translate(0 21.511111111111106)"/><path d="M200 1166.47a6 6 0 0 1 6-6h1341.78a6 6 0 0 1 6 6v127.06a6 6 0 0 1-6 6H206a6 6 0 0 1-6-6z" stroke="#000" stroke-opacity="0" stroke-width="2" fill="#fff" fill-opacity="0"/><use xlink:href="#v" transform="matrix(1,0,0,1,205,1165.4666666666667) translate(42.23981481481508 21.511111111111106)"/><use xlink:href="#w" transform="matrix(1,0,0,1,205,1165.4666666666667) translate(121.26327160493852 21.511111111111106)"/><use xlink:href="#x" transform="matrix(1,0,0,1,205,1165.4666666666667) translate(240.5453703703706 21.511111111111106)"/><use xlink:href="#y" transform="matrix(1,0,0,1,205,1165.4666666666667) translate(327.1126543209879 21.511111111111106)"/><use xlink:href="#z" transform="matrix(1,0,0,1,205,1165.4666666666667) translate(391.27253086419773 21.511111111111106)"/><use xlink:href="#A" transform="matrix(1,0,0,1,205,1165.4666666666667) translate(492.70339506172854 21.511111111111106)"/><use xlink:href="#B" transform="matrix(1,0,0,1,205,1165.4666666666667) translate(509.0608024691359 21.511111111111106)"/><use xlink:href="#C" transform="matrix(1,0,0,1,205,1165.4666666666667) translate(592.6404320987655 21.511111111111106)"/><use xlink:href="#D" transform="matrix(1,0,0,1,205,1165.4666666666667) translate(694.145987654321 21.511111111111106)"/><use xlink:href="#E" transform="matrix(1,0,0,1,205,1165.4666666666667) translate(738.9608024691357 21.511111111111106)"/><use xlink:href="#F" transform="matrix(1,0,0,1,205,1165.4666666666667) translate(819.478086419753 21.511111111111106)"/><use xlink:href="#D" transform="matrix(1,0,0,1,205,1165.4666666666667) translate(849.3546296296296 21.511111111111106)"/><use xlink:href="#G" transform="matrix(1,0,0,1,205,1165.4666666666667) translate(894.1694444444444 21.511111111111106)"/><use xlink:href="#H" transform="matrix(1,0,0,1,205,1165.4666666666667) translate(953.9225308641975 21.511111111111106)"/><use xlink:href="#I" transform="matrix(1,0,0,1,205,1165.4666666666667) translate(1049.4527777777776 21.511111111111106)"/><use xlink:href="#J" transform="matrix(1,0,0,1,205,1165.4666666666667) translate(1100.2429012345679 21.511111111111106)"/><use xlink:href="#K" transform="matrix(1,0,0,1,205,1165.4666666666667) translate(1151.0330246913577 21.511111111111106)"/><use xlink:href="#L" transform="matrix(1,0,0,1,205,1165.4666666666667) translate(1264.414506172839 21.511111111111106)"/><use xlink:href="#M" transform="matrix(1,0,0,1,205,1165.4666666666667) translate(44.59259259259272 53.777777777777764)"/><use xlink:href="#N" transform="matrix(1,0,0,1,205,1165.4666666666667) translate(187.77592592592603 53.777777777777764)"/><use xlink:href="#O" transform="matrix(1,0,0,1,205,1165.4666666666667) translate(240.05987654320998 53.777777777777764)"/><use xlink:href="#D" transform="matrix(1,0,0,1,205,1165.4666666666667) translate(317.738888888889 53.777777777777764)"/><use xlink:href="#E" transform="matrix(1,0,0,1,205,1165.4666666666667) translate(362.5537037037038 53.777777777777764)"/><use xlink:href="#P" transform="matrix(1,0,0,1,205,1165.4666666666667) translate(443.070987654321 53.777777777777764)"/><use xlink:href="#N" transform="matrix(1,0,0,1,205,1165.4666666666667) translate(572.8098765432098 53.777777777777764)"/><use xlink:href="#Q" transform="matrix(1,0,0,1,205,1165.4666666666667) translate(625.0938271604938 53.777777777777764)"/><use xlink:href="#R" transform="matrix(1,0,0,1,205,1165.4666666666667) translate(681.7845679012345 53.777777777777764)"/><use xlink:href="#S" transform="matrix(1,0,0,1,205,1165.4666666666667) translate(719.1302469135802 53.777777777777764)"/><use xlink:href="#T" transform="matrix(1,0,0,1,205,1165.4666666666667) translate(783.1407407407407 53.777777777777764)"/><use xlink:href="#U" transform="matrix(1,0,0,1,205,1165.4666666666667) translate(803.9796296296296 53.777777777777764)"/><use xlink:href="#V" transform="matrix(1,0,0,1,205,1165.4666666666667) translate(824.8185185185184 53.777777777777764)"/><use xlink:href="#W" transform="matrix(1,0,0,1,205,1165.4666666666667) translate(890.5469135802468 53.777777777777764)"/><use xlink:href="#X" transform="matrix(1,0,0,1,205,1165.4666666666667) translate(935.3617283950616 53.777777777777764)"/><use xlink:href="#Y" transform="matrix(1,0,0,1,205,1165.4666666666667) translate(1023.4228395061727 53.777777777777764)"/><use xlink:href="#Z" transform="matrix(1,0,0,1,205,1165.4666666666667) translate(1120.446913580247 53.777777777777764)"/><use xlink:href="#L" transform="matrix(1,0,0,1,205,1165.4666666666667) translate(1262.0617283950614 53.777777777777764)"/><use xlink:href="#C" transform="matrix(1,0,0,1,205,1165.4666666666667) translate(436.12469135802473 86.04444444444442)"/><use xlink:href="#aa" transform="matrix(1,0,0,1,205,1165.4666666666667) translate(537.6302469135803 86.04444444444442)"/><use xlink:href="#D" transform="matrix(1,0,0,1,205,1165.4666666666667) translate(567.5067901234568 86.04444444444442)"/><use xlink:href="#E" transform="matrix(1,0,0,1,205,1165.4666666666667) translate(612.3216049382715 86.04444444444442)"/><use xlink:href="#F" transform="matrix(1,0,0,1,205,1165.4666666666667) translate(692.8388888888888 86.04444444444442)"/><use xlink:href="#D" transform="matrix(1,0,0,1,205,1165.4666666666667) translate(722.7154320987654 86.04444444444442)"/><use xlink:href="#G" transform="matrix(1,0,0,1,205,1165.4666666666667) translate(767.5302469135802 86.04444444444442)"/><use xlink:href="#ab" transform="matrix(1,0,0,1,205,1165.4666666666667) translate(827.2833333333333 86.04444444444442)"/><use xlink:href="#ac" transform="matrix(1,0,0,1,205,1165.4666666666667) translate(45.60092592592605 118.31111111111109)"/><use xlink:href="#ad" transform="matrix(1,0,0,1,205,1165.4666666666667) translate(149.79537037037048 118.31111111111109)"/><use xlink:href="#ae" transform="matrix(1,0,0,1,205,1165.4666666666667) translate(283.94104938271613 118.31111111111109)"/><use xlink:href="#af" transform="matrix(1,0,0,1,205,1165.4666666666667) translate(319.71820987654326 118.31111111111109)"/><use xlink:href="#ag" transform="matrix(1,0,0,1,205,1165.4666666666667) translate(400.23549382716055 118.31111111111109)"/><use xlink:href="#ah" transform="matrix(1,0,0,1,205,1165.4666666666667) translate(494.19722222222225 118.31111111111109)"/><use xlink:href="#A" transform="matrix(1,0,0,1,205,1165.4666666666667) translate(625.5046296296296 118.31111111111109)"/><use xlink:href="#ai" transform="matrix(1,0,0,1,205,1165.4666666666667) translate(641.862037037037 118.31111111111109)"/><use xlink:href="#aj" transform="matrix(1,0,0,1,205,1165.4666666666667) translate(750.8367283950616 118.31111111111109)"/><use xlink:href="#E" transform="matrix(1,0,0,1,205,1165.4666666666667) translate(811.9342592592592 118.31111111111109)"/><use xlink:href="#ak" transform="matrix(1,0,0,1,205,1165.4666666666667) translate(892.4515432098765 118.31111111111109)"/><use xlink:href="#F" transform="matrix(1,0,0,1,205,1165.4666666666667) translate(987.907098765432 118.31111111111109)"/><use xlink:href="#E" transform="matrix(1,0,0,1,205,1165.4666666666667) translate(1017.7836419753086 118.31111111111109)"/><use xlink:href="#al" transform="matrix(1,0,0,1,205,1165.4666666666667) translate(1098.3009259259259 118.31111111111109)"/><use xlink:href="#am" transform="matrix(1,0,0,1,205,1165.4666666666667) translate(1187.8558641975308 118.31111111111109)"/><path d="M598 480.95h-3V470h3zm0-43.22h-3v-11.9h3z" stroke="#03dac6" stroke-width=".05" fill="#03dac6"/><path d="M598 482.45h-3v-1.54h3z" fill="#03dac6"/><path d="M598.03 482.47h-3.05v-1.6h3.05zm-3-1.54v1.5h2.95v-1.5z" stroke="#03dac6" stroke-width=".05" fill="#03dac6"/><path d="M601.14 424.34h-9.27l4.63-14.27z" fill="#03dac6"/><path d="M603.2 425.84h-13.4l6.7-20.62zm-9.27-3h5.15l-2.58-7.9z" stroke="#03dac6" stroke-width=".05" fill="#03dac6"/><g><use xlink:href="#an" transform="matrix(1,0,0,1,589.0354877092985,437.7282027006403) translate(0 21.511111111111106)"/></g><path d="M199.72 481h-3v-11h3zm0-43.27h-3v-11.9h3z" stroke="#03dac6" stroke-width=".05" fill="#03dac6"/><path d="M199.72 482.5h-3v-1.54h3z" fill="#03dac6"/><path d="M199.74 482.53h-3.05v-1.6h3.04zm-3-1.54v1.48h2.95v-1.5z" stroke="#03dac6" stroke-width=".05" fill="#03dac6"/><path d="M202.85 424.34h-9.27l4.64-14.26z" fill="#03dac6"/><path d="M204.92 425.84h-13.4l6.7-20.62zm-9.27-3h5.14l-2.58-7.9z" stroke="#03dac6" stroke-width=".05" fill="#03dac6"/><g><use xlink:href="#ao" transform="matrix(1,0,0,1,190.75039904207208,437.7282027006403) translate(0 21.511111111111106)"/></g><path d="M1391.6 517.54h-3V468.4h3zm0-81.4h-3v-82.82h3z" stroke="#03dac6" stroke-width=".05" fill="#03dac6"/><path d="M1391.6 519.04h-3v-1.54h3z" fill="#03dac6"/><path d="M1391.62 519.06h-3.05v-1.6h3.05zm-3-1.54v1.5h2.95v-1.5z" stroke="#03dac6" stroke-width=".05" fill="#03dac6"/><path d="M1394.73 351.82h-9.27l4.64-14.27z" fill="#03dac6"/><path d="M1396.8 353.32h-13.4l6.7-20.62zm-9.27-3h5.14l-2.57-7.92z" stroke="#03dac6" stroke-width=".05" fill="#03dac6"/><g><use xlink:href="#u" transform="matrix(1,0,0,1,1382.6281190480647,436.146658131012) translate(0 21.511111111111106)"/></g><path d="M1393.75 977.54V939.7" stroke="#03dac6" stroke-width="3" fill="none"/><path d="M1395.25 979.04h-3v-1.54h3z" stroke="#03dac6" stroke-width=".05" fill="#03dac6"/><path d="M1393.75 923.95l4.63 14.26h-9.27z" stroke="#03dac6" stroke-width="3" fill="#03dac6"/><path d="M1561.3 517.5h-3v-12.3h3zm0-44.57h-3V454.1h3z" stroke="#03dac6" stroke-width=".05" fill="#03dac6"/><path d="M1561.3 519h-3v-1.53h3z" fill="#03dac6"/><path d="M1561.33 519.04h-3.05v-1.6h3.05zm-3-1.54v1.5h2.95v-1.5z" stroke="#03dac6" stroke-width=".05" fill="#03dac6"/><path d="M1564.44 452.6h-9.27l4.63-14.26z" fill="#03dac6"/><path d="M1566.5 454.1h-13.4l6.7-20.62zm-9.27-3h5.14l-2.57-7.9z" stroke="#03dac6" stroke-width=".05" fill="#03dac6"/><g><use xlink:href="#an" transform="matrix(1,0,0,1,1552.3344809082107,472.9256279440913) translate(0 21.511111111111106)"/></g><path d="M1201.18 517.55h-3v-7.12h3zm-1.08-42.53l.24.13.46.46.3.58.08.53v1.47h-3v-.64l-.27-.14-.45-.46-.35-.7-.03-22.13h3z" stroke="#03dac6" stroke-width=".05" fill="#03dac6"/><path d="M1201.18 519.05h-3v-1.54h3z" fill="#03dac6"/><path d="M1201.2 519.08h-3.05v-1.6h3.05zm-3-1.54v1.5h2.95v-1.5z" stroke="#03dac6" stroke-width=".05" fill="#03dac6"/><path d="M1203.2 452.6h-9.26l4.63-14.26z" fill="#03dac6"/><path d="M1205.27 454.1h-13.4l6.7-20.6zm-9.27-3h5.14l-2.57-7.9z" stroke="#03dac6" stroke-width=".05" fill="#03dac6"/><g><use xlink:href="#ao" transform="matrix(1,0,0,1,1192.207392214729,478.167331308511) translate(0 21.511111111111106)"/></g><defs><path fill="#fff" d="M240 0l2-218c-23 76-54 145-80 218h-23L58-218 59 0H30v-248h44l77 211c21-75 51-140 76-211h43V0h-30" id="ap"/><path fill="#fff" d="M100-194c62-1 85 37 85 99 1 63-27 99-86 99S16-35 15-95c0-66 28-99 85-99zM99-20c44 1 53-31 53-75 0-43-8-75-51-75s-53 32-53 75 10 74 51 75" id="aq"/><path fill="#fff" d="M85-194c31 0 48 13 60 33l-1-100h32l1 261h-30c-2-10 0-23-3-31C134-8 116 4 85 4 32 4 16-35 15-94c0-66 23-100 70-100zm9 24c-40 0-46 34-46 75 0 40 6 74 45 74 42 0 51-32 51-76 0-42-9-74-50-73" id="ar"/><path fill="#fff" d="M100-194c63 0 86 42 84 106H49c0 40 14 67 53 68 26 1 43-12 49-29l28 8c-11 28-37 45-77 45C44 4 14-33 15-96c1-61 26-98 85-98zm52 81c6-60-76-77-97-28-3 7-6 17-6 28h103" id="as"/><path fill="#fff" d="M24 0v-261h32V0H24" id="at"/><path fill="#fff" d="M190 0L58-211 59 0H30v-248h39L202-35l-2-213h31V0h-41" id="au"/><path fill="#fff" d="M141-36C126-15 110 5 73 4 37 3 15-17 15-53c-1-64 63-63 125-63 3-35-9-54-41-54-24 1-41 7-42 31l-33-3c5-37 33-52 76-52 45 0 72 20 72 64v82c-1 20 7 32 28 27v20c-31 9-61-2-59-35zM48-53c0 20 12 33 32 33 41-3 63-29 60-74-43 2-92-5-92 41" id="av"/><path fill="#fff" d="M210-169c-67 3-38 105-44 169h-31v-121c0-29-5-50-35-48C34-165 62-65 56 0H25l-1-190h30c1 10-1 24 2 32 10-44 99-50 107 0 11-21 27-35 58-36 85-2 47 119 55 194h-31v-121c0-29-5-49-35-48" id="aw"/><path fill="#fff" d="M30-248c118-7 216 8 213 122C240-48 200 0 122 0H30v-248zM63-27c89 8 146-16 146-99s-60-101-146-95v194" id="ax"/><path fill="#fff" d="M59-47c-2 24 18 29 38 22v24C64 9 27 4 27-40v-127H5v-23h24l9-43h21v43h35v23H59v120" id="ay"/><path fill="#fff" d="M185-189c-5-48-123-54-124 2 14 75 158 14 163 119 3 78-121 87-175 55-17-10-28-26-33-46l33-7c5 56 141 63 141-1 0-78-155-14-162-118-5-82 145-84 179-34 5 7 8 16 11 25" id="az"/><path fill="#fff" d="M84 4C-5 8 30-112 23-190h32v120c0 31 7 50 39 49 72-2 45-101 50-169h31l1 190h-30c-1-10 1-25-2-33-11 22-28 36-60 37" id="aA"/><path fill="#fff" d="M114-163C36-179 61-72 57 0H25l-1-190h30c1 12-1 29 2 39 6-27 23-49 58-41v29" id="aB"/><path fill="#fff" d="M96-169c-40 0-48 33-48 73s9 75 48 75c24 0 41-14 43-38l32 2c-6 37-31 61-74 61-59 0-76-41-82-99-10-93 101-131 147-64 4 7 5 14 7 22l-32 3c-4-21-16-35-41-35" id="aC"/><g id="a"><use transform="matrix(0.09938271604938267,0,0,0.09938271604938267,0,0)" xlink:href="#ap"/><use transform="matrix(0.09938271604938267,0,0,0.09938271604938267,29.71543209876542,0)" xlink:href="#aq"/><use transform="matrix(0.09938271604938267,0,0,0.09938271604938267,49.59197530864195,0)" xlink:href="#ar"/><use transform="matrix(0.09938271604938267,0,0,0.09938271604938267,69.46851851851848,0)" xlink:href="#as"/><use transform="matrix(0.09938271604938267,0,0,0.09938271604938267,89.34506172839501,0)" xlink:href="#at"/><use transform="matrix(0.09938271604938267,0,0,0.09938271604938267,97.19629629629624,0)" xlink:href="#au"/><use transform="matrix(0.09938271604938267,0,0,0.09938271604938267,122.93641975308634,0)" xlink:href="#av"/><use transform="matrix(0.09938271604938267,0,0,0.09938271604938267,142.8129629629629,0)" xlink:href="#aw"/><use transform="matrix(0.09938271604938267,0,0,0.09938271604938267,172.5283950617283,0)" xlink:href="#as"/><use transform="matrix(0.09938271604938267,0,0,0.09938271604938267,192.40493827160483,0)" xlink:href="#ar"/><use transform="matrix(0.09938271604938267,0,0,0.09938271604938267,212.28148148148134,0)" xlink:href="#ax"/><use transform="matrix(0.09938271604938267,0,0,0.09938271604938267,238.02160493827145,0)" xlink:href="#av"/><use transform="matrix(0.09938271604938267,0,0,0.09938271604938267,257.89814814814804,0)" xlink:href="#ay"/><use transform="matrix(0.09938271604938267,0,0,0.09938271604938267,267.8364197530863,0)" xlink:href="#av"/><use transform="matrix(0.09938271604938267,0,0,0.09938271604938267,287.7129629629629,0)" xlink:href="#az"/><use transform="matrix(0.09938271604938267,0,0,0.09938271604938267,311.5648148148147,0)" xlink:href="#aq"/><use transform="matrix(0.09938271604938267,0,0,0.09938271604938267,331.4413580246913,0)" xlink:href="#aA"/><use transform="matrix(0.09938271604938267,0,0,0.09938271604938267,351.31790123456784,0)" xlink:href="#aB"/><use transform="matrix(0.09938271604938267,0,0,0.09938271604938267,363.1444444444444,0)" xlink:href="#aC"/><use transform="matrix(0.09938271604938267,0,0,0.09938271604938267,381.03333333333325,0)" xlink:href="#as"/></g><path fill="#fff" d="M137 0h-34L2-248h35l83 218 83-218h36" id="aD"/><path fill="#fff" d="M24-231v-30h32v30H24zM24 0v-190h32V0H24" id="aE"/><path fill="#fff" d="M206 0h-36l-40-164L89 0H53L-1-190h32L70-26l43-164h34l41 164 42-164h31" id="aF"/><g id="b"><use transform="matrix(0.1055555555555555,0,0,0.1055555555555555,0,0)" xlink:href="#ap"/><use transform="matrix(0.1055555555555555,0,0,0.1055555555555555,31.561111111111096,0)" xlink:href="#aq"/><use transform="matrix(0.1055555555555555,0,0,0.1055555555555555,52.672222222222196,0)" xlink:href="#ar"/><use transform="matrix(0.1055555555555555,0,0,0.1055555555555555,73.7833333333333,0)" xlink:href="#as"/><use transform="matrix(0.1055555555555555,0,0,0.1055555555555555,94.8944444444444,0)" xlink:href="#at"/><use transform="matrix(0.1055555555555555,0,0,0.1055555555555555,103.23333333333329,0)" xlink:href="#au"/><use transform="matrix(0.1055555555555555,0,0,0.1055555555555555,130.57222222222217,0)" xlink:href="#av"/><use transform="matrix(0.1055555555555555,0,0,0.1055555555555555,151.68333333333328,0)" xlink:href="#aw"/><use transform="matrix(0.1055555555555555,0,0,0.1055555555555555,183.24444444444438,0)" xlink:href="#as"/><use transform="matrix(0.1055555555555555,0,0,0.1055555555555555,204.3555555555555,0)" xlink:href="#ar"/><use transform="matrix(0.1055555555555555,0,0,0.1055555555555555,225.46666666666658,0)" xlink:href="#aD"/><use transform="matrix(0.1055555555555555,0,0,0.1055555555555555,250.06111111111102,0)" xlink:href="#aE"/><use transform="matrix(0.1055555555555555,0,0,0.1055555555555555,258.3999999999999,0)" xlink:href="#as"/><use transform="matrix(0.1055555555555555,0,0,0.1055555555555555,279.511111111111,0)" xlink:href="#aF"/><use transform="matrix(0.1055555555555555,0,0,0.1055555555555555,306.8499999999999,0)" xlink:href="#ap"/><use transform="matrix(0.1055555555555555,0,0,0.1055555555555555,338.411111111111,0)" xlink:href="#aq"/><use transform="matrix(0.1055555555555555,0,0,0.1055555555555555,359.52222222222207,0)" xlink:href="#ar"/><use transform="matrix(0.1055555555555555,0,0,0.1055555555555555,380.63333333333316,0)" xlink:href="#as"/><use transform="matrix(0.1055555555555555,0,0,0.1055555555555555,401.74444444444424,0)" xlink:href="#at"/></g><path fill="#fff" d="M30 0v-248h33v221h125V0H30" id="aG"/><path fill="#fff" d="M135-143c-3-34-86-38-87 0 15 53 115 12 119 90S17 21 10-45l28-5c4 36 97 45 98 0-10-56-113-15-118-90-4-57 82-63 122-42 12 7 21 19 24 35" id="aH"/><path fill="#fff" d="M140-251c81 0 123 46 123 126C263-46 219 4 140 4 59 4 17-45 17-125s42-126 123-126zm0 227c63 0 89-41 89-101s-29-99-89-99c-61 0-89 39-89 99S79-25 140-24" id="aI"/><path fill="#fff" d="M101-234c-31-9-42 10-38 44h38v23H63V0H32v-167H5v-23h27c-7-52 17-82 69-68v24" id="aJ"/><path fill="#fff" d="M63-220v92h138v28H63V0H30v-248h175v28H63" id="aK"/><g id="c"><use transform="matrix(0.09938271604938267,0,0,0.09938271604938267,0,0)" xlink:href="#aG"/><use transform="matrix(0.09938271604938267,0,0,0.09938271604938267,19.876543209876534,0)" xlink:href="#aE"/><use transform="matrix(0.09938271604938267,0,0,0.09938271604938267,27.727777777777767,0)" xlink:href="#aH"/><use transform="matrix(0.09938271604938267,0,0,0.09938271604938267,45.616666666666646,0)" xlink:href="#ay"/><use transform="matrix(0.09938271604938267,0,0,0.09938271604938267,55.55493827160492,0)" xlink:href="#aI"/><use transform="matrix(0.09938271604938267,0,0,0.09938271604938267,83.38209876543206,0)" xlink:href="#aJ"/><use transform="matrix(0.09938271604938267,0,0,0.09938271604938267,93.32037037037033,0)" xlink:href="#aD"/><use transform="matrix(0.09938271604938267,0,0,0.09938271604938267,116.4765432098765,0)" xlink:href="#aE"/><use transform="matrix(0.09938271604938267,0,0,0.09938271604938267,124.32777777777773,0)" xlink:href="#as"/><use transform="matrix(0.09938271604938267,0,0,0.09938271604938267,144.20432098765426,0)" xlink:href="#aF"/><use transform="matrix(0.09938271604938267,0,0,0.09938271604938267,169.94444444444437,0)" xlink:href="#ap"/><use transform="matrix(0.09938271604938267,0,0,0.09938271604938267,199.6598765432098,0)" xlink:href="#aq"/><use transform="matrix(0.09938271604938267,0,0,0.09938271604938267,219.53641975308634,0)" xlink:href="#ar"/><use transform="matrix(0.09938271604938267,0,0,0.09938271604938267,239.41296296296287,0)" xlink:href="#as"/><use transform="matrix(0.09938271604938267,0,0,0.09938271604938267,259.2895061728394,0)" xlink:href="#at"/><use transform="matrix(0.09938271604938267,0,0,0.09938271604938267,267.1407407407407,0)" xlink:href="#aK"/><use transform="matrix(0.09938271604938267,0,0,0.09938271604938267,288.9055555555555,0)" xlink:href="#aq"/><use transform="matrix(0.09938271604938267,0,0,0.09938271604938267,308.78209876543207,0)" xlink:href="#aB"/><use transform="matrix(0.09938271604938267,0,0,0.09938271604938267,320.6086419753086,0)" xlink:href="#au"/><use transform="matrix(0.09938271604938267,0,0,0.09938271604938267,346.34876543209873,0)" xlink:href="#av"/><use transform="matrix(0.09938271604938267,0,0,0.09938271604938267,366.2253086419753,0)" xlink:href="#aw"/><use transform="matrix(0.09938271604938267,0,0,0.09938271604938267,395.9407407407407,0)" xlink:href="#as"/><use transform="matrix(0.09938271604938267,0,0,0.09938271604938267,415.8172839506173,0)" xlink:href="#ar"/><use transform="matrix(0.09938271604938267,0,0,0.09938271604938267,435.6938271604938,0)" xlink:href="#aD"/><use transform="matrix(0.09938271604938267,0,0,0.09938271604938267,458.84999999999997,0)" xlink:href="#aE"/><use transform="matrix(0.09938271604938267,0,0,0.09938271604938267,466.7012345679012,0)" xlink:href="#as"/><use transform="matrix(0.09938271604938267,0,0,0.09938271604938267,486.5777777777778,0)" xlink:href="#aF"/></g><g id="d"><use transform="matrix(0.09938271604938267,0,0,0.09938271604938267,0,0)" xlink:href="#au"/><use transform="matrix(0.09938271604938267,0,0,0.09938271604938267,25.740123456790112,0)" xlink:href="#av"/><use transform="matrix(0.09938271604938267,0,0,0.09938271604938267,45.616666666666646,0)" xlink:href="#aw"/><use transform="matrix(0.09938271604938267,0,0,0.09938271604938267,75.33209876543206,0)" xlink:href="#as"/><use transform="matrix(0.09938271604938267,0,0,0.09938271604938267,95.2086419753086,0)" xlink:href="#ar"/><use transform="matrix(0.09938271604938267,0,0,0.09938271604938267,115.08518518518511,0)" xlink:href="#aD"/><use transform="matrix(0.09938271604938267,0,0,0.09938271604938267,138.2413580246913,0)" xlink:href="#aE"/><use transform="matrix(0.09938271604938267,0,0,0.09938271604938267,146.09259259259252,0)" xlink:href="#as"/><use transform="matrix(0.09938271604938267,0,0,0.09938271604938267,165.96913580246905,0)" xlink:href="#aF"/></g><path fill="#fff" d="M117-194c89-4 53 116 60 194h-32v-121c0-31-8-49-39-48C34-167 62-67 57 0H25l-1-190h30c1 10-1 24 2 32 11-22 29-35 61-36" id="aL"/><path fill="#fff" d="M177-190C167-65 218 103 67 71c-23-6-38-20-44-43l32-5c15 47 100 32 89-28v-30C133-14 115 1 83 1 29 1 15-40 15-95c0-56 16-97 71-98 29-1 48 16 59 35 1-10 0-23 2-32h30zM94-22c36 0 50-32 50-73 0-42-14-75-50-75-39 0-46 34-46 75s6 73 46 73" id="aM"/><g id="e"><use transform="matrix(0.11172839506172813,0,0,0.11172839506172813,0,0)" xlink:href="#az"/><use transform="matrix(0.11172839506172813,0,0,0.11172839506172813,26.814814814814753,0)" xlink:href="#aE"/><use transform="matrix(0.11172839506172813,0,0,0.11172839506172813,35.64135802469127,0)" xlink:href="#aL"/><use transform="matrix(0.11172839506172813,0,0,0.11172839506172813,57.9870370370369,0)" xlink:href="#aM"/><use transform="matrix(0.11172839506172813,0,0,0.11172839506172813,80.33271604938253,0)" xlink:href="#at"/><use transform="matrix(0.11172839506172813,0,0,0.11172839506172813,89.15925925925904,0)" xlink:href="#as"/><use transform="matrix(0.11172839506172813,0,0,0.11172839506172813,111.50493827160467,0)" xlink:href="#ay"/><use transform="matrix(0.11172839506172813,0,0,0.11172839506172813,122.6777777777775,0)" xlink:href="#aq"/><use transform="matrix(0.11172839506172813,0,0,0.11172839506172813,145.02345679012313,0)" xlink:href="#aL"/></g><g id="f"><use transform="matrix(0.11172839506172812,0,0,0.11172839506172812,0,0)" xlink:href="#au"/><use transform="matrix(0.11172839506172812,0,0,0.11172839506172812,28.937654320987583,0)" xlink:href="#aq"/></g><g id="g"><use transform="matrix(0.11172839506172812,0,0,0.11172839506172812,0,0)" xlink:href="#az"/><use transform="matrix(0.11172839506172812,0,0,0.11172839506172812,26.81481481481475,0)" xlink:href="#aE"/><use transform="matrix(0.11172839506172812,0,0,0.11172839506172812,35.64135802469127,0)" xlink:href="#aL"/><use transform="matrix(0.11172839506172812,0,0,0.11172839506172812,57.98703703703689,0)" xlink:href="#aM"/><use transform="matrix(0.11172839506172812,0,0,0.11172839506172812,80.33271604938253,0)" xlink:href="#at"/><use transform="matrix(0.11172839506172812,0,0,0.11172839506172812,89.15925925925904,0)" xlink:href="#as"/><use transform="matrix(0.11172839506172812,0,0,0.11172839506172812,111.50493827160467,0)" xlink:href="#ay"/><use transform="matrix(0.11172839506172812,0,0,0.11172839506172812,122.67777777777748,0)" xlink:href="#aq"/><use transform="matrix(0.11172839506172812,0,0,0.11172839506172812,145.0234567901231,0)" xlink:href="#aL"/></g><g id="h"><use transform="matrix(0.07469135802469126,0,0,0.07469135802469126,0,0)" xlink:href="#az"/><use transform="matrix(0.07469135802469126,0,0,0.07469135802469126,17.925925925925903,0)" xlink:href="#ay"/><use transform="matrix(0.07469135802469126,0,0,0.07469135802469126,25.395061728395028,0)" xlink:href="#aB"/><use transform="matrix(0.07469135802469126,0,0,0.07469135802469126,34.28333333333329,0)" xlink:href="#as"/><use transform="matrix(0.07469135802469126,0,0,0.07469135802469126,49.22160493827154,0)" xlink:href="#av"/><use transform="matrix(0.07469135802469126,0,0,0.07469135802469126,64.15987654320979,0)" xlink:href="#aw"/></g><g id="i"><use transform="matrix(0.07469135802469126,0,0,0.07469135802469126,0,0)" xlink:href="#ap"/><use transform="matrix(0.07469135802469126,0,0,0.07469135802469126,22.332716049382686,0)" xlink:href="#aq"/><use transform="matrix(0.07469135802469126,0,0,0.07469135802469126,37.27098765432094,0)" xlink:href="#ar"/><use transform="matrix(0.07469135802469126,0,0,0.07469135802469126,52.20925925925919,0)" xlink:href="#as"/><use transform="matrix(0.07469135802469126,0,0,0.07469135802469126,67.14753086419745,0)" xlink:href="#at"/></g><g id="j"><use transform="matrix(0.19197530864197493,0,0,0.19197530864197493,0,0)" xlink:href="#aK"/><use transform="matrix(0.19197530864197493,0,0,0.19197530864197493,42.04259259259251,0)" xlink:href="#aq"/><use transform="matrix(0.19197530864197493,0,0,0.19197530864197493,80.43765432098749,0)" xlink:href="#aB"/><use transform="matrix(0.19197530864197493,0,0,0.19197530864197493,103.28271604938251,0)" xlink:href="#as"/><use transform="matrix(0.19197530864197493,0,0,0.19197530864197493,141.6777777777775,0)" xlink:href="#aM"/><use transform="matrix(0.19197530864197493,0,0,0.19197530864197493,180.07283950617247,0)" xlink:href="#aB"/><use transform="matrix(0.19197530864197493,0,0,0.19197530864197493,202.9179012345675,0)" xlink:href="#aq"/><use transform="matrix(0.19197530864197493,0,0,0.19197530864197493,241.31296296296247,0)" xlink:href="#aA"/><use transform="matrix(0.19197530864197493,0,0,0.19197530864197493,279.7080246913575,0)" xlink:href="#aL"/><use transform="matrix(0.19197530864197493,0,0,0.19197530864197493,318.10308641975246,0)" xlink:href="#ar"/></g><path fill="#fff" d="M160-131c35 5 61 23 61 61C221 17 115-2 30 0v-248c76 3 177-17 177 60 0 33-19 50-47 57zm-97-11c50-1 110 9 110-42 0-47-63-36-110-37v79zm0 115c55-2 124 14 124-45 0-56-70-42-124-44v89" id="aN"/><path fill="#fff" d="M143 0L79-87 56-68V0H24v-261h32v163l83-92h37l-77 82L181 0h-38" id="aO"/><g id="k"><use transform="matrix(0.19197530864197493,0,0,0.19197530864197493,0,0)" xlink:href="#aN"/><use transform="matrix(0.19197530864197493,0,0,0.19197530864197493,46.074074074073984,0)" xlink:href="#av"/><use transform="matrix(0.19197530864197493,0,0,0.19197530864197493,84.46913580246897,0)" xlink:href="#aC"/><use transform="matrix(0.19197530864197493,0,0,0.19197530864197493,119.02469135802446,0)" xlink:href="#aO"/><use transform="matrix(0.19197530864197493,0,0,0.19197530864197493,153.58024691357994,0)" xlink:href="#aM"/><use transform="matrix(0.19197530864197493,0,0,0.19197530864197493,191.97530864197492,0)" xlink:href="#aB"/><use transform="matrix(0.19197530864197493,0,0,0.19197530864197493,214.82037037036994,0)" xlink:href="#aq"/><use transform="matrix(0.19197530864197493,0,0,0.19197530864197493,253.21543209876492,0)" xlink:href="#aA"/><use transform="matrix(0.19197530864197493,0,0,0.19197530864197493,291.6104938271599,0)" xlink:href="#aL"/><use transform="matrix(0.19197530864197493,0,0,0.19197530864197493,330.0055555555549,0)" xlink:href="#ar"/></g><g id="l"><use transform="matrix(0.1055555555555555,0,0,0.1055555555555555,0,0)" xlink:href="#ap"/><use transform="matrix(0.1055555555555555,0,0,0.1055555555555555,31.561111111111096,0)" xlink:href="#aq"/><use transform="matrix(0.1055555555555555,0,0,0.1055555555555555,52.672222222222196,0)" xlink:href="#ar"/><use transform="matrix(0.1055555555555555,0,0,0.1055555555555555,73.7833333333333,0)" xlink:href="#as"/><use transform="matrix(0.1055555555555555,0,0,0.1055555555555555,94.8944444444444,0)" xlink:href="#at"/><use transform="matrix(0.1055555555555555,0,0,0.1055555555555555,103.23333333333329,0)" xlink:href="#au"/><use transform="matrix(0.1055555555555555,0,0,0.1055555555555555,130.57222222222217,0)" xlink:href="#av"/><use transform="matrix(0.1055555555555555,0,0,0.1055555555555555,151.68333333333328,0)" xlink:href="#aw"/><use transform="matrix(0.1055555555555555,0,0,0.1055555555555555,183.24444444444438,0)" xlink:href="#as"/><use transform="matrix(0.1055555555555555,0,0,0.1055555555555555,204.3555555555555,0)" xlink:href="#ar"/><use transform="matrix(0.1055555555555555,0,0,0.1055555555555555,225.46666666666658,0)" xlink:href="#aN"/><use transform="matrix(0.1055555555555555,0,0,0.1055555555555555,250.79999999999993,0)" xlink:href="#av"/><use transform="matrix(0.1055555555555555,0,0,0.1055555555555555,271.911111111111,0)" xlink:href="#aC"/><use transform="matrix(0.1055555555555555,0,0,0.1055555555555555,290.911111111111,0)" xlink:href="#aO"/><use transform="matrix(0.1055555555555555,0,0,0.1055555555555555,309.911111111111,0)" xlink:href="#aM"/><use transform="matrix(0.1055555555555555,0,0,0.1055555555555555,331.02222222222207,0)" xlink:href="#aB"/><use transform="matrix(0.1055555555555555,0,0,0.1055555555555555,343.5833333333332,0)" xlink:href="#aq"/><use transform="matrix(0.1055555555555555,0,0,0.1055555555555555,364.6944444444443,0)" xlink:href="#aA"/><use transform="matrix(0.1055555555555555,0,0,0.1055555555555555,385.8055555555554,0)" xlink:href="#aL"/><use transform="matrix(0.1055555555555555,0,0,0.1055555555555555,406.91666666666646,0)" xlink:href="#ar"/><use transform="matrix(0.1055555555555555,0,0,0.1055555555555555,428.02777777777754,0)" xlink:href="#ap"/><use transform="matrix(0.1055555555555555,0,0,0.1055555555555555,459.5888888888886,0)" xlink:href="#aq"/><use transform="matrix(0.1055555555555555,0,0,0.1055555555555555,480.69999999999976,0)" xlink:href="#ar"/><use transform="matrix(0.1055555555555555,0,0,0.1055555555555555,501.81111111111073,0)" xlink:href="#as"/><use transform="matrix(0.1055555555555555,0,0,0.1055555555555555,522.9222222222219,0)" xlink:href="#at"/></g><g id="m"><use transform="matrix(0.09938271604938267,0,0,0.09938271604938267,0,0)" xlink:href="#au"/><use transform="matrix(0.09938271604938267,0,0,0.09938271604938267,25.740123456790112,0)" xlink:href="#av"/><use transform="matrix(0.09938271604938267,0,0,0.09938271604938267,45.616666666666646,0)" xlink:href="#aw"/><use transform="matrix(0.09938271604938267,0,0,0.09938271604938267,75.33209876543206,0)" xlink:href="#as"/><use transform="matrix(0.09938271604938267,0,0,0.09938271604938267,95.2086419753086,0)" xlink:href="#ar"/><use transform="matrix(0.09938271604938267,0,0,0.09938271604938267,115.08518518518511,0)" xlink:href="#aN"/><use transform="matrix(0.09938271604938267,0,0,0.09938271604938267,138.93703703703696,0)" xlink:href="#av"/><use transform="matrix(0.09938271604938267,0,0,0.09938271604938267,158.8135802469135,0)" xlink:href="#aC"/><use transform="matrix(0.09938271604938267,0,0,0.09938271604938267,176.70246913580237,0)" xlink:href="#aO"/><use transform="matrix(0.09938271604938267,0,0,0.09938271604938267,194.59135802469126,0)" xlink:href="#aM"/><use transform="matrix(0.09938271604938267,0,0,0.09938271604938267,214.46790123456782,0)" xlink:href="#aB"/><use transform="matrix(0.09938271604938267,0,0,0.09938271604938267,226.29444444444434,0)" xlink:href="#aq"/><use transform="matrix(0.09938271604938267,0,0,0.09938271604938267,246.1709876543209,0)" xlink:href="#aA"/><use transform="matrix(0.09938271604938267,0,0,0.09938271604938267,266.0475308641974,0)" xlink:href="#aL"/><use transform="matrix(0.09938271604938267,0,0,0.09938271604938267,285.924074074074,0)" xlink:href="#ar"/></g><path fill="#fff" d="M212-179c-10-28-35-45-73-45-59 0-87 40-87 99 0 60 29 101 89 101 43 0 62-24 78-52l27 14C228-24 195 4 139 4 59 4 22-46 18-125c-6-104 99-153 187-111 19 9 31 26 39 46" id="aP"/><path fill="#fff" d="M127-220V0H93v-220H8v-28h204v28h-85" id="aQ"/><g id="n"><use transform="matrix(0.07469135802469129,0,0,0.07469135802469129,0,0)" xlink:href="#aP"/><use transform="matrix(0.07469135802469129,0,0,0.07469135802469129,19.345061728395045,0)" xlink:href="#aQ"/><use transform="matrix(0.07469135802469129,0,0,0.07469135802469129,35.70246913580244,0)" xlink:href="#ap"/><use transform="matrix(0.07469135802469129,0,0,0.07469135802469129,58.035185185185135,0)" xlink:href="#au"/><use transform="matrix(0.07469135802469129,0,0,0.07469135802469129,77.38024691358018,0)" xlink:href="#ax"/></g><g id="o"><use transform="matrix(0.07469135802469129,0,0,0.07469135802469129,0,0)" xlink:href="#aK"/><use transform="matrix(0.07469135802469129,0,0,0.07469135802469129,16.357407407407393,0)" xlink:href="#aN"/><use transform="matrix(0.07469135802469129,0,0,0.07469135802469129,34.2833333333333,0)" xlink:href="#ax"/><use transform="matrix(0.07469135802469129,0,0,0.07469135802469129,53.62839506172835,0)" xlink:href="#az"/></g><g id="p"><use transform="matrix(0.09938271604938267,0,0,0.09938271604938267,0,0)" xlink:href="#au"/><use transform="matrix(0.09938271604938267,0,0,0.09938271604938267,25.740123456790112,0)" xlink:href="#aq"/></g><g id="q"><use transform="matrix(0.09938271604938267,0,0,0.09938271604938267,0,0)" xlink:href="#ap"/><use transform="matrix(0.09938271604938267,0,0,0.09938271604938267,29.71543209876542,0)" xlink:href="#aq"/><use transform="matrix(0.09938271604938267,0,0,0.09938271604938267,49.59197530864195,0)" xlink:href="#ar"/><use transform="matrix(0.09938271604938267,0,0,0.09938271604938267,69.46851851851848,0)" xlink:href="#as"/><use transform="matrix(0.09938271604938267,0,0,0.09938271604938267,89.34506172839501,0)" xlink:href="#at"/></g><g id="r"><use transform="matrix(0.09938271604938267,0,0,0.09938271604938267,0,0)" xlink:href="#az"/><use transform="matrix(0.09938271604938267,0,0,0.09938271604938267,23.85185185185184,0)" xlink:href="#ay"/><use transform="matrix(0.09938271604938267,0,0,0.09938271604938267,33.790123456790106,0)" xlink:href="#av"/><use transform="matrix(0.09938271604938267,0,0,0.09938271604938267,53.66666666666664,0)" xlink:href="#ay"/><use transform="matrix(0.09938271604938267,0,0,0.09938271604938267,63.60493827160491,0)" xlink:href="#as"/></g><path fill="#fff" d="M106-169C34-169 62-67 57 0H25v-261h32l-1 103c12-21 28-36 61-36 89 0 53 116 60 194h-32v-121c2-32-8-49-39-48" id="aR"/><g id="s"><use transform="matrix(0.09938271604938267,0,0,0.09938271604938267,0,0)" xlink:href="#aQ"/><use transform="matrix(0.09938271604938267,0,0,0.09938271604938267,21.764814814814805,0)" xlink:href="#aR"/><use transform="matrix(0.09938271604938267,0,0,0.09938271604938267,41.64135802469134,0)" xlink:href="#as"/><use transform="matrix(0.09938271604938267,0,0,0.09938271604938267,61.51790123456787,0)" xlink:href="#aB"/><use transform="matrix(0.09938271604938267,0,0,0.09938271604938267,73.3444444444444,0)" xlink:href="#as"/></g><path fill="#fff" d="M33 0v-248h34V0H33" id="aS"/><g id="t"><use transform="matrix(0.09938271604938267,0,0,0.09938271604938267,0,0)" xlink:href="#aS"/><use transform="matrix(0.09938271604938267,0,0,0.09938271604938267,9.938271604938267,0)" xlink:href="#aH"/></g><path fill="#fff" d="M126-127c33 6 58 20 58 59 0 88-139 92-164 29-3-8-5-16-6-25l32-3c6 27 21 44 54 44 32 0 52-15 52-46 0-38-36-46-79-43v-28c39 1 72-4 72-42 0-27-17-43-46-43-28 0-47 15-49 41l-32-3c6-42 35-63 81-64 48-1 79 21 79 65 0 36-21 52-52 59" id="aT"/><use transform="matrix(0.07469135802469135,0,0,0.07469135802469135,0,0)" xlink:href="#aT" id="u"/><g id="v"><use transform="matrix(0.07469135802469135,0,0,0.07469135802469135,0,0)" xlink:href="#aK"/><use transform="matrix(0.07469135802469135,0,0,0.07469135802469135,16.357407407407404,0)" xlink:href="#aN"/><use transform="matrix(0.07469135802469135,0,0,0.07469135802469135,34.28333333333333,0)" xlink:href="#ax"/><use transform="matrix(0.07469135802469135,0,0,0.07469135802469135,53.6283950617284,0)" xlink:href="#az"/></g><path fill="#fff" d="M87 75C49 33 22-17 22-94c0-76 28-126 65-167h31c-38 41-64 92-64 168S80 34 118 75H87" id="aU"/><g id="w"><use transform="matrix(0.07469135802469135,0,0,0.07469135802469135,0,0)" xlink:href="#aU"/><use transform="matrix(0.07469135802469135,0,0,0.07469135802469135,8.88827160493827,0)" xlink:href="#aK"/><use transform="matrix(0.07469135802469135,0,0,0.07469135802469135,25.245679012345676,0)" xlink:href="#aA"/><use transform="matrix(0.07469135802469135,0,0,0.07469135802469135,40.18395061728394,0)" xlink:href="#aL"/><use transform="matrix(0.07469135802469135,0,0,0.07469135802469135,55.122222222222206,0)" xlink:href="#aC"/><use transform="matrix(0.07469135802469135,0,0,0.07469135802469135,68.56666666666665,0)" xlink:href="#ay"/><use transform="matrix(0.07469135802469135,0,0,0.07469135802469135,76.03580246913579,0)" xlink:href="#aE"/><use transform="matrix(0.07469135802469135,0,0,0.07469135802469135,81.93641975308638,0)" xlink:href="#aq"/><use transform="matrix(0.07469135802469135,0,0,0.07469135802469135,96.87469135802466,0)" xlink:href="#aL"/></g><g id="x"><use transform="matrix(0.07469135802469135,0,0,0.07469135802469135,0,0)" xlink:href="#aN"/><use transform="matrix(0.07469135802469135,0,0,0.07469135802469135,17.925925925925924,0)" xlink:href="#as"/><use transform="matrix(0.07469135802469135,0,0,0.07469135802469135,32.86419753086419,0)" xlink:href="#aJ"/><use transform="matrix(0.07469135802469135,0,0,0.07469135802469135,40.33333333333332,0)" xlink:href="#aq"/><use transform="matrix(0.07469135802469135,0,0,0.07469135802469135,55.271604938271594,0)" xlink:href="#aB"/><use transform="matrix(0.07469135802469135,0,0,0.07469135802469135,64.15987654320986,0)" xlink:href="#as"/></g><g id="y"><use transform="matrix(0.07469135802469135,0,0,0.07469135802469135,0,0)" xlink:href="#ax"/><use transform="matrix(0.07469135802469135,0,0,0.07469135802469135,19.34506172839506,0)" xlink:href="#av"/><use transform="matrix(0.07469135802469135,0,0,0.07469135802469135,34.28333333333333,0)" xlink:href="#ay"/><use transform="matrix(0.07469135802469135,0,0,0.07469135802469135,41.752469135802464,0)" xlink:href="#av"/></g><path fill="#fff" d="M33-261c38 41 65 92 65 168S71 34 33 75H2C39 34 66-17 66-93S39-220 2-261h31" id="aV"/><g id="z"><use transform="matrix(0.07469135802469135,0,0,0.07469135802469135,0,0)" xlink:href="#az"/><use transform="matrix(0.07469135802469135,0,0,0.07469135802469135,17.925925925925924,0)" xlink:href="#aq"/><use transform="matrix(0.07469135802469135,0,0,0.07469135802469135,32.86419753086419,0)" xlink:href="#aA"/><use transform="matrix(0.07469135802469135,0,0,0.07469135802469135,47.802469135802454,0)" xlink:href="#aB"/><use transform="matrix(0.07469135802469135,0,0,0.07469135802469135,56.69074074074072,0)" xlink:href="#aC"/><use transform="matrix(0.07469135802469135,0,0,0.07469135802469135,70.13518518518516,0)" xlink:href="#as"/><use transform="matrix(0.07469135802469135,0,0,0.07469135802469135,85.07345679012343,0)" xlink:href="#aV"/></g><path fill="#fff" d="M16-82v-28h88v28H16" id="aW"/><use transform="matrix(0.07469135802469135,0,0,0.07469135802469135,0,0)" xlink:href="#aW" id="A"/><path fill="#fff" d="M115-194c53 0 69 39 70 98 0 66-23 100-70 100C84 3 66-7 56-30L54 0H23l1-261h32v101c10-23 28-34 59-34zm-8 174c40 0 45-34 45-75 0-40-5-75-45-74-42 0-51 32-51 76 0 43 10 73 51 73" id="aX"/><g id="B"><use transform="matrix(0.07469135802469135,0,0,0.07469135802469135,0,0)" xlink:href="#aX"/><use transform="matrix(0.07469135802469135,0,0,0.07469135802469135,14.938271604938269,0)" xlink:href="#as"/><use transform="matrix(0.07469135802469135,0,0,0.07469135802469135,29.876543209876537,0)" xlink:href="#aJ"/><use transform="matrix(0.07469135802469135,0,0,0.07469135802469135,37.34567901234567,0)" xlink:href="#aq"/><use transform="matrix(0.07469135802469135,0,0,0.07469135802469135,52.283950617283935,0)" xlink:href="#aB"/><use transform="matrix(0.07469135802469135,0,0,0.07469135802469135,61.1722222222222,0)" xlink:href="#as"/></g><g id="C"><use transform="matrix(0.07469135802469135,0,0,0.07469135802469135,0,0)" xlink:href="#aH"/><use transform="matrix(0.07469135802469135,0,0,0.07469135802469135,13.444444444444443,0)" xlink:href="#as"/><use transform="matrix(0.07469135802469135,0,0,0.07469135802469135,28.38271604938271,0)" xlink:href="#aL"/><use transform="matrix(0.07469135802469135,0,0,0.07469135802469135,43.32098765432098,0)" xlink:href="#ar"/><use transform="matrix(0.07469135802469135,0,0,0.07469135802469135,58.25925925925925,0)" xlink:href="#aE"/><use transform="matrix(0.07469135802469135,0,0,0.07469135802469135,64.15987654320986,0)" xlink:href="#aL"/><use transform="matrix(0.07469135802469135,0,0,0.07469135802469135,79.09814814814814,0)" xlink:href="#aM"/></g><g id="D"><use transform="matrix(0.07469135802469135,0,0,0.07469135802469135,0,0)" xlink:href="#ay"/><use transform="matrix(0.07469135802469135,0,0,0.07469135802469135,7.469135802469134,0)" xlink:href="#aR"/><use transform="matrix(0.07469135802469135,0,0,0.07469135802469135,22.407407407407405,0)" xlink:href="#as"/></g><g id="E"><use transform="matrix(0.07469135802469135,0,0,0.07469135802469135,0,0)" xlink:href="#aw"/><use transform="matrix(0.07469135802469135,0,0,0.07469135802469135,22.33271604938271,0)" xlink:href="#aq"/><use transform="matrix(0.07469135802469135,0,0,0.07469135802469135,37.270987654320976,0)" xlink:href="#ar"/><use transform="matrix(0.07469135802469135,0,0,0.07469135802469135,52.20925925925924,0)" xlink:href="#as"/><use transform="matrix(0.07469135802469135,0,0,0.07469135802469135,67.1475308641975,0)" xlink:href="#at"/></g><g id="F"><use transform="matrix(0.07469135802469135,0,0,0.07469135802469135,0,0)" xlink:href="#ay"/><use transform="matrix(0.07469135802469135,0,0,0.07469135802469135,7.469135802469134,0)" xlink:href="#aq"/></g><g id="G"><use transform="matrix(0.07469135802469135,0,0,0.07469135802469135,0,0)" xlink:href="#ar"/><use transform="matrix(0.07469135802469135,0,0,0.07469135802469135,14.938271604938269,0)" xlink:href="#av"/><use transform="matrix(0.07469135802469135,0,0,0.07469135802469135,29.876543209876537,0)" xlink:href="#ay"/><use transform="matrix(0.07469135802469135,0,0,0.07469135802469135,37.34567901234567,0)" xlink:href="#av"/></g><path fill="#fff" d="M68-38c1 34 0 65-14 84H32c9-13 17-26 17-46H33v-38h35" id="aY"/><g id="H"><use transform="matrix(0.07469135802469135,0,0,0.07469135802469135,0,0)" xlink:href="#aH"/><use transform="matrix(0.07469135802469135,0,0,0.07469135802469135,13.444444444444443,0)" xlink:href="#aq"/><use transform="matrix(0.07469135802469135,0,0,0.07469135802469135,28.38271604938271,0)" xlink:href="#aA"/><use transform="matrix(0.07469135802469135,0,0,0.07469135802469135,43.32098765432098,0)" xlink:href="#aB"/><use transform="matrix(0.07469135802469135,0,0,0.07469135802469135,52.20925925925925,0)" xlink:href="#aC"/><use transform="matrix(0.07469135802469135,0,0,0.07469135802469135,65.65370370370368,0)" xlink:href="#as"/><use transform="matrix(0.07469135802469135,0,0,0.07469135802469135,80.59197530864195,0)" xlink:href="#aY"/></g><path fill="#fff" d="M179-190L93 31C79 59 56 82 12 73V49c39 6 53-20 64-50L1-190h34L92-34l54-156h33" id="aZ"/><g id="I"><use transform="matrix(0.07469135802469135,0,0,0.07469135802469135,0,0)" xlink:href="#aZ"/><use transform="matrix(0.07469135802469135,0,0,0.07469135802469135,13.444444444444443,0)" xlink:href="#aq"/><use transform="matrix(0.07469135802469135,0,0,0.07469135802469135,28.38271604938271,0)" xlink:href="#aA"/></g><g id="J"><use transform="matrix(0.07469135802469135,0,0,0.07469135802469135,0,0)" xlink:href="#aC"/><use transform="matrix(0.07469135802469135,0,0,0.07469135802469135,13.444444444444443,0)" xlink:href="#av"/><use transform="matrix(0.07469135802469135,0,0,0.07469135802469135,28.38271604938271,0)" xlink:href="#aL"/></g><g id="K"><use transform="matrix(0.07469135802469135,0,0,0.07469135802469135,0,0)" xlink:href="#aC"/><use transform="matrix(0.07469135802469135,0,0,0.07469135802469135,13.444444444444443,0)" xlink:href="#av"/><use transform="matrix(0.07469135802469135,0,0,0.07469135802469135,28.38271604938271,0)" xlink:href="#at"/><use transform="matrix(0.07469135802469135,0,0,0.07469135802469135,34.28333333333333,0)" xlink:href="#aC"/><use transform="matrix(0.07469135802469135,0,0,0.07469135802469135,47.72777777777778,0)" xlink:href="#aA"/><use transform="matrix(0.07469135802469135,0,0,0.07469135802469135,62.66604938271604,0)" xlink:href="#at"/><use transform="matrix(0.07469135802469135,0,0,0.07469135802469135,68.56666666666666,0)" xlink:href="#av"/><use transform="matrix(0.07469135802469135,0,0,0.07469135802469135,83.50493827160493,0)" xlink:href="#ay"/><use transform="matrix(0.07469135802469135,0,0,0.07469135802469135,90.97407407407408,0)" xlink:href="#as"/></g><g id="L"><use transform="matrix(0.07469135802469135,0,0,0.07469135802469135,0,0)" xlink:href="#ay"/><use transform="matrix(0.07469135802469135,0,0,0.07469135802469135,7.469135802469134,0)" xlink:href="#aR"/><use transform="matrix(0.07469135802469135,0,0,0.07469135802469135,22.407407407407405,0)" xlink:href="#as"/></g><path fill="#fff" d="M115-194c55 1 70 41 70 98S169 2 115 4C84 4 66-9 55-30l1 105H24l-1-265h31l2 30c10-21 28-34 59-34zm-8 174c40 0 45-34 45-75s-6-73-45-74c-42 0-51 32-51 76 0 43 10 73 51 73" id="ba"/><g id="M"><use transform="matrix(0.07469135802469135,0,0,0.07469135802469135,0,0)" xlink:href="#ba"/><use transform="matrix(0.07469135802469135,0,0,0.07469135802469135,14.938271604938269,0)" xlink:href="#av"/><use transform="matrix(0.07469135802469135,0,0,0.07469135802469135,29.876543209876537,0)" xlink:href="#aB"/><use transform="matrix(0.07469135802469135,0,0,0.07469135802469135,38.764814814814805,0)" xlink:href="#av"/><use transform="matrix(0.07469135802469135,0,0,0.07469135802469135,53.70308641975308,0)" xlink:href="#aw"/><use transform="matrix(0.07469135802469135,0,0,0.07469135802469135,76.03580246913579,0)" xlink:href="#as"/><use transform="matrix(0.07469135802469135,0,0,0.07469135802469135,90.97407407407405,0)" xlink:href="#ay"/><use transform="matrix(0.07469135802469135,0,0,0.07469135802469135,98.4432098765432,0)" xlink:href="#as"/><use transform="matrix(0.07469135802469135,0,0,0.07469135802469135,113.38148148148146,0)" xlink:href="#aB"/><use transform="matrix(0.07469135802469135,0,0,0.07469135802469135,122.26975308641973,0)" xlink:href="#aH"/></g><g id="N"><use transform="matrix(0.07469135802469135,0,0,0.07469135802469135,0,0)" xlink:href="#av"/><use transform="matrix(0.07469135802469135,0,0,0.07469135802469135,14.938271604938269,0)" xlink:href="#aL"/><use transform="matrix(0.07469135802469135,0,0,0.07469135802469135,29.876543209876537,0)" xlink:href="#ar"/></g><g id="O"><use transform="matrix(0.07469135802469135,0,0,0.07469135802469135,0,0)" xlink:href="#aC"/><use transform="matrix(0.07469135802469135,0,0,0.07469135802469135,13.444444444444443,0)" xlink:href="#aR"/><use transform="matrix(0.07469135802469135,0,0,0.07469135802469135,28.38271604938271,0)" xlink:href="#as"/><use transform="matrix(0.07469135802469135,0,0,0.07469135802469135,43.32098765432098,0)" xlink:href="#aC"/><use transform="matrix(0.07469135802469135,0,0,0.07469135802469135,56.76543209876542,0)" xlink:href="#aO"/></g><g id="P"><use transform="matrix(0.07469135802469135,0,0,0.07469135802469135,0,0)" xlink:href="#ba"/><use transform="matrix(0.07469135802469135,0,0,0.07469135802469135,14.938271604938269,0)" xlink:href="#av"/><use transform="matrix(0.07469135802469135,0,0,0.07469135802469135,29.876543209876537,0)" xlink:href="#aB"/><use transform="matrix(0.07469135802469135,0,0,0.07469135802469135,38.764814814814805,0)" xlink:href="#av"/><use transform="matrix(0.07469135802469135,0,0,0.07469135802469135,53.70308641975308,0)" xlink:href="#aw"/><use transform="matrix(0.07469135802469135,0,0,0.07469135802469135,76.03580246913579,0)" xlink:href="#as"/><use transform="matrix(0.07469135802469135,0,0,0.07469135802469135,90.97407407407405,0)" xlink:href="#ay"/><use transform="matrix(0.07469135802469135,0,0,0.07469135802469135,98.4432098765432,0)" xlink:href="#as"/><use transform="matrix(0.07469135802469135,0,0,0.07469135802469135,113.38148148148146,0)" xlink:href="#aB"/></g><path fill="#fff" d="M108 0H70L1-190h34L89-25l56-165h34" id="bb"/><g id="Q"><use transform="matrix(0.07469135802469135,0,0,0.07469135802469135,0,0)" xlink:href="#aM"/><use transform="matrix(0.07469135802469135,0,0,0.07469135802469135,14.938271604938269,0)" xlink:href="#aE"/><use transform="matrix(0.07469135802469135,0,0,0.07469135802469135,20.838888888888885,0)" xlink:href="#bb"/><use transform="matrix(0.07469135802469135,0,0,0.07469135802469135,34.28333333333333,0)" xlink:href="#as"/></g><g id="R"><use transform="matrix(0.07469135802469135,0,0,0.07469135802469135,0,0)" xlink:href="#av"/><use transform="matrix(0.07469135802469135,0,0,0.07469135802469135,14.938271604938269,0)" xlink:href="#aL"/></g><g id="S"><use transform="matrix(0.07469135802469135,0,0,0.07469135802469135,0,0)" xlink:href="#as"/><use transform="matrix(0.07469135802469135,0,0,0.07469135802469135,14.938271604938269,0)" xlink:href="#aB"/><use transform="matrix(0.07469135802469135,0,0,0.07469135802469135,23.82654320987654,0)" xlink:href="#aB"/><use transform="matrix(0.07469135802469135,0,0,0.07469135802469135,32.71481481481481,0)" xlink:href="#aq"/><use transform="matrix(0.07469135802469135,0,0,0.07469135802469135,47.65308641975308,0)" xlink:href="#aB"/></g><g id="T"><use transform="matrix(0.07469135802469135,0,0,0.07469135802469135,0,0)" xlink:href="#aE"/><use transform="matrix(0.07469135802469135,0,0,0.07469135802469135,5.900617283950616,0)" xlink:href="#aJ"/></g><g id="U"><use transform="matrix(0.07469135802469135,0,0,0.07469135802469135,0,0)" xlink:href="#aE"/><use transform="matrix(0.07469135802469135,0,0,0.07469135802469135,5.900617283950616,0)" xlink:href="#ay"/></g><g id="V"><use transform="matrix(0.07469135802469135,0,0,0.07469135802469135,0,0)" xlink:href="#ar"/><use transform="matrix(0.07469135802469135,0,0,0.07469135802469135,14.938271604938269,0)" xlink:href="#aq"/><use transform="matrix(0.07469135802469135,0,0,0.07469135802469135,29.876543209876537,0)" xlink:href="#as"/><use transform="matrix(0.07469135802469135,0,0,0.07469135802469135,44.81481481481481,0)" xlink:href="#aH"/></g><g id="W"><use transform="matrix(0.07469135802469135,0,0,0.07469135802469135,0,0)" xlink:href="#aL"/><use transform="matrix(0.07469135802469135,0,0,0.07469135802469135,14.938271604938269,0)" xlink:href="#aq"/><use transform="matrix(0.07469135802469135,0,0,0.07469135802469135,29.876543209876537,0)" xlink:href="#ay"/></g><g id="X"><use transform="matrix(0.07469135802469135,0,0,0.07469135802469135,0,0)" xlink:href="#aw"/><use transform="matrix(0.07469135802469135,0,0,0.07469135802469135,22.33271604938271,0)" xlink:href="#av"/><use transform="matrix(0.07469135802469135,0,0,0.07469135802469135,37.270987654320976,0)" xlink:href="#ay"/><use transform="matrix(0.07469135802469135,0,0,0.07469135802469135,44.74012345679011,0)" xlink:href="#aC"/><use transform="matrix(0.07469135802469135,0,0,0.07469135802469135,58.18456790123455,0)" xlink:href="#aR"/><use transform="matrix(0.07469135802469135,0,0,0.07469135802469135,73.12283950617282,0)" xlink:href="#aY"/></g><g id="Y"><use transform="matrix(0.07469135802469135,0,0,0.07469135802469135,0,0)" xlink:href="#ay"/><use transform="matrix(0.07469135802469135,0,0,0.07469135802469135,7.469135802469134,0)" xlink:href="#aR"/><use transform="matrix(0.07469135802469135,0,0,0.07469135802469135,22.407407407407405,0)" xlink:href="#as"/><use transform="matrix(0.07469135802469135,0,0,0.07469135802469135,37.34567901234567,0)" xlink:href="#aB"/><use transform="matrix(0.07469135802469135,0,0,0.07469135802469135,46.23395061728394,0)" xlink:href="#as"/><use transform="matrix(0.07469135802469135,0,0,0.07469135802469135,61.1722222222222,0)" xlink:href="#aX"/><use transform="matrix(0.07469135802469135,0,0,0.07469135802469135,76.11049382716047,0)" xlink:href="#aZ"/></g><g id="Z"><use transform="matrix(0.07469135802469135,0,0,0.07469135802469135,0,0)" xlink:href="#aE"/><use transform="matrix(0.07469135802469135,0,0,0.07469135802469135,5.900617283950616,0)" xlink:href="#aL"/><use transform="matrix(0.07469135802469135,0,0,0.07469135802469135,20.838888888888885,0)" xlink:href="#ay"/><use transform="matrix(0.07469135802469135,0,0,0.07469135802469135,28.30802469135802,0)" xlink:href="#as"/><use transform="matrix(0.07469135802469135,0,0,0.07469135802469135,43.2462962962963,0)" xlink:href="#aB"/><use transform="matrix(0.07469135802469135,0,0,0.07469135802469135,52.13456790123456,0)" xlink:href="#aB"/><use transform="matrix(0.07469135802469135,0,0,0.07469135802469135,61.02283950617283,0)" xlink:href="#aA"/><use transform="matrix(0.07469135802469135,0,0,0.07469135802469135,75.9611111111111,0)" xlink:href="#ba"/><use transform="matrix(0.07469135802469135,0,0,0.07469135802469135,90.89938271604937,0)" xlink:href="#ay"/><use transform="matrix(0.07469135802469135,0,0,0.07469135802469135,98.3685185185185,0)" xlink:href="#aE"/><use transform="matrix(0.07469135802469135,0,0,0.07469135802469135,104.26913580246912,0)" xlink:href="#aL"/><use transform="matrix(0.07469135802469135,0,0,0.07469135802469135,119.20740740740739,0)" xlink:href="#aM"/></g><g id="aa"><use transform="matrix(0.07469135802469135,0,0,0.07469135802469135,0,0)" xlink:href="#aq"/><use transform="matrix(0.07469135802469135,0,0,0.07469135802469135,14.938271604938269,0)" xlink:href="#aJ"/></g><g id="ab"><use transform="matrix(0.07469135802469135,0,0,0.07469135802469135,0,0)" xlink:href="#aH"/><use transform="matrix(0.07469135802469135,0,0,0.07469135802469135,13.444444444444443,0)" xlink:href="#aq"/><use transform="matrix(0.07469135802469135,0,0,0.07469135802469135,28.38271604938271,0)" xlink:href="#aA"/><use transform="matrix(0.07469135802469135,0,0,0.07469135802469135,43.32098765432098,0)" xlink:href="#aB"/><use transform="matrix(0.07469135802469135,0,0,0.07469135802469135,52.20925925925925,0)" xlink:href="#aC"/><use transform="matrix(0.07469135802469135,0,0,0.07469135802469135,65.65370370370368,0)" xlink:href="#as"/></g><g id="ac"><use transform="matrix(0.07469135802469135,0,0,0.07469135802469135,0,0)" xlink:href="#aP"/><use transform="matrix(0.07469135802469135,0,0,0.07469135802469135,19.34506172839506,0)" xlink:href="#aQ"/><use transform="matrix(0.07469135802469135,0,0,0.07469135802469135,35.70246913580246,0)" xlink:href="#ap"/><use transform="matrix(0.07469135802469135,0,0,0.07469135802469135,58.03518518518517,0)" xlink:href="#au"/><use transform="matrix(0.07469135802469135,0,0,0.07469135802469135,77.38024691358024,0)" xlink:href="#ax"/></g><g id="ad"><use transform="matrix(0.07469135802469135,0,0,0.07469135802469135,0,0)" xlink:href="#aU"/><use transform="matrix(0.07469135802469135,0,0,0.07469135802469135,8.88827160493827,0)" xlink:href="#aP"/><use transform="matrix(0.07469135802469135,0,0,0.07469135802469135,28.233333333333327,0)" xlink:href="#aq"/><use transform="matrix(0.07469135802469135,0,0,0.07469135802469135,43.1716049382716,0)" xlink:href="#aL"/><use transform="matrix(0.07469135802469135,0,0,0.07469135802469135,58.109876543209865,0)" xlink:href="#bb"/><use transform="matrix(0.07469135802469135,0,0,0.07469135802469135,71.55432098765431,0)" xlink:href="#as"/><use transform="matrix(0.07469135802469135,0,0,0.07469135802469135,86.49259259259257,0)" xlink:href="#aB"/><use transform="matrix(0.07469135802469135,0,0,0.07469135802469135,95.38086419753085,0)" xlink:href="#ay"/><use transform="matrix(0.07469135802469135,0,0,0.07469135802469135,102.84999999999998,0)" xlink:href="#as"/><use transform="matrix(0.07469135802469135,0,0,0.07469135802469135,117.78827160493825,0)" xlink:href="#aB"/></g><g id="ae"><use transform="matrix(0.07469135802469135,0,0,0.07469135802469135,0,0)" xlink:href="#aQ"/><use transform="matrix(0.07469135802469135,0,0,0.07469135802469135,13.36975308641975,0)" xlink:href="#aq"/></g><g id="af"><use transform="matrix(0.07469135802469135,0,0,0.07469135802469135,0,0)" xlink:href="#ap"/><use transform="matrix(0.07469135802469135,0,0,0.07469135802469135,22.33271604938271,0)" xlink:href="#aq"/><use transform="matrix(0.07469135802469135,0,0,0.07469135802469135,37.270987654320976,0)" xlink:href="#ar"/><use transform="matrix(0.07469135802469135,0,0,0.07469135802469135,52.20925925925924,0)" xlink:href="#as"/><use transform="matrix(0.07469135802469135,0,0,0.07469135802469135,67.1475308641975,0)" xlink:href="#at"/></g><g id="ag"><use transform="matrix(0.07469135802469135,0,0,0.07469135802469135,0,0)" xlink:href="#au"/><use transform="matrix(0.07469135802469135,0,0,0.07469135802469135,19.34506172839506,0)" xlink:href="#av"/><use transform="matrix(0.07469135802469135,0,0,0.07469135802469135,34.28333333333333,0)" xlink:href="#aw"/><use transform="matrix(0.07469135802469135,0,0,0.07469135802469135,56.61604938271604,0)" xlink:href="#as"/><use transform="matrix(0.07469135802469135,0,0,0.07469135802469135,71.55432098765431,0)" xlink:href="#ar"/></g><g id="ah"><use transform="matrix(0.07469135802469135,0,0,0.07469135802469135,0,0)" xlink:href="#ax"/><use transform="matrix(0.07469135802469135,0,0,0.07469135802469135,19.34506172839506,0)" xlink:href="#av"/><use transform="matrix(0.07469135802469135,0,0,0.07469135802469135,34.28333333333333,0)" xlink:href="#ay"/><use transform="matrix(0.07469135802469135,0,0,0.07469135802469135,41.752469135802464,0)" xlink:href="#av"/><use transform="matrix(0.07469135802469135,0,0,0.07469135802469135,56.690740740740736,0)" xlink:href="#aX"/><use transform="matrix(0.07469135802469135,0,0,0.07469135802469135,71.629012345679,0)" xlink:href="#av"/><use transform="matrix(0.07469135802469135,0,0,0.07469135802469135,86.56728395061727,0)" xlink:href="#aH"/><use transform="matrix(0.07469135802469135,0,0,0.07469135802469135,100.01172839506171,0)" xlink:href="#as"/><use transform="matrix(0.07469135802469135,0,0,0.07469135802469135,114.94999999999997,0)" xlink:href="#aV"/></g><g id="ai"><use transform="matrix(0.07469135802469135,0,0,0.07469135802469135,0,0)" xlink:href="#aC"/><use transform="matrix(0.07469135802469135,0,0,0.07469135802469135,13.444444444444443,0)" xlink:href="#aq"/><use transform="matrix(0.07469135802469135,0,0,0.07469135802469135,28.38271604938271,0)" xlink:href="#aL"/><use transform="matrix(0.07469135802469135,0,0,0.07469135802469135,43.32098765432098,0)" xlink:href="#bb"/><use transform="matrix(0.07469135802469135,0,0,0.07469135802469135,56.76543209876542,0)" xlink:href="#as"/><use transform="matrix(0.07469135802469135,0,0,0.07469135802469135,71.7037037037037,0)" xlink:href="#aB"/><use transform="matrix(0.07469135802469135,0,0,0.07469135802469135,80.59197530864196,0)" xlink:href="#ay"/><use transform="matrix(0.07469135802469135,0,0,0.07469135802469135,88.0611111111111,0)" xlink:href="#aH"/></g><g id="aj"><use transform="matrix(0.07469135802469135,0,0,0.07469135802469135,0,0)" xlink:href="#aJ"/><use transform="matrix(0.07469135802469135,0,0,0.07469135802469135,7.469135802469134,0)" xlink:href="#aB"/><use transform="matrix(0.07469135802469135,0,0,0.07469135802469135,16.357407407407404,0)" xlink:href="#aq"/><use transform="matrix(0.07469135802469135,0,0,0.07469135802469135,31.295679012345673,0)" xlink:href="#aw"/></g><g id="ak"><use transform="matrix(0.07469135802469135,0,0,0.07469135802469135,0,0)" xlink:href="#ar"/><use transform="matrix(0.07469135802469135,0,0,0.07469135802469135,14.938271604938269,0)" xlink:href="#aq"/><use transform="matrix(0.07469135802469135,0,0,0.07469135802469135,29.876543209876537,0)" xlink:href="#aw"/><use transform="matrix(0.07469135802469135,0,0,0.07469135802469135,52.20925925925925,0)" xlink:href="#av"/><use transform="matrix(0.07469135802469135,0,0,0.07469135802469135,67.14753086419752,0)" xlink:href="#aE"/><use transform="matrix(0.07469135802469135,0,0,0.07469135802469135,73.04814814814813,0)" xlink:href="#aL"/></g><g id="al"><use transform="matrix(0.07469135802469135,0,0,0.07469135802469135,0,0)" xlink:href="#aL"/><use transform="matrix(0.07469135802469135,0,0,0.07469135802469135,14.938271604938269,0)" xlink:href="#av"/><use transform="matrix(0.07469135802469135,0,0,0.07469135802469135,29.876543209876537,0)" xlink:href="#aw"/><use transform="matrix(0.07469135802469135,0,0,0.07469135802469135,52.20925925925925,0)" xlink:href="#as"/><use transform="matrix(0.07469135802469135,0,0,0.07469135802469135,67.14753086419752,0)" xlink:href="#ar"/></g><g id="am"><use transform="matrix(0.07469135802469135,0,0,0.07469135802469135,0,0)" xlink:href="#ar"/><use transform="matrix(0.07469135802469135,0,0,0.07469135802469135,14.938271604938269,0)" xlink:href="#av"/><use transform="matrix(0.07469135802469135,0,0,0.07469135802469135,29.876543209876537,0)" xlink:href="#ay"/><use transform="matrix(0.07469135802469135,0,0,0.07469135802469135,37.34567901234567,0)" xlink:href="#av"/><use transform="matrix(0.07469135802469135,0,0,0.07469135802469135,52.283950617283935,0)" xlink:href="#aX"/><use transform="matrix(0.07469135802469135,0,0,0.07469135802469135,67.2222222222222,0)" xlink:href="#av"/><use transform="matrix(0.07469135802469135,0,0,0.07469135802469135,82.16049382716047,0)" xlink:href="#aH"/><use transform="matrix(0.07469135802469135,0,0,0.07469135802469135,95.60493827160491,0)" xlink:href="#as"/></g><path fill="#fff" d="M101-251c82-7 93 87 43 132L82-64C71-53 59-42 53-27h129V0H18c2-99 128-94 128-182 0-28-16-43-45-43s-46 15-49 41l-32-3c6-41 34-60 81-64" id="bc"/><use transform="matrix(0.07469135802469135,0,0,0.07469135802469135,0,0)" xlink:href="#bc" id="an"/><path fill="#fff" d="M27 0v-27h64v-190l-56 39v-29l58-41h29v221h61V0H27" id="bd"/><use transform="matrix(0.07469135802469135,0,0,0.07469135802469135,0,0)" xlink:href="#bd" id="ao"/></defs></g></svg>