<svg xmlns="http://www.w3.org/2000/svg" xmlns:xlink="http://www.w3.org/1999/xlink" width="1127"
    height="1000"><g transform="translate(-277 -100)"><path d="M0 0h1870.87v1322.83H0z" fill="#1f1f1f"/><path d="M760 146a6 6 0 0 1 6-6h308a6 6 0 0 1 6 6v108a6 6 0 0 1-6 6H766a6 6 0 0 1-6-6z" stroke="#9e66e4" stroke-width="2" fill="#bb86fc"/><use xlink:href="#a" transform="matrix(1,0,0,1,771.9999999999999,152) translate(-2.152469135802477 53.37777777777778)"/><path d="M760 526a6 6 0 0 1 6-6h308a6 6 0 0 1 6 6v108a6 6 0 0 1-6 6H766a6 6 0 0 1-6-6z" stroke="#9e66e4" stroke-width="2" fill="#bb86fc"/><use xlink:href="#b" transform="matrix(1,0,0,1,772,532) translate(2.912037037037038 54.511111111111106)"/><path d="M921.5 517.54h-3V498.8h3zm0-51h-3V281.57h3z" stroke="#03dac6" stroke-width=".05" fill="#03dac6"/><path d="M921.5 519.04h-3v-1.54h3z" fill="#03dac6"/><path d="M921.52 519.06h-3.04v-1.6h3.04zm-3-1.54v1.5h2.96v-1.5z" stroke="#03dac6" stroke-width=".05" fill="#03dac6"/><path d="M924.64 280.08h-9.28l4.64-14.26z" fill="#03dac6"/><path d="M926.7 281.58h-13.4l6.7-20.62zm-9.27-3h5.14l-2.57-7.9z" stroke="#03dac6" stroke-width=".05" fill="#03dac6"/><use xlink:href="#c" transform="matrix(1,0,0,1,912.5308641975308,466.53334533941853) translate(0 21.511111111111106)"/><path d="M1080 370.8c0 34.9-31.34 63.2-70 63.2s-70-28.3-70-63.2c0-34.9 31.34-63.2 70-63.2s70 28.3 70 63.2z" stroke="#9e66e4" stroke-width="2" fill="#bb86fc"/><use xlink:href="#d" transform="matrix(1,0,0,1,944.9999999999998,312.6) translate(23.28987654320989 29.521111111111104)"/><use xlink:href="#e" transform="matrix(1,0,0,1,944.9999999999998,312.6) translate(9.593518518518529 61.78777777777776)"/><use xlink:href="#f" transform="matrix(1,0,0,1,944.9999999999998,312.6) translate(26.20283950617284 94.05444444444443)"/><path d="M1014.45 517.5h-3v-14.54h3zm-.6-46.8h-3l-.04-15.16h3z" stroke="#03dac6" stroke-width=".05" fill="#03dac6"/><path d="M1014.45 519h-3v-1.52h3z" fill="#03dac6"/><path d="M1014.48 519.04h-3.05v-1.6h3.05zm-3-1.54v1.5h2.95v-1.5z" stroke="#03dac6" stroke-width=".05" fill="#03dac6"/><path d="M1016.95 454.04h-9.27l4.63-14.27z" fill="#03dac6"/><path d="M1019 455.54h-13.4l6.7-20.62zm-9.26-3h5.14l-2.57-7.9z" stroke="#03dac6" stroke-width=".05" fill="#03dac6"/><use xlink:href="#g" transform="matrix(1,0,0,1,1005.4831545400933,470.692930004849) translate(0 21.511111111111106)"/><path d="M886.86 370.8c0 34.9-31.34 63.2-70 63.2s-70-28.3-70-63.2c0-34.9 31.34-63.2 70-63.2s70 28.3 70 63.2z" stroke="#9e66e4" stroke-width="2" fill="#bb86fc"/><use xlink:href="#h" transform="matrix(1,0,0,1,751.8586079664386,312.6) translate(26.314876543209877 47.104861111111106)"/><use xlink:href="#f" transform="matrix(1,0,0,1,751.8586079664386,312.6) translate(26.202839506172836 79.37152777777777)"/><path d="M816.36 517.56h-3v-12.1h3zm0-44.36h-3v-17.65h3z" stroke="#03dac6" stroke-width=".05" fill="#03dac6"/><path d="M816.36 519.06h-3v-1.54h3z" fill="#03dac6"/><path d="M816.38 519.1h-3.05v-1.6h3.05zm-3-1.55v1.5h2.95v-1.5z" stroke="#03dac6" stroke-width=".05" fill="#03dac6"/><path d="M819.5 454.05h-9.28l4.64-14.27z" fill="#03dac6"/><path d="M821.56 455.55h-13.4l6.7-20.62zm-9.27-3h5.13l-2.57-7.9z" stroke="#03dac6" stroke-width=".05" fill="#03dac6"/><use xlink:href="#i" transform="matrix(1,0,0,1,807.3879369978298,473.1999138446924) translate(0 21.511111111111106)"/><path d="M230.5 299a.5.5 0 0 1 .5-.5h1478a.5.5 0 0 1 .5.5.5.5 0 0 1-.5.5H231a.5.5 0 0 1-.5-.5z" stroke="#e81313" fill="none"/><path d="M1360 580c0 33.14-26.86 60-60 60s-60-26.86-60-60 26.86-60 60-60 60 26.86 60 60z" stroke="#9e66e4" stroke-width="2" fill="#bb86fc"/><use xlink:href="#j" transform="matrix(1,0,0,1,1245,525) translate(18.48092592592593 45.573611111111106)"/><use xlink:href="#f" transform="matrix(1,0,0,1,1245,525) translate(16.202839506172836 77.84027777777777)"/><path d="M1128.6 581.5h-46.14v-3h46.15zm89.78 0h-27.03v-3h27.03z" stroke="#03dac6" stroke-width=".05" fill="#03dac6"/><path d="M1082.5 581.5h-1.54v-3h1.54z" fill="#03dac6"/><path d="M1082.53 581.52h-1.6v-3.04h1.6zm-1.54-3v2.96h1.48v-2.96z" stroke="#03dac6" stroke-width=".05" fill="#03dac6"/><path d="M1234.15 580l-14.27 4.64v-9.28z" fill="#03dac6"/><path d="M1239 580l-20.62 6.7v-13.4zm-17.62 2.57l7.9-2.57-7.9-2.57z" stroke="#03dac6" stroke-width=".05" fill="#03dac6"/><use xlink:href="#k" transform="matrix(1,0,0,1,1128.6109884338432,563.8666666666667) translate(0 21.511111111111106)"/><path d="M760 526a6 6 0 0 1 6-6h137.02a6 6 0 0 1 6 6v28a6 6 0 0 1-6 6H766a6 6 0 0 1-6-6z" stroke="#282c33" stroke-width="2" fill="#bb86fc"/><use xlink:href="#l" transform="matrix(1,0,0,1,772,532) translate(0.1987654320987957 16.17777777777777)"/><use xlink:href="#m" transform="matrix(1,0,0,1,772,532) translate(60.75308641975308 16.17777777777777)"/><path d="M710 746a6 6 0 0 1 6-6h408a6 6 0 0 1 6 6v108a6 6 0 0 1-6 6H716a6 6 0 0 1-6-6z" stroke="#9e66e4" stroke-width="2" fill="#bb86fc"/><use xlink:href="#n" transform="matrix(1,0,0,1,722,752) translate(5.483024691357997 54.511111111111106)"/><path d="M920 737.54v-75.96" stroke="#03dac6" stroke-width="3" fill="none"/><path d="M921.5 739.04h-3v-1.54h3z" stroke="#03dac6" stroke-width=".05" fill="#03dac6"/><path d="M920 645.82l4.64 14.26h-9.28z" stroke="#03dac6" stroke-width="3" fill="#03dac6"/><path d="M780 946a6 6 0 0 1 6-6h248a6 6 0 0 1 6 6v108a6 6 0 0 1-6 6H786a6 6 0 0 1-6-6z" stroke="#9e66e4" stroke-width="2" fill="#bb86fc"/><use xlink:href="#o" transform="matrix(1,0,0,1,792,952) translate(45.960185185185196 54.511111111111106)"/><path d="M910 937.54v-55.96" stroke="#03dac6" stroke-width="3" fill="none"/><path d="M911.5 939.04h-3v-1.54h3z" stroke="#03dac6" stroke-width=".05" fill="#03dac6"/><path d="M910 865.82l4.64 14.26h-9.28z" stroke="#03dac6" stroke-width="3" fill="#03dac6"/><path d="M303.16 809.6a9.67 9.67 0 0 1 0-10.2l33.68-54.3A10.78 10.78 0 0 1 346 740h68a10.78 10.78 0 0 1 9.16 5.1l33.68 54.3a9.67 9.67 0 0 1 0 10.2l-33.68 54.3A10.78 10.78 0 0 1 414 869h-68a10.78 10.78 0 0 1-9.16-5.1z" stroke="#9e66e4" stroke-width="2" fill="#bb86fc"/><use xlink:href="#p" transform="matrix(1,0,0,1,305,745) translate(46.696975308641974 47.542361111111106)"/><use xlink:href="#q" transform="matrix(1,0,0,1,305,745) translate(32.54296296296297 79.80902777777777)"/><path d="M528.92 801.5h-50v-3h50zm178.62 0h-10.4v-3h10.4z" stroke="#03dac6" stroke-width=".05" fill="#03dac6"/><path d="M709.04 801.5h-1.54v-3h1.54z" fill="#03dac6"/><path d="M709.06 801.52h-1.6v-3.04h1.6zm-1.54-3v2.96h1.5v-2.96z" stroke="#03dac6" stroke-width=".05" fill="#03dac6"/><path d="M477.4 804.64L463.16 800l14.26-4.64z" fill="#03dac6"/><path d="M478.9 806.7l-20.6-6.7 20.6-6.7zM468 800l7.9 2.57v-5.14z" stroke="#03dac6" stroke-width=".05" fill="#03dac6"/><use xlink:href="#r" transform="matrix(1,0,0,1,528.9214977353695,786.5333333333333) translate(0 17.95555555555555)"/><use xlink:href="#s" transform="matrix(1,0,0,1,528.9214977353695,786.5333333333333) translate(82.23395061728391 17.95555555555555)"/><path d="M380 737.53V586a6 6 0 0 1 6-6h352.42" stroke="#03dac6" stroke-width="3" fill="none"/><path d="M381.5 739.03h-3v-1.54h3z" stroke="#03dac6" stroke-width=".05" fill="#03dac6"/><path d="M754.18 580l-14.26 4.64v-9.28z" stroke="#03dac6" stroke-width="3" fill="#03dac6"/><path d="M360 178.87a6 6 0 0 1 6-6h228a6 6 0 0 1 6 6v62.26a6 6 0 0 1-6 6H366a6 6 0 0 1-6-6z" stroke="#000" stroke-opacity="0" stroke-width="2" fill="#fff" fill-opacity="0"/><g><use xlink:href="#t" transform="matrix(1,0,0,1,365,177.8666666666667) translate(3.5746913580248503 44.875694444444385)"/></g><path d="M340 333.6a6 6 0 0 1 6-6h228a6 6 0 0 1 6 6v126.53a6 6 0 0 1-6 6H346a6 6 0 0 1-6-6z" stroke="#000" stroke-opacity="0" stroke-width="2" fill="#fff" fill-opacity="0"/><g><use xlink:href="#u" transform="matrix(1,0,0,1,345,332.6000000000001) translate(80.85833333333338 42.844444444444385)"/><use xlink:href="#v" transform="matrix(1,0,0,1,345,332.6000000000001) translate(3.5746913580248503 107.11111111111097)"/></g><defs><path fill="#fff" d="M240 0l2-218c-23 76-54 145-80 218h-23L58-218 59 0H30v-248h44l77 211c21-75 51-140 76-211h43V0h-30" id="w"/><path fill="#fff" d="M100-194c62-1 85 37 85 99 1 63-27 99-86 99S16-35 15-95c0-66 28-99 85-99zM99-20c44 1 53-31 53-75 0-43-8-75-51-75s-53 32-53 75 10 74 51 75" id="x"/><path fill="#fff" d="M85-194c31 0 48 13 60 33l-1-100h32l1 261h-30c-2-10 0-23-3-31C134-8 116 4 85 4 32 4 16-35 15-94c0-66 23-100 70-100zm9 24c-40 0-46 34-46 75 0 40 6 74 45 74 42 0 51-32 51-76 0-42-9-74-50-73" id="y"/><path fill="#fff" d="M100-194c63 0 86 42 84 106H49c0 40 14 67 53 68 26 1 43-12 49-29l28 8c-11 28-37 45-77 45C44 4 14-33 15-96c1-61 26-98 85-98zm52 81c6-60-76-77-97-28-3 7-6 17-6 28h103" id="z"/><path fill="#fff" d="M24 0v-261h32V0H24" id="A"/><path fill="#fff" d="M190 0L58-211 59 0H30v-248h39L202-35l-2-213h31V0h-41" id="B"/><path fill="#fff" d="M141-36C126-15 110 5 73 4 37 3 15-17 15-53c-1-64 63-63 125-63 3-35-9-54-41-54-24 1-41 7-42 31l-33-3c5-37 33-52 76-52 45 0 72 20 72 64v82c-1 20 7 32 28 27v20c-31 9-61-2-59-35zM48-53c0 20 12 33 32 33 41-3 63-29 60-74-43 2-92-5-92 41" id="C"/><path fill="#fff" d="M210-169c-67 3-38 105-44 169h-31v-121c0-29-5-50-35-48C34-165 62-65 56 0H25l-1-190h30c1 10-1 24 2 32 10-44 99-50 107 0 11-21 27-35 58-36 85-2 47 119 55 194h-31v-121c0-29-5-49-35-48" id="D"/><path fill="#fff" d="M30-248c118-7 216 8 213 122C240-48 200 0 122 0H30v-248zM63-27c89 8 146-16 146-99s-60-101-146-95v194" id="E"/><path fill="#fff" d="M59-47c-2 24 18 29 38 22v24C64 9 27 4 27-40v-127H5v-23h24l9-43h21v43h35v23H59v120" id="F"/><path fill="#fff" d="M185-189c-5-48-123-54-124 2 14 75 158 14 163 119 3 78-121 87-175 55-17-10-28-26-33-46l33-7c5 56 141 63 141-1 0-78-155-14-162-118-5-82 145-84 179-34 5 7 8 16 11 25" id="G"/><path fill="#fff" d="M84 4C-5 8 30-112 23-190h32v120c0 31 7 50 39 49 72-2 45-101 50-169h31l1 190h-30c-1-10 1-25-2-33-11 22-28 36-60 37" id="H"/><path fill="#fff" d="M114-163C36-179 61-72 57 0H25l-1-190h30c1 12-1 29 2 39 6-27 23-49 58-41v29" id="I"/><path fill="#fff" d="M96-169c-40 0-48 33-48 73s9 75 48 75c24 0 41-14 43-38l32 2c-6 37-31 61-74 61-59 0-76-41-82-99-10-93 101-131 147-64 4 7 5 14 7 22l-32 3c-4-21-16-35-41-35" id="J"/><g id="a"><use transform="matrix(0.07469135802469135,0,0,0.07469135802469135,0,0)" xlink:href="#w"/><use transform="matrix(0.07469135802469135,0,0,0.07469135802469135,22.33271604938271,0)" xlink:href="#x"/><use transform="matrix(0.07469135802469135,0,0,0.07469135802469135,37.270987654320976,0)" xlink:href="#y"/><use transform="matrix(0.07469135802469135,0,0,0.07469135802469135,52.20925925925924,0)" xlink:href="#z"/><use transform="matrix(0.07469135802469135,0,0,0.07469135802469135,67.1475308641975,0)" xlink:href="#A"/><use transform="matrix(0.07469135802469135,0,0,0.07469135802469135,73.04814814814813,0)" xlink:href="#B"/><use transform="matrix(0.07469135802469135,0,0,0.07469135802469135,92.39320987654318,0)" xlink:href="#C"/><use transform="matrix(0.07469135802469135,0,0,0.07469135802469135,107.33148148148145,0)" xlink:href="#D"/><use transform="matrix(0.07469135802469135,0,0,0.07469135802469135,129.66419753086416,0)" xlink:href="#z"/><use transform="matrix(0.07469135802469135,0,0,0.07469135802469135,144.60246913580244,0)" xlink:href="#y"/><use transform="matrix(0.07469135802469135,0,0,0.07469135802469135,159.54074074074072,0)" xlink:href="#E"/><use transform="matrix(0.07469135802469135,0,0,0.07469135802469135,178.88580246913577,0)" xlink:href="#C"/><use transform="matrix(0.07469135802469135,0,0,0.07469135802469135,193.82407407407405,0)" xlink:href="#F"/><use transform="matrix(0.07469135802469135,0,0,0.07469135802469135,201.2932098765432,0)" xlink:href="#C"/><use transform="matrix(0.07469135802469135,0,0,0.07469135802469135,216.23148148148147,0)" xlink:href="#G"/><use transform="matrix(0.07469135802469135,0,0,0.07469135802469135,234.1574074074074,0)" xlink:href="#x"/><use transform="matrix(0.07469135802469135,0,0,0.07469135802469135,249.09567901234567,0)" xlink:href="#H"/><use transform="matrix(0.07469135802469135,0,0,0.07469135802469135,264.03395061728395,0)" xlink:href="#I"/><use transform="matrix(0.07469135802469135,0,0,0.07469135802469135,272.9222222222222,0)" xlink:href="#J"/><use transform="matrix(0.07469135802469135,0,0,0.07469135802469135,286.3666666666667,0)" xlink:href="#z"/></g><path fill="#fff" d="M137 0h-34L2-248h35l83 218 83-218h36" id="K"/><path fill="#fff" d="M24-231v-30h32v30H24zM24 0v-190h32V0H24" id="L"/><path fill="#fff" d="M206 0h-36l-40-164L89 0H53L-1-190h32L70-26l43-164h34l41 164 42-164h31" id="M"/><g id="b"><use transform="matrix(0.07469135802469135,0,0,0.07469135802469135,0,0)" xlink:href="#w"/><use transform="matrix(0.07469135802469135,0,0,0.07469135802469135,22.33271604938271,0)" xlink:href="#x"/><use transform="matrix(0.07469135802469135,0,0,0.07469135802469135,37.270987654320976,0)" xlink:href="#y"/><use transform="matrix(0.07469135802469135,0,0,0.07469135802469135,52.20925925925924,0)" xlink:href="#z"/><use transform="matrix(0.07469135802469135,0,0,0.07469135802469135,67.1475308641975,0)" xlink:href="#A"/><use transform="matrix(0.07469135802469135,0,0,0.07469135802469135,73.04814814814813,0)" xlink:href="#B"/><use transform="matrix(0.07469135802469135,0,0,0.07469135802469135,92.39320987654318,0)" xlink:href="#C"/><use transform="matrix(0.07469135802469135,0,0,0.07469135802469135,107.33148148148145,0)" xlink:href="#D"/><use transform="matrix(0.07469135802469135,0,0,0.07469135802469135,129.66419753086416,0)" xlink:href="#z"/><use transform="matrix(0.07469135802469135,0,0,0.07469135802469135,144.60246913580244,0)" xlink:href="#y"/><use transform="matrix(0.07469135802469135,0,0,0.07469135802469135,159.54074074074072,0)" xlink:href="#K"/><use transform="matrix(0.07469135802469135,0,0,0.07469135802469135,176.9438271604938,0)" xlink:href="#L"/><use transform="matrix(0.07469135802469135,0,0,0.07469135802469135,182.84444444444443,0)" xlink:href="#z"/><use transform="matrix(0.07469135802469135,0,0,0.07469135802469135,197.7827160493827,0)" xlink:href="#M"/><use transform="matrix(0.07469135802469135,0,0,0.07469135802469135,217.12777777777777,0)" xlink:href="#w"/><use transform="matrix(0.07469135802469135,0,0,0.07469135802469135,239.46049382716046,0)" xlink:href="#x"/><use transform="matrix(0.07469135802469135,0,0,0.07469135802469135,254.39876543209877,0)" xlink:href="#y"/><use transform="matrix(0.07469135802469135,0,0,0.07469135802469135,269.337037037037,0)" xlink:href="#z"/><use transform="matrix(0.07469135802469135,0,0,0.07469135802469135,284.2753086419753,0)" xlink:href="#A"/></g><path fill="#fff" d="M126-127c33 6 58 20 58 59 0 88-139 92-164 29-3-8-5-16-6-25l32-3c6 27 21 44 54 44 32 0 52-15 52-46 0-38-36-46-79-43v-28c39 1 72-4 72-42 0-27-17-43-46-43-28 0-47 15-49 41l-32-3c6-42 35-63 81-64 48-1 79 21 79 65 0 36-21 52-52 59" id="N"/><use transform="matrix(0.07469135802469135,0,0,0.07469135802469135,0,0)" xlink:href="#N" id="c"/><path fill="#fff" d="M212-179c-10-28-35-45-73-45-59 0-87 40-87 99 0 60 29 101 89 101 43 0 62-24 78-52l27 14C228-24 195 4 139 4 59 4 22-46 18-125c-6-104 99-153 187-111 19 9 31 26 39 46" id="O"/><path fill="#fff" d="M33 0v-248h34V0H33" id="P"/><path fill="#fff" d="M160-131c35 5 61 23 61 61C221 17 115-2 30 0v-248c76 3 177-17 177 60 0 33-19 50-47 57zm-97-11c50-1 110 9 110-42 0-47-63-36-110-37v79zm0 115c55-2 124 14 124-45 0-56-70-42-124-44v89" id="Q"/><path fill="#fff" d="M232-93c-1 65-40 97-104 97C67 4 28-28 28-90v-158h33c8 89-33 224 67 224 102 0 64-133 71-224h33v155" id="R"/><g id="d"><use transform="matrix(0.07469135802469135,0,0,0.07469135802469135,0,0)" xlink:href="#O"/><use transform="matrix(0.07469135802469135,0,0,0.07469135802469135,19.34506172839506,0)" xlink:href="#P"/><use transform="matrix(0.07469135802469135,0,0,0.07469135802469135,26.81419753086419,0)" xlink:href="#E"/><use transform="matrix(0.07469135802469135,0,0,0.07469135802469135,46.15925925925925,0)" xlink:href="#Q"/><use transform="matrix(0.07469135802469135,0,0,0.07469135802469135,64.08518518518517,0)" xlink:href="#R"/></g><path fill="#fff" d="M205 0l-28-72H64L36 0H1l101-248h38L239 0h-34zm-38-99l-47-123c-12 45-31 82-46 123h93" id="S"/><path fill="#fff" d="M63-220v92h138v28H63V0H30v-248h175v28H63" id="T"/><g id="e"><use transform="matrix(0.07469135802469135,0,0,0.07469135802469135,0,0)" xlink:href="#S"/><use transform="matrix(0.07469135802469135,0,0,0.07469135802469135,17.925925925925924,0)" xlink:href="#O"/><use transform="matrix(0.07469135802469135,0,0,0.07469135802469135,37.27098765432098,0)" xlink:href="#Q"/><use transform="matrix(0.07469135802469135,0,0,0.07469135802469135,55.19691358024691,0)" xlink:href="#T"/><use transform="matrix(0.07469135802469135,0,0,0.07469135802469135,71.55432098765431,0)" xlink:href="#K"/><use transform="matrix(0.07469135802469135,0,0,0.07469135802469135,89.48024691358023,0)" xlink:href="#w"/></g><path fill="#fff" d="M140-251c81 0 123 46 123 126C263-46 219 4 140 4 59 4 17-45 17-125s42-126 123-126zm0 227c63 0 89-41 89-101s-29-99-89-99c-61 0-89 39-89 99S79-25 140-24" id="U"/><path fill="#fff" d="M115-194c53 0 69 39 70 98 0 66-23 100-70 100C84 3 66-7 56-30L54 0H23l1-261h32v101c10-23 28-34 59-34zm-8 174c40 0 45-34 45-75 0-40-5-75-45-74-42 0-51 32-51 76 0 43 10 73 51 73" id="V"/><path fill="#fff" d="M24-231v-30h32v30H24zM-9 49c24 4 33-6 33-30v-209h32V24c2 40-23 58-65 49V49" id="W"/><g id="f"><use transform="matrix(0.07469135802469135,0,0,0.07469135802469135,0,0)" xlink:href="#U"/><use transform="matrix(0.07469135802469135,0,0,0.07469135802469135,20.913580246913575,0)" xlink:href="#V"/><use transform="matrix(0.07469135802469135,0,0,0.07469135802469135,35.85185185185185,0)" xlink:href="#W"/><use transform="matrix(0.07469135802469135,0,0,0.07469135802469135,41.752469135802464,0)" xlink:href="#z"/><use transform="matrix(0.07469135802469135,0,0,0.07469135802469135,56.690740740740736,0)" xlink:href="#J"/><use transform="matrix(0.07469135802469135,0,0,0.07469135802469135,70.13518518518518,0)" xlink:href="#F"/></g><path fill="#fff" d="M27 0v-27h64v-190l-56 39v-29l58-41h29v221h61V0H27" id="X"/><use transform="matrix(0.07469135802469135,0,0,0.07469135802469135,0,0)" xlink:href="#X" id="g"/><path fill="#fff" d="M127-220V0H93v-220H8v-28h204v28h-85" id="Y"/><g id="h"><use transform="matrix(0.07469135802469135,0,0,0.07469135802469135,0,0)" xlink:href="#O"/><use transform="matrix(0.07469135802469135,0,0,0.07469135802469135,19.34506172839506,0)" xlink:href="#Y"/><use transform="matrix(0.07469135802469135,0,0,0.07469135802469135,35.70246913580246,0)" xlink:href="#B"/><use transform="matrix(0.07469135802469135,0,0,0.07469135802469135,55.04753086419752,0)" xlink:href="#w"/></g><path fill="#fff" d="M101-251c82-7 93 87 43 132L82-64C71-53 59-42 53-27h129V0H18c2-99 128-94 128-182 0-28-16-43-45-43s-46 15-49 41l-32-3c6-41 34-60 81-64" id="Z"/><use transform="matrix(0.07469135802469135,0,0,0.07469135802469135,0,0)" xlink:href="#Z" id="i"/><g id="j"><use transform="matrix(0.07469135802469135,0,0,0.07469135802469135,0,0)" xlink:href="#w"/><use transform="matrix(0.07469135802469135,0,0,0.07469135802469135,22.33271604938271,0)" xlink:href="#x"/><use transform="matrix(0.07469135802469135,0,0,0.07469135802469135,37.270987654320976,0)" xlink:href="#y"/><use transform="matrix(0.07469135802469135,0,0,0.07469135802469135,52.20925925925924,0)" xlink:href="#z"/><use transform="matrix(0.07469135802469135,0,0,0.07469135802469135,67.1475308641975,0)" xlink:href="#A"/></g><g id="k"><use transform="matrix(0.07469135802469135,0,0,0.07469135802469135,0,0)" xlink:href="#G"/><use transform="matrix(0.07469135802469135,0,0,0.07469135802469135,17.925925925925924,0)" xlink:href="#F"/><use transform="matrix(0.07469135802469135,0,0,0.07469135802469135,25.395061728395056,0)" xlink:href="#C"/><use transform="matrix(0.07469135802469135,0,0,0.07469135802469135,40.33333333333333,0)" xlink:href="#F"/><use transform="matrix(0.07469135802469135,0,0,0.07469135802469135,47.80246913580246,0)" xlink:href="#z"/></g><g id="l"><use transform="matrix(0.05617283950617281,0,0,0.05617283950617281,0,0)" xlink:href="#w"/><use transform="matrix(0.05617283950617281,0,0,0.05617283950617281,16.79567901234567,0)" xlink:href="#x"/><use transform="matrix(0.05617283950617281,0,0,0.05617283950617281,28.03024691358023,0)" xlink:href="#y"/><use transform="matrix(0.05617283950617281,0,0,0.05617283950617281,39.26481481481479,0)" xlink:href="#z"/><use transform="matrix(0.05617283950617281,0,0,0.05617283950617281,50.499382716049354,0)" xlink:href="#A"/></g><g id="m"><use transform="matrix(0.05617283950617281,0,0,0.05617283950617281,0,0)" xlink:href="#G"/><use transform="matrix(0.05617283950617281,0,0,0.05617283950617281,13.481481481481474,0)" xlink:href="#F"/><use transform="matrix(0.05617283950617281,0,0,0.05617283950617281,19.098765432098755,0)" xlink:href="#I"/><use transform="matrix(0.05617283950617281,0,0,0.05617283950617281,25.783333333333317,0)" xlink:href="#z"/><use transform="matrix(0.05617283950617281,0,0,0.05617283950617281,37.01790123456788,0)" xlink:href="#C"/><use transform="matrix(0.05617283950617281,0,0,0.05617283950617281,48.25246913580244,0)" xlink:href="#D"/></g><path fill="#fff" d="M30 0v-248h33v221h125V0H30" id="aa"/><path fill="#fff" d="M135-143c-3-34-86-38-87 0 15 53 115 12 119 90S17 21 10-45l28-5c4 36 97 45 98 0-10-56-113-15-118-90-4-57 82-63 122-42 12 7 21 19 24 35" id="ab"/><path fill="#fff" d="M101-234c-31-9-42 10-38 44h38v23H63V0H32v-167H5v-23h27c-7-52 17-82 69-68v24" id="ac"/><g id="n"><use transform="matrix(0.07469135802469135,0,0,0.07469135802469135,0,0)" xlink:href="#aa"/><use transform="matrix(0.07469135802469135,0,0,0.07469135802469135,14.938271604938269,0)" xlink:href="#L"/><use transform="matrix(0.07469135802469135,0,0,0.07469135802469135,20.838888888888885,0)" xlink:href="#ab"/><use transform="matrix(0.07469135802469135,0,0,0.07469135802469135,34.28333333333333,0)" xlink:href="#F"/><use transform="matrix(0.07469135802469135,0,0,0.07469135802469135,41.752469135802464,0)" xlink:href="#U"/><use transform="matrix(0.07469135802469135,0,0,0.07469135802469135,62.66604938271604,0)" xlink:href="#ac"/><use transform="matrix(0.07469135802469135,0,0,0.07469135802469135,70.13518518518518,0)" xlink:href="#K"/><use transform="matrix(0.07469135802469135,0,0,0.07469135802469135,87.53827160493826,0)" xlink:href="#L"/><use transform="matrix(0.07469135802469135,0,0,0.07469135802469135,93.43888888888887,0)" xlink:href="#z"/><use transform="matrix(0.07469135802469135,0,0,0.07469135802469135,108.37716049382712,0)" xlink:href="#M"/><use transform="matrix(0.07469135802469135,0,0,0.07469135802469135,127.7222222222222,0)" xlink:href="#w"/><use transform="matrix(0.07469135802469135,0,0,0.07469135802469135,150.0549382716049,0)" xlink:href="#x"/><use transform="matrix(0.07469135802469135,0,0,0.07469135802469135,164.99320987654318,0)" xlink:href="#y"/><use transform="matrix(0.07469135802469135,0,0,0.07469135802469135,179.93148148148146,0)" xlink:href="#z"/><use transform="matrix(0.07469135802469135,0,0,0.07469135802469135,194.86975308641973,0)" xlink:href="#A"/><use transform="matrix(0.07469135802469135,0,0,0.07469135802469135,200.77037037037036,0)" xlink:href="#T"/><use transform="matrix(0.07469135802469135,0,0,0.07469135802469135,217.12777777777777,0)" xlink:href="#x"/><use transform="matrix(0.07469135802469135,0,0,0.07469135802469135,232.06604938271605,0)" xlink:href="#I"/><use transform="matrix(0.07469135802469135,0,0,0.07469135802469135,240.9543209876543,0)" xlink:href="#B"/><use transform="matrix(0.07469135802469135,0,0,0.07469135802469135,260.29938271604937,0)" xlink:href="#C"/><use transform="matrix(0.07469135802469135,0,0,0.07469135802469135,275.23765432098764,0)" xlink:href="#D"/><use transform="matrix(0.07469135802469135,0,0,0.07469135802469135,297.57037037037037,0)" xlink:href="#z"/><use transform="matrix(0.07469135802469135,0,0,0.07469135802469135,312.50864197530865,0)" xlink:href="#y"/><use transform="matrix(0.07469135802469135,0,0,0.07469135802469135,327.4469135802469,0)" xlink:href="#K"/><use transform="matrix(0.07469135802469135,0,0,0.07469135802469135,344.85,0)" xlink:href="#L"/><use transform="matrix(0.07469135802469135,0,0,0.07469135802469135,350.75061728395065,0)" xlink:href="#z"/><use transform="matrix(0.07469135802469135,0,0,0.07469135802469135,365.68888888888887,0)" xlink:href="#M"/></g><g id="o"><use transform="matrix(0.07469135802469135,0,0,0.07469135802469135,0,0)" xlink:href="#B"/><use transform="matrix(0.07469135802469135,0,0,0.07469135802469135,19.34506172839506,0)" xlink:href="#C"/><use transform="matrix(0.07469135802469135,0,0,0.07469135802469135,34.28333333333333,0)" xlink:href="#D"/><use transform="matrix(0.07469135802469135,0,0,0.07469135802469135,56.61604938271604,0)" xlink:href="#z"/><use transform="matrix(0.07469135802469135,0,0,0.07469135802469135,71.55432098765431,0)" xlink:href="#y"/><use transform="matrix(0.07469135802469135,0,0,0.07469135802469135,86.49259259259257,0)" xlink:href="#K"/><use transform="matrix(0.07469135802469135,0,0,0.07469135802469135,103.89567901234564,0)" xlink:href="#L"/><use transform="matrix(0.07469135802469135,0,0,0.07469135802469135,109.79629629629628,0)" xlink:href="#z"/><use transform="matrix(0.07469135802469135,0,0,0.07469135802469135,124.73456790123454,0)" xlink:href="#M"/></g><g id="p"><use transform="matrix(0.07469135802469135,0,0,0.07469135802469135,0,0)" xlink:href="#T"/><use transform="matrix(0.07469135802469135,0,0,0.07469135802469135,16.357407407407404,0)" xlink:href="#K"/><use transform="matrix(0.07469135802469135,0,0,0.07469135802469135,34.28333333333333,0)" xlink:href="#w"/></g><path fill="#fff" d="M87 75C49 33 22-17 22-94c0-76 28-126 65-167h31c-38 41-64 92-64 168S80 34 118 75H87" id="ad"/><path fill="#fff" d="M33-261c38 41 65 92 65 168S71 34 33 75H2C39 34 66-17 66-93S39-220 2-261h31" id="ae"/><g id="q"><use transform="matrix(0.07469135802469135,0,0,0.07469135802469135,0,0)" xlink:href="#ad"/><use transform="matrix(0.07469135802469135,0,0,0.07469135802469135,8.88827160493827,0)" xlink:href="#G"/><use transform="matrix(0.07469135802469135,0,0,0.07469135802469135,26.81419753086419,0)" xlink:href="#F"/><use transform="matrix(0.07469135802469135,0,0,0.07469135802469135,34.283333333333324,0)" xlink:href="#C"/><use transform="matrix(0.07469135802469135,0,0,0.07469135802469135,49.2216049382716,0)" xlink:href="#F"/><use transform="matrix(0.07469135802469135,0,0,0.07469135802469135,56.69074074074073,0)" xlink:href="#L"/><use transform="matrix(0.07469135802469135,0,0,0.07469135802469135,62.591358024691345,0)" xlink:href="#J"/><use transform="matrix(0.07469135802469135,0,0,0.07469135802469135,76.03580246913579,0)" xlink:href="#ae"/></g><g id="r"><use transform="matrix(0.06234567901234565,0,0,0.06234567901234565,0,0)" xlink:href="#S"/><use transform="matrix(0.06234567901234565,0,0,0.06234567901234565,14.962962962962957,0)" xlink:href="#V"/><use transform="matrix(0.06234567901234565,0,0,0.06234567901234565,27.432098765432087,0)" xlink:href="#ab"/><use transform="matrix(0.06234567901234565,0,0,0.06234567901234565,38.6543209876543,0)" xlink:href="#F"/><use transform="matrix(0.06234567901234565,0,0,0.06234567901234565,44.888888888888864,0)" xlink:href="#I"/><use transform="matrix(0.06234567901234565,0,0,0.06234567901234565,52.308024691358,0)" xlink:href="#C"/><use transform="matrix(0.06234567901234565,0,0,0.06234567901234565,64.77716049382713,0)" xlink:href="#J"/></g><path fill="#fff" d="M106-169C34-169 62-67 57 0H25v-261h32l-1 103c12-21 28-36 61-36 89 0 53 116 60 194h-32v-121c2-32-8-49-39-48" id="af"/><g id="s"><use transform="matrix(0.06234567901234565,0,0,0.06234567901234565,0,0)" xlink:href="#w"/><use transform="matrix(0.06234567901234565,0,0,0.06234567901234565,18.64135802469135,0)" xlink:href="#z"/><use transform="matrix(0.06234567901234565,0,0,0.06234567901234565,31.110493827160482,0)" xlink:href="#F"/><use transform="matrix(0.06234567901234565,0,0,0.06234567901234565,37.345061728395045,0)" xlink:href="#af"/><use transform="matrix(0.06234567901234565,0,0,0.06234567901234565,49.81419753086418,0)" xlink:href="#x"/><use transform="matrix(0.06234567901234565,0,0,0.06234567901234565,62.28333333333331,0)" xlink:href="#y"/><use transform="matrix(0.06234567901234565,0,0,0.06234567901234565,74.75246913580244,0)" xlink:href="#ab"/></g><path fill="#fff" d="M117-194c89-4 53 116 60 194h-32v-121c0-31-8-49-39-48C34-167 62-67 57 0H25l-1-190h30c1 10-1 24 2 32 11-22 29-35 61-36" id="ag"/><path fill="#fff" d="M177-190C167-65 218 103 67 71c-23-6-38-20-44-43l32-5c15 47 100 32 89-28v-30C133-14 115 1 83 1 29 1 15-40 15-95c0-56 16-97 71-98 29-1 48 16 59 35 1-10 0-23 2-32h30zM94-22c36 0 50-32 50-73 0-42-14-75-50-75-39 0-46 34-46 75s6 73 46 73" id="ah"/><g id="t"><use transform="matrix(0.14876543209876522,0,0,0.14876543209876522,0,0)" xlink:href="#G"/><use transform="matrix(0.14876543209876522,0,0,0.14876543209876522,35.70370370370365,0)" xlink:href="#L"/><use transform="matrix(0.14876543209876522,0,0,0.14876543209876522,47.4561728395061,0)" xlink:href="#ag"/><use transform="matrix(0.14876543209876522,0,0,0.14876543209876522,77.20925925925916,0)" xlink:href="#ah"/><use transform="matrix(0.14876543209876522,0,0,0.14876543209876522,106.96234567901219,0)" xlink:href="#A"/><use transform="matrix(0.14876543209876522,0,0,0.14876543209876522,118.71481481481466,0)" xlink:href="#z"/><use transform="matrix(0.14876543209876522,0,0,0.14876543209876522,148.4679012345677,0)" xlink:href="#F"/><use transform="matrix(0.14876543209876522,0,0,0.14876543209876522,163.34444444444424,0)" xlink:href="#x"/><use transform="matrix(0.14876543209876522,0,0,0.14876543209876522,193.09753086419727,0)" xlink:href="#ag"/></g><g id="u"><use transform="matrix(0.14876543209876522,0,0,0.14876543209876522,0,0)" xlink:href="#B"/><use transform="matrix(0.14876543209876522,0,0,0.14876543209876522,38.53024691358019,0)" xlink:href="#x"/></g><g id="v"><use transform="matrix(0.14876543209876522,0,0,0.14876543209876522,0,0)" xlink:href="#G"/><use transform="matrix(0.14876543209876522,0,0,0.14876543209876522,35.70370370370365,0)" xlink:href="#L"/><use transform="matrix(0.14876543209876522,0,0,0.14876543209876522,47.4561728395061,0)" xlink:href="#ag"/><use transform="matrix(0.14876543209876522,0,0,0.14876543209876522,77.20925925925916,0)" xlink:href="#ah"/><use transform="matrix(0.14876543209876522,0,0,0.14876543209876522,106.96234567901219,0)" xlink:href="#A"/><use transform="matrix(0.14876543209876522,0,0,0.14876543209876522,118.71481481481466,0)" xlink:href="#z"/><use transform="matrix(0.14876543209876522,0,0,0.14876543209876522,148.4679012345677,0)" xlink:href="#F"/><use transform="matrix(0.14876543209876522,0,0,0.14876543209876522,163.34444444444424,0)" xlink:href="#x"/><use transform="matrix(0.14876543209876522,0,0,0.14876543209876522,193.09753086419727,0)" xlink:href="#ag"/></g></defs></g></svg>